<?xml version="1.0" encoding="utf-8" standalone="no"?>
<!DOCTYPE svg PUBLIC "-//W3C//DTD SVG 1.1//EN"
  "http://www.w3.org/Graphics/SVG/1.1/DTD/svg11.dtd">
<svg xmlns:xlink="http://www.w3.org/1999/xlink" width="720pt" height="252pt" viewBox="0 0 720 252" xmlns="http://www.w3.org/2000/svg" version="1.1">
 <metadata>
  <rdf:RDF xmlns:dc="http://purl.org/dc/elements/1.1/" xmlns:cc="http://creativecommons.org/ns#" xmlns:rdf="http://www.w3.org/1999/02/22-rdf-syntax-ns#">
   <cc:Work>
    <dc:type rdf:resource="http://purl.org/dc/dcmitype/StillImage"/>
    <dc:date>2023-08-15T22:37:15.973020</dc:date>
    <dc:format>image/svg+xml</dc:format>
    <dc:creator>
     <cc:Agent>
      <dc:title>Matplotlib v3.5.3, https://matplotlib.org/</dc:title>
     </cc:Agent>
    </dc:creator>
   </cc:Work>
  </rdf:RDF>
 </metadata>
 <defs>
  <style type="text/css">*{stroke-linejoin: round; stroke-linecap: butt}</style>
 </defs>
 <g id="figure_1">
  <g id="patch_1">
   <path d="M 0 252 
L 720 252 
L 720 0 
L 0 0 
z
" style="fill: #ffffff"/>
  </g>
  <g id="axes_1">
   <g id="patch_2">
    <path d="M 47.18 208.456 
L 720 208.456 
L 720 0.155294 
L 47.18 0.155294 
z
" style="fill: #ffffff"/>
   </g>
   <g id="PolyCollection_1">
    <path d="M 57.432495 206.276422 
L 57.432495 206.536956 
L 67.620912 206.517688 
L 77.80933 207.972726 
L 87.997747 209.916722 
L 98.186164 204.325203 
L 108.374581 204.460956 
L 118.562998 198.545149 
L 128.751415 202.041267 
L 138.939832 198.822032 
L 149.12825 202.639899 
L 159.316667 199.186315 
L 169.505084 171.875085 
L 179.693501 175.506893 
L 189.881918 156.913176 
L 200.070335 149.360477 
L 210.258752 124.146534 
L 220.44717 130.761914 
L 230.635587 110.7154 
L 240.824004 131.690241 
L 251.012421 102.168954 
L 256.10663 118.130074 
L 261.200838 142.186317 
L 266.295047 70.04177 
L 271.389255 73.058481 
L 276.483464 123.960237 
L 281.577672 95.915606 
L 286.671881 78.231974 
L 291.76609 72.961968 
L 296.860298 92.690833 
L 301.954507 80.553349 
L 307.048715 79.644748 
L 312.142924 53.787276 
L 317.237132 84.43328 
L 322.331341 59.257192 
L 327.42555 56.972121 
L 332.519758 50.250958 
L 337.613967 41.249082 
L 342.708175 55.080635 
L 347.802384 56.916842 
L 352.896592 55.702127 
L 378.367635 38.042795 
L 403.838678 26.762505 
L 429.309721 39.893157 
L 454.780764 24.087712 
L 480.251807 24.6154 
L 505.72285 21.590206 
L 531.193892 24.878184 
L 556.664935 22.330117 
L 582.135978 21.760568 
L 607.607021 20.588209 
L 633.078064 18.9865 
L 658.549107 19.222811 
L 684.02015 19.391991 
L 709.491192 18.940947 
L 734.962235 18.478539 
L 760.433278 18.938765 
L 785.904321 18.454665 
L 811.375364 16.817977 
L 811.375364 14.977123 
L 811.375364 14.977123 
L 785.904321 15.930056 
L 760.433278 16.609491 
L 734.962235 15.168221 
L 709.491192 16.215074 
L 684.02015 16.83586 
L 658.549107 17.415522 
L 633.078064 16.982787 
L 607.607021 17.358437 
L 582.135978 16.722581 
L 556.664935 18.066354 
L 531.193892 18.189433 
L 505.72285 18.741556 
L 480.251807 19.645067 
L 454.780764 20.634323 
L 429.309721 19.082606 
L 403.838678 19.641978 
L 378.367635 17.317003 
L 352.896592 20.16215 
L 347.802384 21.932786 
L 342.708175 19.297416 
L 337.613967 23.259678 
L 332.519758 24.426198 
L 327.42555 20.842826 
L 322.331341 29.314828 
L 317.237132 27.666248 
L 312.142924 37.705622 
L 307.048715 29.817243 
L 301.954507 36.254857 
L 296.860298 42.498902 
L 291.76609 38.359735 
L 286.671881 28.365862 
L 281.577672 64.543533 
L 276.483464 23.74203 
L 271.389255 53.664503 
L 266.295047 37.341561 
L 261.200838 64.807967 
L 256.10663 48.952037 
L 251.012421 73.59543 
L 240.824004 111.517427 
L 230.635587 48.649147 
L 220.44717 53.375453 
L 210.258752 83.812898 
L 200.070335 68.521178 
L 189.881918 63.744499 
L 179.693501 159.711396 
L 169.505084 129.612976 
L 159.316667 161.321889 
L 149.12825 159.439122 
L 138.939832 170.872394 
L 128.751415 151.681918 
L 118.562998 171.101771 
L 108.374581 173.516191 
L 98.186164 186.106092 
L 87.997747 195.554117 
L 77.80933 190.595898 
L 67.620912 206.301816 
L 57.432495 206.276422 
z
" clip-path="url(#pe5fc7d661a)" style="fill: #ff7f0e; fill-opacity: 0.3; stroke: #ff7f0e; stroke-opacity: 0.3"/>
   </g>
   <g id="PolyCollection_2">
    <path d="M 57.432495 206.233234 
L 57.432495 206.462923 
L 67.620912 206.547787 
L 77.80933 207.71744 
L 87.997747 209.504451 
L 98.186164 207.845014 
L 108.374581 204.407125 
L 118.562998 198.898574 
L 128.751415 204.131121 
L 138.939832 198.112289 
L 149.12825 203.247101 
L 159.316667 200.787845 
L 169.505084 175.470004 
L 179.693501 180.11699 
L 189.881918 161.952455 
L 200.070335 156.104258 
L 210.258752 139.31292 
L 220.44717 140.556821 
L 230.635587 126.368978 
L 240.824004 140.637604 
L 251.012421 120.829518 
L 256.10663 128.252399 
L 261.200838 139.861047 
L 266.295047 94.955115 
L 271.389255 93.556586 
L 276.483464 134.699632 
L 281.577672 113.385821 
L 286.671881 97.822328 
L 291.76609 96.097476 
L 296.860298 106.685539 
L 301.954507 99.342659 
L 307.048715 101.115669 
L 312.142924 82.932638 
L 317.237132 103.359022 
L 322.331341 83.266647 
L 327.42555 81.077475 
L 332.519758 73.740833 
L 337.613967 66.714994 
L 342.708175 74.698273 
L 347.802384 82.079247 
L 352.896592 81.31578 
L 378.367635 67.203358 
L 403.838678 54.985628 
L 429.309721 66.309866 
L 454.780764 55.395765 
L 480.251807 56.108188 
L 505.72285 53.139337 
L 531.193892 52.21693 
L 556.664935 53.657916 
L 582.135978 50.44449 
L 607.607021 50.268943 
L 633.078064 46.655483 
L 658.549107 47.912706 
L 684.02015 49.990376 
L 709.491192 46.592264 
L 734.962235 48.055213 
L 760.433278 48.363734 
L 785.904321 46.650608 
L 811.375364 45.363739 
L 811.375364 42.248924 
L 811.375364 42.248924 
L 785.904321 42.741409 
L 760.433278 44.329857 
L 734.962235 44.280358 
L 709.491192 44.484328 
L 684.02015 45.314462 
L 658.549107 44.984272 
L 633.078064 44.517672 
L 607.607021 48.56187 
L 582.135978 45.857094 
L 556.664935 49.208962 
L 531.193892 45.597368 
L 505.72285 50.952427 
L 480.251807 50.411443 
L 454.780764 51.019891 
L 429.309721 50.44736 
L 403.838678 50.755995 
L 378.367635 51.056996 
L 352.896592 53.808343 
L 347.802384 50.342798 
L 342.708175 47.617674 
L 337.613967 52.036218 
L 332.519758 51.425347 
L 327.42555 51.126942 
L 322.331341 53.683122 
L 317.237132 55.970685 
L 312.142924 59.507489 
L 307.048715 56.843116 
L 301.954507 63.034637 
L 296.860298 69.223325 
L 291.76609 65.904728 
L 286.671881 57.151016 
L 281.577672 86.611262 
L 276.483464 53.152843 
L 271.389255 77.001738 
L 266.295047 66.053437 
L 261.200838 88.750055 
L 256.10663 74.551512 
L 251.012421 80.983908 
L 240.824004 124.422708 
L 230.635587 80.438713 
L 220.44717 75.584776 
L 210.258752 102.862928 
L 200.070335 93.269473 
L 189.881918 88.089098 
L 179.693501 163.620031 
L 169.505084 140.612045 
L 159.316667 165.748587 
L 149.12825 164.536956 
L 138.939832 176.770811 
L 128.751415 158.790661 
L 118.562998 174.900437 
L 108.374581 176.641036 
L 98.186164 191.837813 
L 87.997747 196.983022 
L 77.80933 194.032653 
L 67.620912 206.225155 
L 57.432495 206.233234 
z
" clip-path="url(#pe5fc7d661a)" style="fill: #1f77b4; fill-opacity: 0.3; stroke: #1f77b4; stroke-opacity: 0.3"/>
   </g>
   <g id="matplotlib.axis_1">
    <g id="xtick_1">
     <g id="line2d_1">
      <defs>
       <path id="m769a4af737" d="M 0 0 
L 0 3.5 
" style="stroke: #000000; stroke-width: 0.8"/>
      </defs>
      <g>
       <use xlink:href="#m769a4af737" x="57.432495" y="208.456" style="stroke: #000000; stroke-width: 0.8"/>
      </g>
     </g>
     <g id="text_1">
      <!-- 1.6k -->
      <g transform="translate(46.58562 223.054438)scale(0.1 -0.1)">
       <defs>
        <path id="DejaVuSans-31" d="M 794 531 
L 1825 531 
L 1825 4091 
L 703 3866 
L 703 4441 
L 1819 4666 
L 2450 4666 
L 2450 531 
L 3481 531 
L 3481 0 
L 794 0 
L 794 531 
z
" transform="scale(0.015625)"/>
        <path id="DejaVuSans-2e" d="M 684 794 
L 1344 794 
L 1344 0 
L 684 0 
L 684 794 
z
" transform="scale(0.015625)"/>
        <path id="DejaVuSans-36" d="M 2113 2584 
Q 1688 2584 1439 2293 
Q 1191 2003 1191 1497 
Q 1191 994 1439 701 
Q 1688 409 2113 409 
Q 2538 409 2786 701 
Q 3034 994 3034 1497 
Q 3034 2003 2786 2293 
Q 2538 2584 2113 2584 
z
M 3366 4563 
L 3366 3988 
Q 3128 4100 2886 4159 
Q 2644 4219 2406 4219 
Q 1781 4219 1451 3797 
Q 1122 3375 1075 2522 
Q 1259 2794 1537 2939 
Q 1816 3084 2150 3084 
Q 2853 3084 3261 2657 
Q 3669 2231 3669 1497 
Q 3669 778 3244 343 
Q 2819 -91 2113 -91 
Q 1303 -91 875 529 
Q 447 1150 447 2328 
Q 447 3434 972 4092 
Q 1497 4750 2381 4750 
Q 2619 4750 2861 4703 
Q 3103 4656 3366 4563 
z
" transform="scale(0.015625)"/>
        <path id="DejaVuSans-6b" d="M 581 4863 
L 1159 4863 
L 1159 1991 
L 2875 3500 
L 3609 3500 
L 1753 1863 
L 3688 0 
L 2938 0 
L 1159 1709 
L 1159 0 
L 581 0 
L 581 4863 
z
" transform="scale(0.015625)"/>
       </defs>
       <use xlink:href="#DejaVuSans-31"/>
       <use xlink:href="#DejaVuSans-2e" x="63.623047"/>
       <use xlink:href="#DejaVuSans-36" x="95.410156"/>
       <use xlink:href="#DejaVuSans-6b" x="159.033203"/>
      </g>
      <!-- 2 -->
      <g transform="translate(54.251245 234.25225)scale(0.1 -0.1)">
       <defs>
        <path id="DejaVuSans-32" d="M 1228 531 
L 3431 531 
L 3431 0 
L 469 0 
L 469 531 
Q 828 903 1448 1529 
Q 2069 2156 2228 2338 
Q 2531 2678 2651 2914 
Q 2772 3150 2772 3378 
Q 2772 3750 2511 3984 
Q 2250 4219 1831 4219 
Q 1534 4219 1204 4116 
Q 875 4013 500 3803 
L 500 4441 
Q 881 4594 1212 4672 
Q 1544 4750 1819 4750 
Q 2544 4750 2975 4387 
Q 3406 4025 3406 3419 
Q 3406 3131 3298 2873 
Q 3191 2616 2906 2266 
Q 2828 2175 2409 1742 
Q 1991 1309 1228 531 
z
" transform="scale(0.015625)"/>
       </defs>
       <use xlink:href="#DejaVuSans-32"/>
      </g>
     </g>
    </g>
    <g id="xtick_2">
     <g id="line2d_2">
      <g>
       <use xlink:href="#m769a4af737" x="98.186164" y="208.456" style="stroke: #000000; stroke-width: 0.8"/>
      </g>
     </g>
     <g id="text_2">
      <!-- 8k -->
      <g transform="translate(92.109601 223.054438)scale(0.1 -0.1)">
       <defs>
        <path id="DejaVuSans-38" d="M 2034 2216 
Q 1584 2216 1326 1975 
Q 1069 1734 1069 1313 
Q 1069 891 1326 650 
Q 1584 409 2034 409 
Q 2484 409 2743 651 
Q 3003 894 3003 1313 
Q 3003 1734 2745 1975 
Q 2488 2216 2034 2216 
z
M 1403 2484 
Q 997 2584 770 2862 
Q 544 3141 544 3541 
Q 544 4100 942 4425 
Q 1341 4750 2034 4750 
Q 2731 4750 3128 4425 
Q 3525 4100 3525 3541 
Q 3525 3141 3298 2862 
Q 3072 2584 2669 2484 
Q 3125 2378 3379 2068 
Q 3634 1759 3634 1313 
Q 3634 634 3220 271 
Q 2806 -91 2034 -91 
Q 1263 -91 848 271 
Q 434 634 434 1313 
Q 434 1759 690 2068 
Q 947 2378 1403 2484 
z
M 1172 3481 
Q 1172 3119 1398 2916 
Q 1625 2713 2034 2713 
Q 2441 2713 2670 2916 
Q 2900 3119 2900 3481 
Q 2900 3844 2670 4047 
Q 2441 4250 2034 4250 
Q 1625 4250 1398 4047 
Q 1172 3844 1172 3481 
z
" transform="scale(0.015625)"/>
       </defs>
       <use xlink:href="#DejaVuSans-38"/>
       <use xlink:href="#DejaVuSans-6b" x="63.623047"/>
      </g>
      <!-- 10 -->
      <g transform="translate(91.823664 234.25225)scale(0.1 -0.1)">
       <defs>
        <path id="DejaVuSans-30" d="M 2034 4250 
Q 1547 4250 1301 3770 
Q 1056 3291 1056 2328 
Q 1056 1369 1301 889 
Q 1547 409 2034 409 
Q 2525 409 2770 889 
Q 3016 1369 3016 2328 
Q 3016 3291 2770 3770 
Q 2525 4250 2034 4250 
z
M 2034 4750 
Q 2819 4750 3233 4129 
Q 3647 3509 3647 2328 
Q 3647 1150 3233 529 
Q 2819 -91 2034 -91 
Q 1250 -91 836 529 
Q 422 1150 422 2328 
Q 422 3509 836 4129 
Q 1250 4750 2034 4750 
z
" transform="scale(0.015625)"/>
       </defs>
       <use xlink:href="#DejaVuSans-31"/>
       <use xlink:href="#DejaVuSans-30" x="63.623047"/>
      </g>
     </g>
    </g>
    <g id="xtick_3">
     <g id="line2d_3">
      <g>
       <use xlink:href="#m769a4af737" x="174.599292" y="208.456" style="stroke: #000000; stroke-width: 0.8"/>
      </g>
     </g>
     <g id="text_3">
      <!-- 19.9k -->
      <g transform="translate(160.571167 223.054438)scale(0.1 -0.1)">
       <defs>
        <path id="DejaVuSans-39" d="M 703 97 
L 703 672 
Q 941 559 1184 500 
Q 1428 441 1663 441 
Q 2288 441 2617 861 
Q 2947 1281 2994 2138 
Q 2813 1869 2534 1725 
Q 2256 1581 1919 1581 
Q 1219 1581 811 2004 
Q 403 2428 403 3163 
Q 403 3881 828 4315 
Q 1253 4750 1959 4750 
Q 2769 4750 3195 4129 
Q 3622 3509 3622 2328 
Q 3622 1225 3098 567 
Q 2575 -91 1691 -91 
Q 1453 -91 1209 -44 
Q 966 3 703 97 
z
M 1959 2075 
Q 2384 2075 2632 2365 
Q 2881 2656 2881 3163 
Q 2881 3666 2632 3958 
Q 2384 4250 1959 4250 
Q 1534 4250 1286 3958 
Q 1038 3666 1038 3163 
Q 1038 2656 1286 2365 
Q 1534 2075 1959 2075 
z
" transform="scale(0.015625)"/>
       </defs>
       <use xlink:href="#DejaVuSans-31"/>
       <use xlink:href="#DejaVuSans-39" x="63.623047"/>
       <use xlink:href="#DejaVuSans-2e" x="127.246094"/>
       <use xlink:href="#DejaVuSans-39" x="159.033203"/>
       <use xlink:href="#DejaVuSans-6b" x="222.65625"/>
      </g>
      <!-- 25 -->
      <g transform="translate(168.236792 234.25225)scale(0.1 -0.1)">
       <defs>
        <path id="DejaVuSans-35" d="M 691 4666 
L 3169 4666 
L 3169 4134 
L 1269 4134 
L 1269 2991 
Q 1406 3038 1543 3061 
Q 1681 3084 1819 3084 
Q 2600 3084 3056 2656 
Q 3513 2228 3513 1497 
Q 3513 744 3044 326 
Q 2575 -91 1722 -91 
Q 1428 -91 1123 -41 
Q 819 9 494 109 
L 494 744 
Q 775 591 1075 516 
Q 1375 441 1709 441 
Q 2250 441 2565 725 
Q 2881 1009 2881 1497 
Q 2881 1984 2565 2268 
Q 2250 2553 1709 2553 
Q 1456 2553 1204 2497 
Q 953 2441 691 2322 
L 691 4666 
z
" transform="scale(0.015625)"/>
       </defs>
       <use xlink:href="#DejaVuSans-32"/>
       <use xlink:href="#DejaVuSans-35" x="63.623047"/>
      </g>
     </g>
    </g>
    <g id="xtick_4">
     <g id="line2d_4">
      <g>
       <use xlink:href="#m769a4af737" x="251.012421" y="208.456" style="stroke: #000000; stroke-width: 0.8"/>
      </g>
     </g>
     <g id="text_4">
      <!-- 31.8k -->
      <g transform="translate(236.984296 223.054438)scale(0.1 -0.1)">
       <defs>
        <path id="DejaVuSans-33" d="M 2597 2516 
Q 3050 2419 3304 2112 
Q 3559 1806 3559 1356 
Q 3559 666 3084 287 
Q 2609 -91 1734 -91 
Q 1441 -91 1130 -33 
Q 819 25 488 141 
L 488 750 
Q 750 597 1062 519 
Q 1375 441 1716 441 
Q 2309 441 2620 675 
Q 2931 909 2931 1356 
Q 2931 1769 2642 2001 
Q 2353 2234 1838 2234 
L 1294 2234 
L 1294 2753 
L 1863 2753 
Q 2328 2753 2575 2939 
Q 2822 3125 2822 3475 
Q 2822 3834 2567 4026 
Q 2313 4219 1838 4219 
Q 1578 4219 1281 4162 
Q 984 4106 628 3988 
L 628 4550 
Q 988 4650 1302 4700 
Q 1616 4750 1894 4750 
Q 2613 4750 3031 4423 
Q 3450 4097 3450 3541 
Q 3450 3153 3228 2886 
Q 3006 2619 2597 2516 
z
" transform="scale(0.015625)"/>
       </defs>
       <use xlink:href="#DejaVuSans-33"/>
       <use xlink:href="#DejaVuSans-31" x="63.623047"/>
       <use xlink:href="#DejaVuSans-2e" x="127.246094"/>
       <use xlink:href="#DejaVuSans-38" x="159.033203"/>
       <use xlink:href="#DejaVuSans-6b" x="222.65625"/>
      </g>
      <!-- 40 -->
      <g transform="translate(244.649921 234.25225)scale(0.1 -0.1)">
       <defs>
        <path id="DejaVuSans-34" d="M 2419 4116 
L 825 1625 
L 2419 1625 
L 2419 4116 
z
M 2253 4666 
L 3047 4666 
L 3047 1625 
L 3713 1625 
L 3713 1100 
L 3047 1100 
L 3047 0 
L 2419 0 
L 2419 1100 
L 313 1100 
L 313 1709 
L 2253 4666 
z
" transform="scale(0.015625)"/>
       </defs>
       <use xlink:href="#DejaVuSans-34"/>
       <use xlink:href="#DejaVuSans-30" x="63.623047"/>
      </g>
     </g>
    </g>
    <g id="xtick_5">
     <g id="line2d_5">
      <g>
       <use xlink:href="#m769a4af737" x="352.896592" y="208.456" style="stroke: #000000; stroke-width: 0.8"/>
      </g>
     </g>
     <g id="text_5">
      <!-- 47.7k -->
      <g transform="translate(338.868467 223.054438)scale(0.1 -0.1)">
       <defs>
        <path id="DejaVuSans-37" d="M 525 4666 
L 3525 4666 
L 3525 4397 
L 1831 0 
L 1172 0 
L 2766 4134 
L 525 4134 
L 525 4666 
z
" transform="scale(0.015625)"/>
       </defs>
       <use xlink:href="#DejaVuSans-34"/>
       <use xlink:href="#DejaVuSans-37" x="63.623047"/>
       <use xlink:href="#DejaVuSans-2e" x="127.246094"/>
       <use xlink:href="#DejaVuSans-37" x="159.033203"/>
       <use xlink:href="#DejaVuSans-6b" x="222.65625"/>
      </g>
      <!-- 60 -->
      <g transform="translate(346.534092 234.25225)scale(0.1 -0.1)">
       <use xlink:href="#DejaVuSans-36"/>
       <use xlink:href="#DejaVuSans-30" x="63.623047"/>
      </g>
     </g>
    </g>
    <g id="xtick_6">
     <g id="line2d_6">
      <g>
       <use xlink:href="#m769a4af737" x="429.309721" y="208.456" style="stroke: #000000; stroke-width: 0.8"/>
      </g>
     </g>
     <g id="text_6">
      <!-- 59.6k -->
      <g transform="translate(415.281596 223.054438)scale(0.1 -0.1)">
       <use xlink:href="#DejaVuSans-35"/>
       <use xlink:href="#DejaVuSans-39" x="63.623047"/>
       <use xlink:href="#DejaVuSans-2e" x="127.246094"/>
       <use xlink:href="#DejaVuSans-36" x="159.033203"/>
       <use xlink:href="#DejaVuSans-6b" x="222.65625"/>
      </g>
      <!-- 75 -->
      <g transform="translate(422.947221 234.25225)scale(0.1 -0.1)">
       <use xlink:href="#DejaVuSans-37"/>
       <use xlink:href="#DejaVuSans-35" x="63.623047"/>
      </g>
     </g>
    </g>
    <g id="xtick_7">
     <g id="line2d_7">
      <g>
       <use xlink:href="#m769a4af737" x="556.664935" y="208.456" style="stroke: #000000; stroke-width: 0.8"/>
      </g>
     </g>
     <g id="text_7">
      <!-- 79.5k -->
      <g transform="translate(542.63681 223.054438)scale(0.1 -0.1)">
       <use xlink:href="#DejaVuSans-37"/>
       <use xlink:href="#DejaVuSans-39" x="63.623047"/>
       <use xlink:href="#DejaVuSans-2e" x="127.246094"/>
       <use xlink:href="#DejaVuSans-35" x="159.033203"/>
       <use xlink:href="#DejaVuSans-6b" x="222.65625"/>
      </g>
      <!-- 100 -->
      <g transform="translate(547.121185 234.25225)scale(0.1 -0.1)">
       <use xlink:href="#DejaVuSans-31"/>
       <use xlink:href="#DejaVuSans-30" x="63.623047"/>
       <use xlink:href="#DejaVuSans-30" x="127.246094"/>
      </g>
     </g>
    </g>
    <g id="xtick_8">
     <g id="line2d_8">
      <g>
       <use xlink:href="#m769a4af737" x="689.114358" y="208.456" style="stroke: #000000; stroke-width: 0.8"/>
      </g>
     </g>
     <g id="text_8">
      <!-- 100.2k -->
      <g transform="translate(671.904983 223.054438)scale(0.1 -0.1)">
       <use xlink:href="#DejaVuSans-31"/>
       <use xlink:href="#DejaVuSans-30" x="63.623047"/>
       <use xlink:href="#DejaVuSans-30" x="127.246094"/>
       <use xlink:href="#DejaVuSans-2e" x="190.869141"/>
       <use xlink:href="#DejaVuSans-32" x="222.65625"/>
       <use xlink:href="#DejaVuSans-6b" x="286.279297"/>
      </g>
      <!-- 126 -->
      <g transform="translate(679.570608 234.25225)scale(0.1 -0.1)">
       <use xlink:href="#DejaVuSans-31"/>
       <use xlink:href="#DejaVuSans-32" x="63.623047"/>
       <use xlink:href="#DejaVuSans-36" x="127.246094"/>
      </g>
     </g>
    </g>
    <g id="xtick_9">
     <g id="line2d_9">
      <g>
       <use xlink:href="#m769a4af737" x="303.492381" y="208.456" style="stroke: #000000; stroke-width: 0.8"/>
      </g>
     </g>
     <g id="text_9">
      <!-- 40k -->
      <g transform="translate(294.234568 223.054438)scale(0.1 -0.1)">
       <use xlink:href="#DejaVuSans-34"/>
       <use xlink:href="#DejaVuSans-30" x="63.623047"/>
       <use xlink:href="#DejaVuSans-6b" x="127.246094"/>
      </g>
     </g>
    </g>
    <g id="text_10">
     <!-- # Parameters / # Hidden Nodes -->
     <g transform="translate(285.630703 248.690219)scale(0.11 -0.11)">
      <defs>
       <path id="DejaVuSans-Bold-23" d="M 2847 4594 
L 2547 3391 
L 3372 3391 
L 3675 4594 
L 4366 4594 
L 4063 3391 
L 4928 3391 
L 4928 2725 
L 3897 2725 
L 3681 1869 
L 4569 1869 
L 4569 1197 
L 3519 1197 
L 3219 0 
L 2528 0 
L 2828 1197 
L 2003 1197 
L 1703 0 
L 1006 0 
L 1306 1197 
L 434 1197 
L 434 1869 
L 1459 1869 
L 1678 2725 
L 794 2725 
L 794 3391 
L 1850 3391 
L 2150 4594 
L 2847 4594 
z
M 3200 2725 
L 2375 2725 
L 2156 1869 
L 2981 1869 
L 3200 2725 
z
" transform="scale(0.015625)"/>
       <path id="DejaVuSans-Bold-20" transform="scale(0.015625)"/>
       <path id="DejaVuSans-Bold-50" d="M 588 4666 
L 2584 4666 
Q 3475 4666 3951 4270 
Q 4428 3875 4428 3144 
Q 4428 2409 3951 2014 
Q 3475 1619 2584 1619 
L 1791 1619 
L 1791 0 
L 588 0 
L 588 4666 
z
M 1791 3794 
L 1791 2491 
L 2456 2491 
Q 2806 2491 2997 2661 
Q 3188 2831 3188 3144 
Q 3188 3456 2997 3625 
Q 2806 3794 2456 3794 
L 1791 3794 
z
" transform="scale(0.015625)"/>
       <path id="DejaVuSans-Bold-61" d="M 2106 1575 
Q 1756 1575 1579 1456 
Q 1403 1338 1403 1106 
Q 1403 894 1545 773 
Q 1688 653 1941 653 
Q 2256 653 2472 879 
Q 2688 1106 2688 1447 
L 2688 1575 
L 2106 1575 
z
M 3816 1997 
L 3816 0 
L 2688 0 
L 2688 519 
Q 2463 200 2181 54 
Q 1900 -91 1497 -91 
Q 953 -91 614 226 
Q 275 544 275 1050 
Q 275 1666 698 1953 
Q 1122 2241 2028 2241 
L 2688 2241 
L 2688 2328 
Q 2688 2594 2478 2717 
Q 2269 2841 1825 2841 
Q 1466 2841 1156 2769 
Q 847 2697 581 2553 
L 581 3406 
Q 941 3494 1303 3539 
Q 1666 3584 2028 3584 
Q 2975 3584 3395 3211 
Q 3816 2838 3816 1997 
z
" transform="scale(0.015625)"/>
       <path id="DejaVuSans-Bold-72" d="M 3138 2547 
Q 2991 2616 2845 2648 
Q 2700 2681 2553 2681 
Q 2122 2681 1889 2404 
Q 1656 2128 1656 1613 
L 1656 0 
L 538 0 
L 538 3500 
L 1656 3500 
L 1656 2925 
Q 1872 3269 2151 3426 
Q 2431 3584 2822 3584 
Q 2878 3584 2943 3579 
Q 3009 3575 3134 3559 
L 3138 2547 
z
" transform="scale(0.015625)"/>
       <path id="DejaVuSans-Bold-6d" d="M 3781 2919 
Q 3994 3244 4286 3414 
Q 4578 3584 4928 3584 
Q 5531 3584 5847 3212 
Q 6163 2841 6163 2131 
L 6163 0 
L 5038 0 
L 5038 1825 
Q 5041 1866 5042 1909 
Q 5044 1953 5044 2034 
Q 5044 2406 4934 2573 
Q 4825 2741 4581 2741 
Q 4263 2741 4089 2478 
Q 3916 2216 3909 1719 
L 3909 0 
L 2784 0 
L 2784 1825 
Q 2784 2406 2684 2573 
Q 2584 2741 2328 2741 
Q 2006 2741 1831 2477 
Q 1656 2213 1656 1722 
L 1656 0 
L 531 0 
L 531 3500 
L 1656 3500 
L 1656 2988 
Q 1863 3284 2130 3434 
Q 2397 3584 2719 3584 
Q 3081 3584 3359 3409 
Q 3638 3234 3781 2919 
z
" transform="scale(0.015625)"/>
       <path id="DejaVuSans-Bold-65" d="M 4031 1759 
L 4031 1441 
L 1416 1441 
Q 1456 1047 1700 850 
Q 1944 653 2381 653 
Q 2734 653 3104 758 
Q 3475 863 3866 1075 
L 3866 213 
Q 3469 63 3072 -14 
Q 2675 -91 2278 -91 
Q 1328 -91 801 392 
Q 275 875 275 1747 
Q 275 2603 792 3093 
Q 1309 3584 2216 3584 
Q 3041 3584 3536 3087 
Q 4031 2591 4031 1759 
z
M 2881 2131 
Q 2881 2450 2695 2645 
Q 2509 2841 2209 2841 
Q 1884 2841 1681 2658 
Q 1478 2475 1428 2131 
L 2881 2131 
z
" transform="scale(0.015625)"/>
       <path id="DejaVuSans-Bold-74" d="M 1759 4494 
L 1759 3500 
L 2913 3500 
L 2913 2700 
L 1759 2700 
L 1759 1216 
Q 1759 972 1856 886 
Q 1953 800 2241 800 
L 2816 800 
L 2816 0 
L 1856 0 
Q 1194 0 917 276 
Q 641 553 641 1216 
L 641 2700 
L 84 2700 
L 84 3500 
L 641 3500 
L 641 4494 
L 1759 4494 
z
" transform="scale(0.015625)"/>
       <path id="DejaVuSans-Bold-73" d="M 3272 3391 
L 3272 2541 
Q 2913 2691 2578 2766 
Q 2244 2841 1947 2841 
Q 1628 2841 1473 2761 
Q 1319 2681 1319 2516 
Q 1319 2381 1436 2309 
Q 1553 2238 1856 2203 
L 2053 2175 
Q 2913 2066 3209 1816 
Q 3506 1566 3506 1031 
Q 3506 472 3093 190 
Q 2681 -91 1863 -91 
Q 1516 -91 1145 -36 
Q 775 19 384 128 
L 384 978 
Q 719 816 1070 734 
Q 1422 653 1784 653 
Q 2113 653 2278 743 
Q 2444 834 2444 1013 
Q 2444 1163 2330 1236 
Q 2216 1309 1875 1350 
L 1678 1375 
Q 931 1469 631 1722 
Q 331 1975 331 2491 
Q 331 3047 712 3315 
Q 1094 3584 1881 3584 
Q 2191 3584 2531 3537 
Q 2872 3491 3272 3391 
z
" transform="scale(0.015625)"/>
       <path id="DejaVuSans-Bold-2f" d="M 1644 4666 
L 2338 4666 
L 691 -594 
L 0 -594 
L 1644 4666 
z
" transform="scale(0.015625)"/>
       <path id="DejaVuSans-Bold-48" d="M 588 4666 
L 1791 4666 
L 1791 2888 
L 3566 2888 
L 3566 4666 
L 4769 4666 
L 4769 0 
L 3566 0 
L 3566 1978 
L 1791 1978 
L 1791 0 
L 588 0 
L 588 4666 
z
" transform="scale(0.015625)"/>
       <path id="DejaVuSans-Bold-69" d="M 538 3500 
L 1656 3500 
L 1656 0 
L 538 0 
L 538 3500 
z
M 538 4863 
L 1656 4863 
L 1656 3950 
L 538 3950 
L 538 4863 
z
" transform="scale(0.015625)"/>
       <path id="DejaVuSans-Bold-64" d="M 2919 2988 
L 2919 4863 
L 4044 4863 
L 4044 0 
L 2919 0 
L 2919 506 
Q 2688 197 2409 53 
Q 2131 -91 1766 -91 
Q 1119 -91 703 423 
Q 288 938 288 1747 
Q 288 2556 703 3070 
Q 1119 3584 1766 3584 
Q 2128 3584 2408 3439 
Q 2688 3294 2919 2988 
z
M 2181 722 
Q 2541 722 2730 984 
Q 2919 1247 2919 1747 
Q 2919 2247 2730 2509 
Q 2541 2772 2181 2772 
Q 1825 2772 1636 2509 
Q 1447 2247 1447 1747 
Q 1447 1247 1636 984 
Q 1825 722 2181 722 
z
" transform="scale(0.015625)"/>
       <path id="DejaVuSans-Bold-6e" d="M 4056 2131 
L 4056 0 
L 2931 0 
L 2931 347 
L 2931 1631 
Q 2931 2084 2911 2256 
Q 2891 2428 2841 2509 
Q 2775 2619 2662 2680 
Q 2550 2741 2406 2741 
Q 2056 2741 1856 2470 
Q 1656 2200 1656 1722 
L 1656 0 
L 538 0 
L 538 3500 
L 1656 3500 
L 1656 2988 
Q 1909 3294 2193 3439 
Q 2478 3584 2822 3584 
Q 3428 3584 3742 3212 
Q 4056 2841 4056 2131 
z
" transform="scale(0.015625)"/>
       <path id="DejaVuSans-Bold-4e" d="M 588 4666 
L 1931 4666 
L 3628 1466 
L 3628 4666 
L 4769 4666 
L 4769 0 
L 3425 0 
L 1728 3200 
L 1728 0 
L 588 0 
L 588 4666 
z
" transform="scale(0.015625)"/>
       <path id="DejaVuSans-Bold-6f" d="M 2203 2784 
Q 1831 2784 1636 2517 
Q 1441 2250 1441 1747 
Q 1441 1244 1636 976 
Q 1831 709 2203 709 
Q 2569 709 2762 976 
Q 2956 1244 2956 1747 
Q 2956 2250 2762 2517 
Q 2569 2784 2203 2784 
z
M 2203 3584 
Q 3106 3584 3614 3096 
Q 4122 2609 4122 1747 
Q 4122 884 3614 396 
Q 3106 -91 2203 -91 
Q 1297 -91 786 396 
Q 275 884 275 1747 
Q 275 2609 786 3096 
Q 1297 3584 2203 3584 
z
" transform="scale(0.015625)"/>
      </defs>
      <use xlink:href="#DejaVuSans-Bold-23"/>
      <use xlink:href="#DejaVuSans-Bold-20" x="83.789062"/>
      <use xlink:href="#DejaVuSans-Bold-50" x="118.603516"/>
      <use xlink:href="#DejaVuSans-Bold-61" x="189.269531"/>
      <use xlink:href="#DejaVuSans-Bold-72" x="256.75"/>
      <use xlink:href="#DejaVuSans-Bold-61" x="306.066406"/>
      <use xlink:href="#DejaVuSans-Bold-6d" x="373.546875"/>
      <use xlink:href="#DejaVuSans-Bold-65" x="477.746094"/>
      <use xlink:href="#DejaVuSans-Bold-74" x="545.568359"/>
      <use xlink:href="#DejaVuSans-Bold-65" x="593.371094"/>
      <use xlink:href="#DejaVuSans-Bold-72" x="661.193359"/>
      <use xlink:href="#DejaVuSans-Bold-73" x="710.509766"/>
      <use xlink:href="#DejaVuSans-Bold-20" x="770.03125"/>
      <use xlink:href="#DejaVuSans-Bold-2f" x="804.845703"/>
      <use xlink:href="#DejaVuSans-Bold-20" x="841.369141"/>
      <use xlink:href="#DejaVuSans-Bold-23" x="876.183594"/>
      <use xlink:href="#DejaVuSans-Bold-20" x="959.972656"/>
      <use xlink:href="#DejaVuSans-Bold-48" x="994.787109"/>
      <use xlink:href="#DejaVuSans-Bold-69" x="1078.478516"/>
      <use xlink:href="#DejaVuSans-Bold-64" x="1112.755859"/>
      <use xlink:href="#DejaVuSans-Bold-64" x="1184.337891"/>
      <use xlink:href="#DejaVuSans-Bold-65" x="1255.919922"/>
      <use xlink:href="#DejaVuSans-Bold-6e" x="1323.742188"/>
      <use xlink:href="#DejaVuSans-Bold-20" x="1394.933594"/>
      <use xlink:href="#DejaVuSans-Bold-4e" x="1429.748047"/>
      <use xlink:href="#DejaVuSans-Bold-6f" x="1513.439453"/>
      <use xlink:href="#DejaVuSans-Bold-64" x="1582.140625"/>
      <use xlink:href="#DejaVuSans-Bold-65" x="1653.722656"/>
      <use xlink:href="#DejaVuSans-Bold-73" x="1721.544922"/>
     </g>
    </g>
   </g>
   <g id="matplotlib.axis_2">
    <g id="ytick_1">
     <g id="line2d_10">
      <defs>
       <path id="m17c1afeb43" d="M 0 0 
L -3.5 0 
" style="stroke: #000000; stroke-width: 0.8"/>
      </defs>
      <g>
       <use xlink:href="#m17c1afeb43" x="47.18" y="208.456" style="stroke: #000000; stroke-width: 0.8"/>
      </g>
     </g>
     <g id="text_11">
      <!--    0.0 -->
      <g transform="translate(14.7425 212.255219)scale(0.1 -0.1)">
       <defs>
        <path id="DejaVuSans-20" transform="scale(0.015625)"/>
       </defs>
       <use xlink:href="#DejaVuSans-20"/>
       <use xlink:href="#DejaVuSans-20" x="31.787109"/>
       <use xlink:href="#DejaVuSans-20" x="63.574219"/>
       <use xlink:href="#DejaVuSans-30" x="95.361328"/>
       <use xlink:href="#DejaVuSans-2e" x="158.984375"/>
       <use xlink:href="#DejaVuSans-30" x="190.771484"/>
      </g>
     </g>
    </g>
    <g id="ytick_2">
     <g id="line2d_11">
      <g>
       <use xlink:href="#m17c1afeb43" x="47.18" y="167.612724" style="stroke: #000000; stroke-width: 0.8"/>
      </g>
     </g>
     <g id="text_12">
      <!--    0.2 -->
      <g transform="translate(14.7425 171.411943)scale(0.1 -0.1)">
       <use xlink:href="#DejaVuSans-20"/>
       <use xlink:href="#DejaVuSans-20" x="31.787109"/>
       <use xlink:href="#DejaVuSans-20" x="63.574219"/>
       <use xlink:href="#DejaVuSans-30" x="95.361328"/>
       <use xlink:href="#DejaVuSans-2e" x="158.984375"/>
       <use xlink:href="#DejaVuSans-32" x="190.771484"/>
      </g>
     </g>
    </g>
    <g id="ytick_3">
     <g id="line2d_12">
      <g>
       <use xlink:href="#m17c1afeb43" x="47.18" y="126.769449" style="stroke: #000000; stroke-width: 0.8"/>
      </g>
     </g>
     <g id="text_13">
      <!--    0.4 -->
      <g transform="translate(14.7425 130.568667)scale(0.1 -0.1)">
       <use xlink:href="#DejaVuSans-20"/>
       <use xlink:href="#DejaVuSans-20" x="31.787109"/>
       <use xlink:href="#DejaVuSans-20" x="63.574219"/>
       <use xlink:href="#DejaVuSans-30" x="95.361328"/>
       <use xlink:href="#DejaVuSans-2e" x="158.984375"/>
       <use xlink:href="#DejaVuSans-34" x="190.771484"/>
      </g>
     </g>
    </g>
    <g id="ytick_4">
     <g id="line2d_13">
      <g>
       <use xlink:href="#m17c1afeb43" x="47.18" y="85.926173" style="stroke: #000000; stroke-width: 0.8"/>
      </g>
     </g>
     <g id="text_14">
      <!--    0.6 -->
      <g transform="translate(14.7425 89.725392)scale(0.1 -0.1)">
       <use xlink:href="#DejaVuSans-20"/>
       <use xlink:href="#DejaVuSans-20" x="31.787109"/>
       <use xlink:href="#DejaVuSans-20" x="63.574219"/>
       <use xlink:href="#DejaVuSans-30" x="95.361328"/>
       <use xlink:href="#DejaVuSans-2e" x="158.984375"/>
       <use xlink:href="#DejaVuSans-36" x="190.771484"/>
      </g>
     </g>
    </g>
    <g id="ytick_5">
     <g id="line2d_14">
      <g>
       <use xlink:href="#m17c1afeb43" x="47.18" y="45.082897" style="stroke: #000000; stroke-width: 0.8"/>
      </g>
     </g>
     <g id="text_15">
      <!--    0.8 -->
      <g transform="translate(14.7425 48.882116)scale(0.1 -0.1)">
       <use xlink:href="#DejaVuSans-20"/>
       <use xlink:href="#DejaVuSans-20" x="31.787109"/>
       <use xlink:href="#DejaVuSans-20" x="63.574219"/>
       <use xlink:href="#DejaVuSans-30" x="95.361328"/>
       <use xlink:href="#DejaVuSans-2e" x="158.984375"/>
       <use xlink:href="#DejaVuSans-38" x="190.771484"/>
      </g>
     </g>
    </g>
    <g id="ytick_6">
     <g id="line2d_15">
      <g>
       <use xlink:href="#m17c1afeb43" x="47.18" y="4.239622" style="stroke: #000000; stroke-width: 0.8"/>
      </g>
     </g>
     <g id="text_16">
      <!--    1.0 -->
      <g transform="translate(14.7425 8.03884)scale(0.1 -0.1)">
       <use xlink:href="#DejaVuSans-20"/>
       <use xlink:href="#DejaVuSans-20" x="31.787109"/>
       <use xlink:href="#DejaVuSans-20" x="63.574219"/>
       <use xlink:href="#DejaVuSans-31" x="95.361328"/>
       <use xlink:href="#DejaVuSans-2e" x="158.984375"/>
       <use xlink:href="#DejaVuSans-30" x="190.771484"/>
      </g>
     </g>
    </g>
    <g id="text_17">
     <!-- Precision -->
     <g transform="translate(8.454844 132.77846)rotate(-90)scale(0.11 -0.11)">
      <defs>
       <path id="DejaVuSans-Bold-63" d="M 3366 3391 
L 3366 2478 
Q 3138 2634 2908 2709 
Q 2678 2784 2431 2784 
Q 1963 2784 1702 2511 
Q 1441 2238 1441 1747 
Q 1441 1256 1702 982 
Q 1963 709 2431 709 
Q 2694 709 2930 787 
Q 3166 866 3366 1019 
L 3366 103 
Q 3103 6 2833 -42 
Q 2563 -91 2291 -91 
Q 1344 -91 809 395 
Q 275 881 275 1747 
Q 275 2613 809 3098 
Q 1344 3584 2291 3584 
Q 2566 3584 2833 3536 
Q 3100 3488 3366 3391 
z
" transform="scale(0.015625)"/>
      </defs>
      <use xlink:href="#DejaVuSans-Bold-50"/>
      <use xlink:href="#DejaVuSans-Bold-72" x="73.291016"/>
      <use xlink:href="#DejaVuSans-Bold-65" x="122.607422"/>
      <use xlink:href="#DejaVuSans-Bold-63" x="190.429688"/>
      <use xlink:href="#DejaVuSans-Bold-69" x="249.707031"/>
      <use xlink:href="#DejaVuSans-Bold-73" x="283.984375"/>
      <use xlink:href="#DejaVuSans-Bold-69" x="343.505859"/>
      <use xlink:href="#DejaVuSans-Bold-6f" x="377.783203"/>
      <use xlink:href="#DejaVuSans-Bold-6e" x="446.484375"/>
     </g>
    </g>
   </g>
   <g id="line2d_16">
    <path d="M 303.492381 208.456 
L 303.492381 0.155294 
" clip-path="url(#pe5fc7d661a)" style="fill: none; stroke-dasharray: 9.25,4; stroke-dashoffset: 0; stroke: #000000; stroke-width: 2.5"/>
   </g>
   <g id="line2d_17">
    <path d="M 47.18 4.239622 
L 720 4.239622 
" clip-path="url(#pe5fc7d661a)" style="fill: none; stroke-dasharray: 3.7,1.6; stroke-dashoffset: 0; stroke: #808080"/>
   </g>
   <g id="line2d_18">
    <path d="M 57.432495 206.406689 
L 67.620912 206.409752 
L 77.80933 199.284312 
L 87.997747 202.73542 
L 98.186164 195.215647 
L 108.374581 188.988573 
L 118.562998 184.82346 
L 128.751415 176.861592 
L 138.939832 184.847213 
L 149.12825 181.039511 
L 159.316667 180.254102 
L 169.505084 150.74403 
L 179.693501 167.609144 
L 189.881918 110.328838 
L 200.070335 108.940828 
L 210.258752 103.979716 
L 220.44717 92.068683 
L 230.635587 79.682274 
L 240.824004 121.603834 
L 251.012421 87.882192 
L 256.10663 83.541056 
L 261.200838 103.497142 
L 266.295047 53.691666 
L 271.389255 63.361492 
L 276.483464 73.851134 
L 281.577672 80.22957 
L 286.671881 53.298918 
L 291.76609 55.660851 
L 296.860298 67.594867 
L 301.954507 58.404103 
L 307.048715 54.730995 
L 312.142924 45.746449 
L 317.237132 56.049764 
L 322.331341 44.28601 
L 327.42555 38.907473 
L 332.519758 37.338578 
L 337.613967 32.25438 
L 342.708175 37.189026 
L 347.802384 39.424814 
L 352.896592 37.932138 
L 378.367635 27.679899 
L 403.838678 23.202242 
L 429.309721 29.487882 
L 454.780764 22.361018 
L 480.251807 22.130234 
L 505.72285 20.165881 
L 531.193892 21.533808 
L 556.664935 20.198235 
L 582.135978 19.241575 
L 607.607021 18.973323 
L 633.078064 17.984643 
L 658.549107 18.319166 
L 684.02015 18.113926 
L 709.491192 17.57801 
L 721 17.237039 
" clip-path="url(#pe5fc7d661a)" style="fill: none; stroke: #ff7f0e; stroke-linecap: square"/>
    <defs>
     <path id="mbd4fdd3067" d="M 0 2.12132 
L 2.12132 0 
L 0 -2.12132 
L -2.12132 0 
z
" style="stroke: #ff7f0e; stroke-linejoin: miter"/>
    </defs>
    <g clip-path="url(#pe5fc7d661a)">
     <use xlink:href="#mbd4fdd3067" x="57.432495" y="206.406689" style="fill: #ff7f0e; stroke: #ff7f0e; stroke-linejoin: miter"/>
     <use xlink:href="#mbd4fdd3067" x="67.620912" y="206.409752" style="fill: #ff7f0e; stroke: #ff7f0e; stroke-linejoin: miter"/>
     <use xlink:href="#mbd4fdd3067" x="77.80933" y="199.284312" style="fill: #ff7f0e; stroke: #ff7f0e; stroke-linejoin: miter"/>
     <use xlink:href="#mbd4fdd3067" x="87.997747" y="202.73542" style="fill: #ff7f0e; stroke: #ff7f0e; stroke-linejoin: miter"/>
     <use xlink:href="#mbd4fdd3067" x="98.186164" y="195.215647" style="fill: #ff7f0e; stroke: #ff7f0e; stroke-linejoin: miter"/>
     <use xlink:href="#mbd4fdd3067" x="108.374581" y="188.988573" style="fill: #ff7f0e; stroke: #ff7f0e; stroke-linejoin: miter"/>
     <use xlink:href="#mbd4fdd3067" x="118.562998" y="184.82346" style="fill: #ff7f0e; stroke: #ff7f0e; stroke-linejoin: miter"/>
     <use xlink:href="#mbd4fdd3067" x="128.751415" y="176.861592" style="fill: #ff7f0e; stroke: #ff7f0e; stroke-linejoin: miter"/>
     <use xlink:href="#mbd4fdd3067" x="138.939832" y="184.847213" style="fill: #ff7f0e; stroke: #ff7f0e; stroke-linejoin: miter"/>
     <use xlink:href="#mbd4fdd3067" x="149.12825" y="181.039511" style="fill: #ff7f0e; stroke: #ff7f0e; stroke-linejoin: miter"/>
     <use xlink:href="#mbd4fdd3067" x="159.316667" y="180.254102" style="fill: #ff7f0e; stroke: #ff7f0e; stroke-linejoin: miter"/>
     <use xlink:href="#mbd4fdd3067" x="169.505084" y="150.74403" style="fill: #ff7f0e; stroke: #ff7f0e; stroke-linejoin: miter"/>
     <use xlink:href="#mbd4fdd3067" x="179.693501" y="167.609144" style="fill: #ff7f0e; stroke: #ff7f0e; stroke-linejoin: miter"/>
     <use xlink:href="#mbd4fdd3067" x="189.881918" y="110.328838" style="fill: #ff7f0e; stroke: #ff7f0e; stroke-linejoin: miter"/>
     <use xlink:href="#mbd4fdd3067" x="200.070335" y="108.940828" style="fill: #ff7f0e; stroke: #ff7f0e; stroke-linejoin: miter"/>
     <use xlink:href="#mbd4fdd3067" x="210.258752" y="103.979716" style="fill: #ff7f0e; stroke: #ff7f0e; stroke-linejoin: miter"/>
     <use xlink:href="#mbd4fdd3067" x="220.44717" y="92.068683" style="fill: #ff7f0e; stroke: #ff7f0e; stroke-linejoin: miter"/>
     <use xlink:href="#mbd4fdd3067" x="230.635587" y="79.682274" style="fill: #ff7f0e; stroke: #ff7f0e; stroke-linejoin: miter"/>
     <use xlink:href="#mbd4fdd3067" x="240.824004" y="121.603834" style="fill: #ff7f0e; stroke: #ff7f0e; stroke-linejoin: miter"/>
     <use xlink:href="#mbd4fdd3067" x="251.012421" y="87.882192" style="fill: #ff7f0e; stroke: #ff7f0e; stroke-linejoin: miter"/>
     <use xlink:href="#mbd4fdd3067" x="256.10663" y="83.541056" style="fill: #ff7f0e; stroke: #ff7f0e; stroke-linejoin: miter"/>
     <use xlink:href="#mbd4fdd3067" x="261.200838" y="103.497142" style="fill: #ff7f0e; stroke: #ff7f0e; stroke-linejoin: miter"/>
     <use xlink:href="#mbd4fdd3067" x="266.295047" y="53.691666" style="fill: #ff7f0e; stroke: #ff7f0e; stroke-linejoin: miter"/>
     <use xlink:href="#mbd4fdd3067" x="271.389255" y="63.361492" style="fill: #ff7f0e; stroke: #ff7f0e; stroke-linejoin: miter"/>
     <use xlink:href="#mbd4fdd3067" x="276.483464" y="73.851134" style="fill: #ff7f0e; stroke: #ff7f0e; stroke-linejoin: miter"/>
     <use xlink:href="#mbd4fdd3067" x="281.577672" y="80.22957" style="fill: #ff7f0e; stroke: #ff7f0e; stroke-linejoin: miter"/>
     <use xlink:href="#mbd4fdd3067" x="286.671881" y="53.298918" style="fill: #ff7f0e; stroke: #ff7f0e; stroke-linejoin: miter"/>
     <use xlink:href="#mbd4fdd3067" x="291.76609" y="55.660851" style="fill: #ff7f0e; stroke: #ff7f0e; stroke-linejoin: miter"/>
     <use xlink:href="#mbd4fdd3067" x="296.860298" y="67.594867" style="fill: #ff7f0e; stroke: #ff7f0e; stroke-linejoin: miter"/>
     <use xlink:href="#mbd4fdd3067" x="301.954507" y="58.404103" style="fill: #ff7f0e; stroke: #ff7f0e; stroke-linejoin: miter"/>
     <use xlink:href="#mbd4fdd3067" x="307.048715" y="54.730995" style="fill: #ff7f0e; stroke: #ff7f0e; stroke-linejoin: miter"/>
     <use xlink:href="#mbd4fdd3067" x="312.142924" y="45.746449" style="fill: #ff7f0e; stroke: #ff7f0e; stroke-linejoin: miter"/>
     <use xlink:href="#mbd4fdd3067" x="317.237132" y="56.049764" style="fill: #ff7f0e; stroke: #ff7f0e; stroke-linejoin: miter"/>
     <use xlink:href="#mbd4fdd3067" x="322.331341" y="44.28601" style="fill: #ff7f0e; stroke: #ff7f0e; stroke-linejoin: miter"/>
     <use xlink:href="#mbd4fdd3067" x="327.42555" y="38.907473" style="fill: #ff7f0e; stroke: #ff7f0e; stroke-linejoin: miter"/>
     <use xlink:href="#mbd4fdd3067" x="332.519758" y="37.338578" style="fill: #ff7f0e; stroke: #ff7f0e; stroke-linejoin: miter"/>
     <use xlink:href="#mbd4fdd3067" x="337.613967" y="32.25438" style="fill: #ff7f0e; stroke: #ff7f0e; stroke-linejoin: miter"/>
     <use xlink:href="#mbd4fdd3067" x="342.708175" y="37.189026" style="fill: #ff7f0e; stroke: #ff7f0e; stroke-linejoin: miter"/>
     <use xlink:href="#mbd4fdd3067" x="347.802384" y="39.424814" style="fill: #ff7f0e; stroke: #ff7f0e; stroke-linejoin: miter"/>
     <use xlink:href="#mbd4fdd3067" x="352.896592" y="37.932138" style="fill: #ff7f0e; stroke: #ff7f0e; stroke-linejoin: miter"/>
     <use xlink:href="#mbd4fdd3067" x="378.367635" y="27.679899" style="fill: #ff7f0e; stroke: #ff7f0e; stroke-linejoin: miter"/>
     <use xlink:href="#mbd4fdd3067" x="403.838678" y="23.202242" style="fill: #ff7f0e; stroke: #ff7f0e; stroke-linejoin: miter"/>
     <use xlink:href="#mbd4fdd3067" x="429.309721" y="29.487882" style="fill: #ff7f0e; stroke: #ff7f0e; stroke-linejoin: miter"/>
     <use xlink:href="#mbd4fdd3067" x="454.780764" y="22.361018" style="fill: #ff7f0e; stroke: #ff7f0e; stroke-linejoin: miter"/>
     <use xlink:href="#mbd4fdd3067" x="480.251807" y="22.130234" style="fill: #ff7f0e; stroke: #ff7f0e; stroke-linejoin: miter"/>
     <use xlink:href="#mbd4fdd3067" x="505.72285" y="20.165881" style="fill: #ff7f0e; stroke: #ff7f0e; stroke-linejoin: miter"/>
     <use xlink:href="#mbd4fdd3067" x="531.193892" y="21.533808" style="fill: #ff7f0e; stroke: #ff7f0e; stroke-linejoin: miter"/>
     <use xlink:href="#mbd4fdd3067" x="556.664935" y="20.198235" style="fill: #ff7f0e; stroke: #ff7f0e; stroke-linejoin: miter"/>
     <use xlink:href="#mbd4fdd3067" x="582.135978" y="19.241575" style="fill: #ff7f0e; stroke: #ff7f0e; stroke-linejoin: miter"/>
     <use xlink:href="#mbd4fdd3067" x="607.607021" y="18.973323" style="fill: #ff7f0e; stroke: #ff7f0e; stroke-linejoin: miter"/>
     <use xlink:href="#mbd4fdd3067" x="633.078064" y="17.984643" style="fill: #ff7f0e; stroke: #ff7f0e; stroke-linejoin: miter"/>
     <use xlink:href="#mbd4fdd3067" x="658.549107" y="18.319166" style="fill: #ff7f0e; stroke: #ff7f0e; stroke-linejoin: miter"/>
     <use xlink:href="#mbd4fdd3067" x="684.02015" y="18.113926" style="fill: #ff7f0e; stroke: #ff7f0e; stroke-linejoin: miter"/>
     <use xlink:href="#mbd4fdd3067" x="709.491192" y="17.57801" style="fill: #ff7f0e; stroke: #ff7f0e; stroke-linejoin: miter"/>
     <use xlink:href="#mbd4fdd3067" x="734.962235" y="16.82338" style="fill: #ff7f0e; stroke: #ff7f0e; stroke-linejoin: miter"/>
     <use xlink:href="#mbd4fdd3067" x="760.433278" y="17.774128" style="fill: #ff7f0e; stroke: #ff7f0e; stroke-linejoin: miter"/>
     <use xlink:href="#mbd4fdd3067" x="785.904321" y="17.19236" style="fill: #ff7f0e; stroke: #ff7f0e; stroke-linejoin: miter"/>
     <use xlink:href="#mbd4fdd3067" x="811.375364" y="15.89755" style="fill: #ff7f0e; stroke: #ff7f0e; stroke-linejoin: miter"/>
    </g>
   </g>
   <g id="line2d_19">
    <path d="M 57.432495 206.348079 
L 67.620912 206.386471 
L 77.80933 200.875046 
L 87.997747 203.243736 
L 98.186164 199.841413 
L 108.374581 190.524081 
L 118.562998 186.899505 
L 128.751415 181.460891 
L 138.939832 187.44155 
L 149.12825 183.892028 
L 159.316667 183.268216 
L 169.505084 158.041024 
L 179.693501 171.868511 
L 189.881918 125.020777 
L 200.070335 124.686866 
L 210.258752 121.087924 
L 220.44717 108.070798 
L 230.635587 103.403845 
L 240.824004 132.530156 
L 251.012421 100.906713 
L 256.10663 101.401955 
L 261.200838 114.305551 
L 266.295047 80.504276 
L 271.389255 85.279162 
L 276.483464 93.926237 
L 281.577672 99.998541 
L 286.671881 77.486672 
L 291.76609 81.001102 
L 296.860298 87.954432 
L 301.954507 81.188648 
L 307.048715 78.979392 
L 312.142924 71.220063 
L 317.237132 79.664854 
L 322.331341 68.474885 
L 327.42555 66.102208 
L 332.519758 62.58309 
L 337.613967 59.375606 
L 342.708175 61.157973 
L 347.802384 66.211022 
L 352.896592 67.562062 
L 378.367635 59.130177 
L 403.838678 52.870811 
L 429.309721 58.378613 
L 454.780764 53.207828 
L 480.251807 53.259816 
L 505.72285 52.045882 
L 531.193892 48.907149 
L 556.664935 51.433439 
L 582.135978 48.150792 
L 607.607021 49.415407 
L 633.078064 45.586578 
L 658.549107 46.448489 
L 684.02015 47.652419 
L 709.491192 45.538296 
L 721 45.822724 
" clip-path="url(#pe5fc7d661a)" style="fill: none; stroke: #1f77b4; stroke-linecap: square"/>
    <defs>
     <path id="m733ccd3f48" d="M 0 2.12132 
L 2.12132 0 
L 0 -2.12132 
L -2.12132 0 
z
" style="stroke: #1f77b4; stroke-linejoin: miter"/>
    </defs>
    <g clip-path="url(#pe5fc7d661a)">
     <use xlink:href="#m733ccd3f48" x="57.432495" y="206.348079" style="fill: #1f77b4; stroke: #1f77b4; stroke-linejoin: miter"/>
     <use xlink:href="#m733ccd3f48" x="67.620912" y="206.386471" style="fill: #1f77b4; stroke: #1f77b4; stroke-linejoin: miter"/>
     <use xlink:href="#m733ccd3f48" x="77.80933" y="200.875046" style="fill: #1f77b4; stroke: #1f77b4; stroke-linejoin: miter"/>
     <use xlink:href="#m733ccd3f48" x="87.997747" y="203.243736" style="fill: #1f77b4; stroke: #1f77b4; stroke-linejoin: miter"/>
     <use xlink:href="#m733ccd3f48" x="98.186164" y="199.841413" style="fill: #1f77b4; stroke: #1f77b4; stroke-linejoin: miter"/>
     <use xlink:href="#m733ccd3f48" x="108.374581" y="190.524081" style="fill: #1f77b4; stroke: #1f77b4; stroke-linejoin: miter"/>
     <use xlink:href="#m733ccd3f48" x="118.562998" y="186.899505" style="fill: #1f77b4; stroke: #1f77b4; stroke-linejoin: miter"/>
     <use xlink:href="#m733ccd3f48" x="128.751415" y="181.460891" style="fill: #1f77b4; stroke: #1f77b4; stroke-linejoin: miter"/>
     <use xlink:href="#m733ccd3f48" x="138.939832" y="187.44155" style="fill: #1f77b4; stroke: #1f77b4; stroke-linejoin: miter"/>
     <use xlink:href="#m733ccd3f48" x="149.12825" y="183.892028" style="fill: #1f77b4; stroke: #1f77b4; stroke-linejoin: miter"/>
     <use xlink:href="#m733ccd3f48" x="159.316667" y="183.268216" style="fill: #1f77b4; stroke: #1f77b4; stroke-linejoin: miter"/>
     <use xlink:href="#m733ccd3f48" x="169.505084" y="158.041024" style="fill: #1f77b4; stroke: #1f77b4; stroke-linejoin: miter"/>
     <use xlink:href="#m733ccd3f48" x="179.693501" y="171.868511" style="fill: #1f77b4; stroke: #1f77b4; stroke-linejoin: miter"/>
     <use xlink:href="#m733ccd3f48" x="189.881918" y="125.020777" style="fill: #1f77b4; stroke: #1f77b4; stroke-linejoin: miter"/>
     <use xlink:href="#m733ccd3f48" x="200.070335" y="124.686866" style="fill: #1f77b4; stroke: #1f77b4; stroke-linejoin: miter"/>
     <use xlink:href="#m733ccd3f48" x="210.258752" y="121.087924" style="fill: #1f77b4; stroke: #1f77b4; stroke-linejoin: miter"/>
     <use xlink:href="#m733ccd3f48" x="220.44717" y="108.070798" style="fill: #1f77b4; stroke: #1f77b4; stroke-linejoin: miter"/>
     <use xlink:href="#m733ccd3f48" x="230.635587" y="103.403845" style="fill: #1f77b4; stroke: #1f77b4; stroke-linejoin: miter"/>
     <use xlink:href="#m733ccd3f48" x="240.824004" y="132.530156" style="fill: #1f77b4; stroke: #1f77b4; stroke-linejoin: miter"/>
     <use xlink:href="#m733ccd3f48" x="251.012421" y="100.906713" style="fill: #1f77b4; stroke: #1f77b4; stroke-linejoin: miter"/>
     <use xlink:href="#m733ccd3f48" x="256.10663" y="101.401955" style="fill: #1f77b4; stroke: #1f77b4; stroke-linejoin: miter"/>
     <use xlink:href="#m733ccd3f48" x="261.200838" y="114.305551" style="fill: #1f77b4; stroke: #1f77b4; stroke-linejoin: miter"/>
     <use xlink:href="#m733ccd3f48" x="266.295047" y="80.504276" style="fill: #1f77b4; stroke: #1f77b4; stroke-linejoin: miter"/>
     <use xlink:href="#m733ccd3f48" x="271.389255" y="85.279162" style="fill: #1f77b4; stroke: #1f77b4; stroke-linejoin: miter"/>
     <use xlink:href="#m733ccd3f48" x="276.483464" y="93.926237" style="fill: #1f77b4; stroke: #1f77b4; stroke-linejoin: miter"/>
     <use xlink:href="#m733ccd3f48" x="281.577672" y="99.998541" style="fill: #1f77b4; stroke: #1f77b4; stroke-linejoin: miter"/>
     <use xlink:href="#m733ccd3f48" x="286.671881" y="77.486672" style="fill: #1f77b4; stroke: #1f77b4; stroke-linejoin: miter"/>
     <use xlink:href="#m733ccd3f48" x="291.76609" y="81.001102" style="fill: #1f77b4; stroke: #1f77b4; stroke-linejoin: miter"/>
     <use xlink:href="#m733ccd3f48" x="296.860298" y="87.954432" style="fill: #1f77b4; stroke: #1f77b4; stroke-linejoin: miter"/>
     <use xlink:href="#m733ccd3f48" x="301.954507" y="81.188648" style="fill: #1f77b4; stroke: #1f77b4; stroke-linejoin: miter"/>
     <use xlink:href="#m733ccd3f48" x="307.048715" y="78.979392" style="fill: #1f77b4; stroke: #1f77b4; stroke-linejoin: miter"/>
     <use xlink:href="#m733ccd3f48" x="312.142924" y="71.220063" style="fill: #1f77b4; stroke: #1f77b4; stroke-linejoin: miter"/>
     <use xlink:href="#m733ccd3f48" x="317.237132" y="79.664854" style="fill: #1f77b4; stroke: #1f77b4; stroke-linejoin: miter"/>
     <use xlink:href="#m733ccd3f48" x="322.331341" y="68.474885" style="fill: #1f77b4; stroke: #1f77b4; stroke-linejoin: miter"/>
     <use xlink:href="#m733ccd3f48" x="327.42555" y="66.102208" style="fill: #1f77b4; stroke: #1f77b4; stroke-linejoin: miter"/>
     <use xlink:href="#m733ccd3f48" x="332.519758" y="62.58309" style="fill: #1f77b4; stroke: #1f77b4; stroke-linejoin: miter"/>
     <use xlink:href="#m733ccd3f48" x="337.613967" y="59.375606" style="fill: #1f77b4; stroke: #1f77b4; stroke-linejoin: miter"/>
     <use xlink:href="#m733ccd3f48" x="342.708175" y="61.157973" style="fill: #1f77b4; stroke: #1f77b4; stroke-linejoin: miter"/>
     <use xlink:href="#m733ccd3f48" x="347.802384" y="66.211022" style="fill: #1f77b4; stroke: #1f77b4; stroke-linejoin: miter"/>
     <use xlink:href="#m733ccd3f48" x="352.896592" y="67.562062" style="fill: #1f77b4; stroke: #1f77b4; stroke-linejoin: miter"/>
     <use xlink:href="#m733ccd3f48" x="378.367635" y="59.130177" style="fill: #1f77b4; stroke: #1f77b4; stroke-linejoin: miter"/>
     <use xlink:href="#m733ccd3f48" x="403.838678" y="52.870811" style="fill: #1f77b4; stroke: #1f77b4; stroke-linejoin: miter"/>
     <use xlink:href="#m733ccd3f48" x="429.309721" y="58.378613" style="fill: #1f77b4; stroke: #1f77b4; stroke-linejoin: miter"/>
     <use xlink:href="#m733ccd3f48" x="454.780764" y="53.207828" style="fill: #1f77b4; stroke: #1f77b4; stroke-linejoin: miter"/>
     <use xlink:href="#m733ccd3f48" x="480.251807" y="53.259816" style="fill: #1f77b4; stroke: #1f77b4; stroke-linejoin: miter"/>
     <use xlink:href="#m733ccd3f48" x="505.72285" y="52.045882" style="fill: #1f77b4; stroke: #1f77b4; stroke-linejoin: miter"/>
     <use xlink:href="#m733ccd3f48" x="531.193892" y="48.907149" style="fill: #1f77b4; stroke: #1f77b4; stroke-linejoin: miter"/>
     <use xlink:href="#m733ccd3f48" x="556.664935" y="51.433439" style="fill: #1f77b4; stroke: #1f77b4; stroke-linejoin: miter"/>
     <use xlink:href="#m733ccd3f48" x="582.135978" y="48.150792" style="fill: #1f77b4; stroke: #1f77b4; stroke-linejoin: miter"/>
     <use xlink:href="#m733ccd3f48" x="607.607021" y="49.415407" style="fill: #1f77b4; stroke: #1f77b4; stroke-linejoin: miter"/>
     <use xlink:href="#m733ccd3f48" x="633.078064" y="45.586578" style="fill: #1f77b4; stroke: #1f77b4; stroke-linejoin: miter"/>
     <use xlink:href="#m733ccd3f48" x="658.549107" y="46.448489" style="fill: #1f77b4; stroke: #1f77b4; stroke-linejoin: miter"/>
     <use xlink:href="#m733ccd3f48" x="684.02015" y="47.652419" style="fill: #1f77b4; stroke: #1f77b4; stroke-linejoin: miter"/>
     <use xlink:href="#m733ccd3f48" x="709.491192" y="45.538296" style="fill: #1f77b4; stroke: #1f77b4; stroke-linejoin: miter"/>
     <use xlink:href="#m733ccd3f48" x="734.962235" y="46.167785" style="fill: #1f77b4; stroke: #1f77b4; stroke-linejoin: miter"/>
     <use xlink:href="#m733ccd3f48" x="760.433278" y="46.346795" style="fill: #1f77b4; stroke: #1f77b4; stroke-linejoin: miter"/>
     <use xlink:href="#m733ccd3f48" x="785.904321" y="44.696008" style="fill: #1f77b4; stroke: #1f77b4; stroke-linejoin: miter"/>
     <use xlink:href="#m733ccd3f48" x="811.375364" y="43.806331" style="fill: #1f77b4; stroke: #1f77b4; stroke-linejoin: miter"/>
    </g>
   </g>
   <g id="patch_3">
    <path d="M 47.18 208.456 
L 47.18 0.155294 
" style="fill: none; stroke: #000000; stroke-width: 0.8; stroke-linejoin: miter; stroke-linecap: square"/>
   </g>
   <g id="patch_4">
    <path d="M 720 208.456 
L 720 0.155294 
" style="fill: none; stroke: #000000; stroke-width: 0.8; stroke-linejoin: miter; stroke-linecap: square"/>
   </g>
   <g id="patch_5">
    <path d="M 47.18 208.456 
L 720 208.456 
" style="fill: none; stroke: #000000; stroke-width: 0.8; stroke-linejoin: miter; stroke-linecap: square"/>
   </g>
   <g id="patch_6">
    <path d="M 47.18 0.155294 
L 720 0.155294 
" style="fill: none; stroke: #000000; stroke-width: 0.8; stroke-linejoin: miter; stroke-linecap: square"/>
   </g>
   <g id="legend_1">
    <g id="patch_7">
     <path d="M 564.545313 203.456 
L 713 203.456 
Q 715 203.456 715 201.456 
L 715 158.421625 
Q 715 156.421625 713 156.421625 
L 564.545313 156.421625 
Q 562.545313 156.421625 562.545313 158.421625 
L 562.545313 201.456 
Q 562.545313 203.456 564.545313 203.456 
z
" style="fill: #ffffff; opacity: 0.8; stroke: #cccccc; stroke-linejoin: miter"/>
    </g>
    <g id="line2d_20">
     <path d="M 566.545313 164.520062 
L 576.545313 164.520062 
L 586.545313 164.520062 
" style="fill: none; stroke-dasharray: 9.25,4; stroke-dashoffset: 0; stroke: #000000; stroke-width: 2.5"/>
    </g>
    <g id="text_18">
     <!-- Interpolation Threshold -->
     <g transform="translate(594.545313 168.020062)scale(0.1 -0.1)">
      <defs>
       <path id="DejaVuSans-49" d="M 628 4666 
L 1259 4666 
L 1259 0 
L 628 0 
L 628 4666 
z
" transform="scale(0.015625)"/>
       <path id="DejaVuSans-6e" d="M 3513 2113 
L 3513 0 
L 2938 0 
L 2938 2094 
Q 2938 2591 2744 2837 
Q 2550 3084 2163 3084 
Q 1697 3084 1428 2787 
Q 1159 2491 1159 1978 
L 1159 0 
L 581 0 
L 581 3500 
L 1159 3500 
L 1159 2956 
Q 1366 3272 1645 3428 
Q 1925 3584 2291 3584 
Q 2894 3584 3203 3211 
Q 3513 2838 3513 2113 
z
" transform="scale(0.015625)"/>
       <path id="DejaVuSans-74" d="M 1172 4494 
L 1172 3500 
L 2356 3500 
L 2356 3053 
L 1172 3053 
L 1172 1153 
Q 1172 725 1289 603 
Q 1406 481 1766 481 
L 2356 481 
L 2356 0 
L 1766 0 
Q 1100 0 847 248 
Q 594 497 594 1153 
L 594 3053 
L 172 3053 
L 172 3500 
L 594 3500 
L 594 4494 
L 1172 4494 
z
" transform="scale(0.015625)"/>
       <path id="DejaVuSans-65" d="M 3597 1894 
L 3597 1613 
L 953 1613 
Q 991 1019 1311 708 
Q 1631 397 2203 397 
Q 2534 397 2845 478 
Q 3156 559 3463 722 
L 3463 178 
Q 3153 47 2828 -22 
Q 2503 -91 2169 -91 
Q 1331 -91 842 396 
Q 353 884 353 1716 
Q 353 2575 817 3079 
Q 1281 3584 2069 3584 
Q 2775 3584 3186 3129 
Q 3597 2675 3597 1894 
z
M 3022 2063 
Q 3016 2534 2758 2815 
Q 2500 3097 2075 3097 
Q 1594 3097 1305 2825 
Q 1016 2553 972 2059 
L 3022 2063 
z
" transform="scale(0.015625)"/>
       <path id="DejaVuSans-72" d="M 2631 2963 
Q 2534 3019 2420 3045 
Q 2306 3072 2169 3072 
Q 1681 3072 1420 2755 
Q 1159 2438 1159 1844 
L 1159 0 
L 581 0 
L 581 3500 
L 1159 3500 
L 1159 2956 
Q 1341 3275 1631 3429 
Q 1922 3584 2338 3584 
Q 2397 3584 2469 3576 
Q 2541 3569 2628 3553 
L 2631 2963 
z
" transform="scale(0.015625)"/>
       <path id="DejaVuSans-70" d="M 1159 525 
L 1159 -1331 
L 581 -1331 
L 581 3500 
L 1159 3500 
L 1159 2969 
Q 1341 3281 1617 3432 
Q 1894 3584 2278 3584 
Q 2916 3584 3314 3078 
Q 3713 2572 3713 1747 
Q 3713 922 3314 415 
Q 2916 -91 2278 -91 
Q 1894 -91 1617 61 
Q 1341 213 1159 525 
z
M 3116 1747 
Q 3116 2381 2855 2742 
Q 2594 3103 2138 3103 
Q 1681 3103 1420 2742 
Q 1159 2381 1159 1747 
Q 1159 1113 1420 752 
Q 1681 391 2138 391 
Q 2594 391 2855 752 
Q 3116 1113 3116 1747 
z
" transform="scale(0.015625)"/>
       <path id="DejaVuSans-6f" d="M 1959 3097 
Q 1497 3097 1228 2736 
Q 959 2375 959 1747 
Q 959 1119 1226 758 
Q 1494 397 1959 397 
Q 2419 397 2687 759 
Q 2956 1122 2956 1747 
Q 2956 2369 2687 2733 
Q 2419 3097 1959 3097 
z
M 1959 3584 
Q 2709 3584 3137 3096 
Q 3566 2609 3566 1747 
Q 3566 888 3137 398 
Q 2709 -91 1959 -91 
Q 1206 -91 779 398 
Q 353 888 353 1747 
Q 353 2609 779 3096 
Q 1206 3584 1959 3584 
z
" transform="scale(0.015625)"/>
       <path id="DejaVuSans-6c" d="M 603 4863 
L 1178 4863 
L 1178 0 
L 603 0 
L 603 4863 
z
" transform="scale(0.015625)"/>
       <path id="DejaVuSans-61" d="M 2194 1759 
Q 1497 1759 1228 1600 
Q 959 1441 959 1056 
Q 959 750 1161 570 
Q 1363 391 1709 391 
Q 2188 391 2477 730 
Q 2766 1069 2766 1631 
L 2766 1759 
L 2194 1759 
z
M 3341 1997 
L 3341 0 
L 2766 0 
L 2766 531 
Q 2569 213 2275 61 
Q 1981 -91 1556 -91 
Q 1019 -91 701 211 
Q 384 513 384 1019 
Q 384 1609 779 1909 
Q 1175 2209 1959 2209 
L 2766 2209 
L 2766 2266 
Q 2766 2663 2505 2880 
Q 2244 3097 1772 3097 
Q 1472 3097 1187 3025 
Q 903 2953 641 2809 
L 641 3341 
Q 956 3463 1253 3523 
Q 1550 3584 1831 3584 
Q 2591 3584 2966 3190 
Q 3341 2797 3341 1997 
z
" transform="scale(0.015625)"/>
       <path id="DejaVuSans-69" d="M 603 3500 
L 1178 3500 
L 1178 0 
L 603 0 
L 603 3500 
z
M 603 4863 
L 1178 4863 
L 1178 4134 
L 603 4134 
L 603 4863 
z
" transform="scale(0.015625)"/>
       <path id="DejaVuSans-54" d="M -19 4666 
L 3928 4666 
L 3928 4134 
L 2272 4134 
L 2272 0 
L 1638 0 
L 1638 4134 
L -19 4134 
L -19 4666 
z
" transform="scale(0.015625)"/>
       <path id="DejaVuSans-68" d="M 3513 2113 
L 3513 0 
L 2938 0 
L 2938 2094 
Q 2938 2591 2744 2837 
Q 2550 3084 2163 3084 
Q 1697 3084 1428 2787 
Q 1159 2491 1159 1978 
L 1159 0 
L 581 0 
L 581 4863 
L 1159 4863 
L 1159 2956 
Q 1366 3272 1645 3428 
Q 1925 3584 2291 3584 
Q 2894 3584 3203 3211 
Q 3513 2838 3513 2113 
z
" transform="scale(0.015625)"/>
       <path id="DejaVuSans-73" d="M 2834 3397 
L 2834 2853 
Q 2591 2978 2328 3040 
Q 2066 3103 1784 3103 
Q 1356 3103 1142 2972 
Q 928 2841 928 2578 
Q 928 2378 1081 2264 
Q 1234 2150 1697 2047 
L 1894 2003 
Q 2506 1872 2764 1633 
Q 3022 1394 3022 966 
Q 3022 478 2636 193 
Q 2250 -91 1575 -91 
Q 1294 -91 989 -36 
Q 684 19 347 128 
L 347 722 
Q 666 556 975 473 
Q 1284 391 1588 391 
Q 1994 391 2212 530 
Q 2431 669 2431 922 
Q 2431 1156 2273 1281 
Q 2116 1406 1581 1522 
L 1381 1569 
Q 847 1681 609 1914 
Q 372 2147 372 2553 
Q 372 3047 722 3315 
Q 1072 3584 1716 3584 
Q 2034 3584 2315 3537 
Q 2597 3491 2834 3397 
z
" transform="scale(0.015625)"/>
       <path id="DejaVuSans-64" d="M 2906 2969 
L 2906 4863 
L 3481 4863 
L 3481 0 
L 2906 0 
L 2906 525 
Q 2725 213 2448 61 
Q 2172 -91 1784 -91 
Q 1150 -91 751 415 
Q 353 922 353 1747 
Q 353 2572 751 3078 
Q 1150 3584 1784 3584 
Q 2172 3584 2448 3432 
Q 2725 3281 2906 2969 
z
M 947 1747 
Q 947 1113 1208 752 
Q 1469 391 1925 391 
Q 2381 391 2643 752 
Q 2906 1113 2906 1747 
Q 2906 2381 2643 2742 
Q 2381 3103 1925 3103 
Q 1469 3103 1208 2742 
Q 947 2381 947 1747 
z
" transform="scale(0.015625)"/>
      </defs>
      <use xlink:href="#DejaVuSans-49"/>
      <use xlink:href="#DejaVuSans-6e" x="29.492188"/>
      <use xlink:href="#DejaVuSans-74" x="92.871094"/>
      <use xlink:href="#DejaVuSans-65" x="132.080078"/>
      <use xlink:href="#DejaVuSans-72" x="193.603516"/>
      <use xlink:href="#DejaVuSans-70" x="234.716797"/>
      <use xlink:href="#DejaVuSans-6f" x="298.193359"/>
      <use xlink:href="#DejaVuSans-6c" x="359.375"/>
      <use xlink:href="#DejaVuSans-61" x="387.158203"/>
      <use xlink:href="#DejaVuSans-74" x="448.4375"/>
      <use xlink:href="#DejaVuSans-69" x="487.646484"/>
      <use xlink:href="#DejaVuSans-6f" x="515.429688"/>
      <use xlink:href="#DejaVuSans-6e" x="576.611328"/>
      <use xlink:href="#DejaVuSans-20" x="639.990234"/>
      <use xlink:href="#DejaVuSans-54" x="671.777344"/>
      <use xlink:href="#DejaVuSans-68" x="732.861328"/>
      <use xlink:href="#DejaVuSans-72" x="796.240234"/>
      <use xlink:href="#DejaVuSans-65" x="835.103516"/>
      <use xlink:href="#DejaVuSans-73" x="896.626953"/>
      <use xlink:href="#DejaVuSans-68" x="948.726562"/>
      <use xlink:href="#DejaVuSans-6f" x="1012.105469"/>
      <use xlink:href="#DejaVuSans-6c" x="1073.287109"/>
      <use xlink:href="#DejaVuSans-64" x="1101.070312"/>
     </g>
    </g>
    <g id="line2d_21">
     <path d="M 566.545313 179.198187 
L 576.545313 179.198187 
L 586.545313 179.198187 
" style="fill: none; stroke: #ff7f0e; stroke-linecap: square"/>
     <g>
      <use xlink:href="#mbd4fdd3067" x="576.545313" y="179.198187" style="fill: #ff7f0e; stroke: #ff7f0e; stroke-linejoin: miter"/>
     </g>
    </g>
    <g id="text_19">
     <!-- Train -->
     <g transform="translate(594.545313 182.698187)scale(0.1 -0.1)">
      <use xlink:href="#DejaVuSans-54"/>
      <use xlink:href="#DejaVuSans-72" x="46.333984"/>
      <use xlink:href="#DejaVuSans-61" x="87.447266"/>
      <use xlink:href="#DejaVuSans-69" x="148.726562"/>
      <use xlink:href="#DejaVuSans-6e" x="176.509766"/>
     </g>
    </g>
    <g id="line2d_22">
     <path d="M 566.545313 193.876312 
L 576.545313 193.876312 
L 586.545313 193.876312 
" style="fill: none; stroke: #1f77b4; stroke-linecap: square"/>
     <g>
      <use xlink:href="#m733ccd3f48" x="576.545313" y="193.876312" style="fill: #1f77b4; stroke: #1f77b4; stroke-linejoin: miter"/>
     </g>
    </g>
    <g id="text_20">
     <!-- Test -->
     <g transform="translate(594.545313 197.376312)scale(0.1 -0.1)">
      <use xlink:href="#DejaVuSans-54"/>
      <use xlink:href="#DejaVuSans-65" x="44.083984"/>
      <use xlink:href="#DejaVuSans-73" x="105.607422"/>
      <use xlink:href="#DejaVuSans-74" x="157.707031"/>
     </g>
    </g>
   </g>
  </g>
 </g>
 <defs>
  <clipPath id="pe5fc7d661a">
   <rect x="47.18" y="0.155294" width="672.82" height="208.300706"/>
  </clipPath>
 </defs>
</svg>
