<?xml version="1.0" encoding="utf-8" standalone="no"?>
<!DOCTYPE svg PUBLIC "-//W3C//DTD SVG 1.1//EN"
  "http://www.w3.org/Graphics/SVG/1.1/DTD/svg11.dtd">
<svg xmlns:xlink="http://www.w3.org/1999/xlink" width="720pt" height="252pt" viewBox="0 0 720 252" xmlns="http://www.w3.org/2000/svg" version="1.1">
 <metadata>
  <rdf:RDF xmlns:dc="http://purl.org/dc/elements/1.1/" xmlns:cc="http://creativecommons.org/ns#" xmlns:rdf="http://www.w3.org/1999/02/22-rdf-syntax-ns#">
   <cc:Work>
    <dc:type rdf:resource="http://purl.org/dc/dcmitype/StillImage"/>
    <dc:date>2023-08-15T22:37:15.674739</dc:date>
    <dc:format>image/svg+xml</dc:format>
    <dc:creator>
     <cc:Agent>
      <dc:title>Matplotlib v3.5.3, https://matplotlib.org/</dc:title>
     </cc:Agent>
    </dc:creator>
   </cc:Work>
  </rdf:RDF>
 </metadata>
 <defs>
  <style type="text/css">*{stroke-linejoin: round; stroke-linecap: butt}</style>
 </defs>
 <g id="figure_1">
  <g id="patch_1">
   <path d="M 0 252 
L 720 252 
L 720 0 
L 0 0 
z
" style="fill: #ffffff"/>
  </g>
  <g id="axes_1">
   <g id="patch_2">
    <path d="M 47.18 208.456 
L 720 208.456 
L 720 0 
L 47.18 0 
z
" style="fill: #ffffff"/>
   </g>
   <g id="PolyCollection_1">
    <path d="M 57.432495 -80.864779 
L 57.432495 -76.835343 
L 67.620912 -77.228098 
L 77.80933 -54.137475 
L 87.997747 -62.253198 
L 98.186164 -53.37225 
L 108.374581 -29.953982 
L 118.562998 -29.268767 
L 128.751415 -2.641826 
L 138.939832 -27.583253 
L 149.12825 -11.426983 
L 159.316667 -16.623364 
L 169.505084 25.282132 
L 179.693501 -10.475134 
L 189.881918 103.038319 
L 200.070335 95.506078 
L 210.258752 82.093859 
L 220.44717 121.061468 
L 230.635587 116.290918 
L 240.824004 51.544196 
L 251.012421 97.464746 
L 256.10663 121.728831 
L 261.200838 109.503729 
L 266.295047 136.312549 
L 271.389255 119.130504 
L 276.483464 152.740773 
L 281.577672 108.049364 
L 286.671881 143.998498 
L 291.76609 131.534294 
L 296.860298 132.254637 
L 301.954507 137.35518 
L 307.048715 145.352459 
L 312.142924 137.870565 
L 317.237132 149.184293 
L 322.331341 149.198596 
L 327.42555 154.317279 
L 332.519758 152.49637 
L 337.613967 153.914839 
L 342.708175 157.45828 
L 347.802384 154.320817 
L 352.896592 153.356165 
L 378.367635 159.03361 
L 403.838678 157.964916 
L 429.309721 164.175121 
L 454.780764 160.384459 
L 480.251807 160.048067 
L 505.72285 162.386343 
L 531.193892 165.887308 
L 556.664935 166.085131 
L 582.135978 166.50139 
L 607.607021 166.222207 
L 633.078064 169.93134 
L 658.549107 168.816117 
L 684.02015 170.809754 
L 709.491192 173.911011 
L 734.962235 174.549546 
L 760.433278 172.425945 
L 785.904321 173.453061 
L 811.375364 175.753794 
L 811.375364 171.641288 
L 811.375364 171.641288 
L 785.904321 170.309834 
L 760.433278 167.704761 
L 734.962235 168.392158 
L 709.491192 168.714851 
L 684.02015 165.751934 
L 658.549107 166.26111 
L 633.078064 165.68282 
L 607.607021 164.685901 
L 582.135978 161.564136 
L 556.664935 157.053253 
L 531.193892 156.619391 
L 505.72285 158.130549 
L 480.251807 155.636436 
L 454.780764 155.773808 
L 429.309721 134.706565 
L 403.838678 151.244817 
L 378.367635 135.773708 
L 352.896592 115.425738 
L 347.802384 117.208915 
L 342.708175 119.756616 
L 337.613967 131.480376 
L 332.519758 126.108232 
L 327.42555 114.243534 
L 322.331341 109.602687 
L 317.237132 81.949193 
L 312.142924 106.938898 
L 307.048715 89.286878 
L 301.954507 87.114031 
L 296.860298 64.64153 
L 291.76609 90.123919 
L 286.671881 87.703504 
L 281.577672 70.938538 
L 276.483464 33.132494 
L 271.389255 93.999964 
L 266.295047 89.325279 
L 261.200838 8.052822 
L 256.10663 43.993689 
L 251.012421 58.877254 
L 240.824004 25.205513 
L 230.635587 47.410211 
L 220.44717 24.004957 
L 210.258752 27.250789 
L 200.070335 1.804973 
L 189.881918 -8.127671 
L 179.693501 -32.353099 
L 169.505084 -29.388084 
L 159.316667 -68.464585 
L 149.12825 -71.323732 
L 138.939832 -65.558678 
L 128.751415 -72.655008 
L 118.562998 -66.463072 
L 108.374581 -73.76867 
L 98.186164 -79.439489 
L 87.997747 -82.781643 
L 77.80933 -80.474567 
L 67.620912 -80.566778 
L 57.432495 -80.864779 
z
" clip-path="url(#p192f642adf)" style="fill: #ff7f0e; fill-opacity: 0.3; stroke: #ff7f0e; stroke-opacity: 0.3"/>
   </g>
   <g id="PolyCollection_2">
    <path d="M 57.432495 -79.719785 
L 57.432495 -76.167402 
L 67.620912 -76.042454 
L 77.80933 -60.338215 
L 87.997747 -64.850498 
L 98.186164 -52.328273 
L 108.374581 -38.115788 
L 118.562998 -34.527782 
L 128.751415 -12.683442 
L 138.939832 -34.449371 
L 149.12825 -15.90714 
L 159.316667 -20.479308 
L 169.505084 7.371204 
L 179.693501 -14.455309 
L 189.881918 58.135658 
L 200.070335 58.163261 
L 210.258752 49.445437 
L 220.44717 79.233993 
L 230.635587 73.797986 
L 240.824004 28.50881 
L 251.012421 65.876513 
L 256.10663 73.315534 
L 261.200838 71.669536 
L 266.295047 83.617153 
L 271.389255 77.373205 
L 276.483464 96.610524 
L 281.577672 70.233457 
L 286.671881 90.711732 
L 291.76609 88.095947 
L 296.860298 84.306286 
L 301.954507 93.585338 
L 307.048715 98.5467 
L 312.142924 85.059376 
L 317.237132 98.55782 
L 322.331341 108.137243 
L 327.42555 101.808324 
L 332.519758 110.128045 
L 337.613967 101.451437 
L 342.708175 108.296009 
L 347.802384 106.223197 
L 352.896592 96.468287 
L 378.367635 107.760399 
L 403.838678 119.484695 
L 429.309721 120.171255 
L 454.780764 121.465339 
L 480.251807 123.212295 
L 505.72285 121.394904 
L 531.193892 137.963667 
L 556.664935 127.677969 
L 582.135978 134.315471 
L 607.607021 129.66408 
L 633.078064 140.062745 
L 658.549107 139.444658 
L 684.02015 137.786953 
L 709.491192 140.563291 
L 734.962235 141.32268 
L 760.433278 141.390388 
L 785.904321 144.407843 
L 811.375364 144.901861 
L 811.375364 138.168753 
L 811.375364 138.168753 
L 785.904321 137.310966 
L 760.433278 135.43918 
L 734.962235 134.066647 
L 709.491192 137.744419 
L 684.02015 129.655778 
L 658.549107 132.963116 
L 633.078064 134.265351 
L 607.607021 127.381118 
L 582.135978 126.128192 
L 556.664935 117.959001 
L 531.193892 117.034873 
L 505.72285 116.535511 
L 480.251807 108.502341 
L 454.780764 107.027704 
L 429.309721 93.477195 
L 403.838678 103.057877 
L 378.367635 90.626544 
L 352.896592 75.034149 
L 347.802384 74.754512 
L 342.708175 81.487387 
L 337.613967 86.373735 
L 332.519758 84.279284 
L 327.42555 71.917643 
L 322.331341 71.185452 
L 317.237132 53.248683 
L 312.142924 69.248599 
L 307.048715 52.716554 
L 301.954507 53.369825 
L 296.860298 44.9238 
L 291.76609 57.633748 
L 286.671881 54.323109 
L 281.577672 42.497021 
L 276.483464 19.101507 
L 271.389255 61.433224 
L 266.295047 59.358395 
L 261.200838 -2.575847 
L 256.10663 29.042679 
L 251.012421 31.125013 
L 240.824004 11.464207 
L 230.635587 23.670986 
L 220.44717 5.955026 
L 210.258752 11.37318 
L 200.070335 -1.867507 
L 189.881918 -14.220927 
L 179.693501 -41.234027 
L 169.505084 -34.003037 
L 159.316667 -68.967266 
L 149.12825 -71.075864 
L 138.939832 -64.737784 
L 128.751415 -76.92737 
L 118.562998 -68.184174 
L 108.374581 -74.51362 
L 98.186164 -79.858099 
L 87.997747 -82.963757 
L 77.80933 -82.030916 
L 67.620912 -81.0323 
L 57.432495 -79.719785 
z
" clip-path="url(#p192f642adf)" style="fill: #1f77b4; fill-opacity: 0.3; stroke: #1f77b4; stroke-opacity: 0.3"/>
   </g>
   <g id="matplotlib.axis_1">
    <g id="xtick_1">
     <g id="line2d_1">
      <defs>
       <path id="m62061843d6" d="M 0 0 
L 0 3.5 
" style="stroke: #000000; stroke-width: 0.8"/>
      </defs>
      <g>
       <use xlink:href="#m62061843d6" x="57.432495" y="208.456" style="stroke: #000000; stroke-width: 0.8"/>
      </g>
     </g>
     <g id="text_1">
      <!-- 1.6k -->
      <g transform="translate(46.58562 223.054438)scale(0.1 -0.1)">
       <defs>
        <path id="DejaVuSans-31" d="M 794 531 
L 1825 531 
L 1825 4091 
L 703 3866 
L 703 4441 
L 1819 4666 
L 2450 4666 
L 2450 531 
L 3481 531 
L 3481 0 
L 794 0 
L 794 531 
z
" transform="scale(0.015625)"/>
        <path id="DejaVuSans-2e" d="M 684 794 
L 1344 794 
L 1344 0 
L 684 0 
L 684 794 
z
" transform="scale(0.015625)"/>
        <path id="DejaVuSans-36" d="M 2113 2584 
Q 1688 2584 1439 2293 
Q 1191 2003 1191 1497 
Q 1191 994 1439 701 
Q 1688 409 2113 409 
Q 2538 409 2786 701 
Q 3034 994 3034 1497 
Q 3034 2003 2786 2293 
Q 2538 2584 2113 2584 
z
M 3366 4563 
L 3366 3988 
Q 3128 4100 2886 4159 
Q 2644 4219 2406 4219 
Q 1781 4219 1451 3797 
Q 1122 3375 1075 2522 
Q 1259 2794 1537 2939 
Q 1816 3084 2150 3084 
Q 2853 3084 3261 2657 
Q 3669 2231 3669 1497 
Q 3669 778 3244 343 
Q 2819 -91 2113 -91 
Q 1303 -91 875 529 
Q 447 1150 447 2328 
Q 447 3434 972 4092 
Q 1497 4750 2381 4750 
Q 2619 4750 2861 4703 
Q 3103 4656 3366 4563 
z
" transform="scale(0.015625)"/>
        <path id="DejaVuSans-6b" d="M 581 4863 
L 1159 4863 
L 1159 1991 
L 2875 3500 
L 3609 3500 
L 1753 1863 
L 3688 0 
L 2938 0 
L 1159 1709 
L 1159 0 
L 581 0 
L 581 4863 
z
" transform="scale(0.015625)"/>
       </defs>
       <use xlink:href="#DejaVuSans-31"/>
       <use xlink:href="#DejaVuSans-2e" x="63.623047"/>
       <use xlink:href="#DejaVuSans-36" x="95.410156"/>
       <use xlink:href="#DejaVuSans-6b" x="159.033203"/>
      </g>
      <!-- 2 -->
      <g transform="translate(54.251245 234.25225)scale(0.1 -0.1)">
       <defs>
        <path id="DejaVuSans-32" d="M 1228 531 
L 3431 531 
L 3431 0 
L 469 0 
L 469 531 
Q 828 903 1448 1529 
Q 2069 2156 2228 2338 
Q 2531 2678 2651 2914 
Q 2772 3150 2772 3378 
Q 2772 3750 2511 3984 
Q 2250 4219 1831 4219 
Q 1534 4219 1204 4116 
Q 875 4013 500 3803 
L 500 4441 
Q 881 4594 1212 4672 
Q 1544 4750 1819 4750 
Q 2544 4750 2975 4387 
Q 3406 4025 3406 3419 
Q 3406 3131 3298 2873 
Q 3191 2616 2906 2266 
Q 2828 2175 2409 1742 
Q 1991 1309 1228 531 
z
" transform="scale(0.015625)"/>
       </defs>
       <use xlink:href="#DejaVuSans-32"/>
      </g>
     </g>
    </g>
    <g id="xtick_2">
     <g id="line2d_2">
      <g>
       <use xlink:href="#m62061843d6" x="98.186164" y="208.456" style="stroke: #000000; stroke-width: 0.8"/>
      </g>
     </g>
     <g id="text_2">
      <!-- 8k -->
      <g transform="translate(92.109601 223.054438)scale(0.1 -0.1)">
       <defs>
        <path id="DejaVuSans-38" d="M 2034 2216 
Q 1584 2216 1326 1975 
Q 1069 1734 1069 1313 
Q 1069 891 1326 650 
Q 1584 409 2034 409 
Q 2484 409 2743 651 
Q 3003 894 3003 1313 
Q 3003 1734 2745 1975 
Q 2488 2216 2034 2216 
z
M 1403 2484 
Q 997 2584 770 2862 
Q 544 3141 544 3541 
Q 544 4100 942 4425 
Q 1341 4750 2034 4750 
Q 2731 4750 3128 4425 
Q 3525 4100 3525 3541 
Q 3525 3141 3298 2862 
Q 3072 2584 2669 2484 
Q 3125 2378 3379 2068 
Q 3634 1759 3634 1313 
Q 3634 634 3220 271 
Q 2806 -91 2034 -91 
Q 1263 -91 848 271 
Q 434 634 434 1313 
Q 434 1759 690 2068 
Q 947 2378 1403 2484 
z
M 1172 3481 
Q 1172 3119 1398 2916 
Q 1625 2713 2034 2713 
Q 2441 2713 2670 2916 
Q 2900 3119 2900 3481 
Q 2900 3844 2670 4047 
Q 2441 4250 2034 4250 
Q 1625 4250 1398 4047 
Q 1172 3844 1172 3481 
z
" transform="scale(0.015625)"/>
       </defs>
       <use xlink:href="#DejaVuSans-38"/>
       <use xlink:href="#DejaVuSans-6b" x="63.623047"/>
      </g>
      <!-- 10 -->
      <g transform="translate(91.823664 234.25225)scale(0.1 -0.1)">
       <defs>
        <path id="DejaVuSans-30" d="M 2034 4250 
Q 1547 4250 1301 3770 
Q 1056 3291 1056 2328 
Q 1056 1369 1301 889 
Q 1547 409 2034 409 
Q 2525 409 2770 889 
Q 3016 1369 3016 2328 
Q 3016 3291 2770 3770 
Q 2525 4250 2034 4250 
z
M 2034 4750 
Q 2819 4750 3233 4129 
Q 3647 3509 3647 2328 
Q 3647 1150 3233 529 
Q 2819 -91 2034 -91 
Q 1250 -91 836 529 
Q 422 1150 422 2328 
Q 422 3509 836 4129 
Q 1250 4750 2034 4750 
z
" transform="scale(0.015625)"/>
       </defs>
       <use xlink:href="#DejaVuSans-31"/>
       <use xlink:href="#DejaVuSans-30" x="63.623047"/>
      </g>
     </g>
    </g>
    <g id="xtick_3">
     <g id="line2d_3">
      <g>
       <use xlink:href="#m62061843d6" x="174.599292" y="208.456" style="stroke: #000000; stroke-width: 0.8"/>
      </g>
     </g>
     <g id="text_3">
      <!-- 19.9k -->
      <g transform="translate(160.571167 223.054438)scale(0.1 -0.1)">
       <defs>
        <path id="DejaVuSans-39" d="M 703 97 
L 703 672 
Q 941 559 1184 500 
Q 1428 441 1663 441 
Q 2288 441 2617 861 
Q 2947 1281 2994 2138 
Q 2813 1869 2534 1725 
Q 2256 1581 1919 1581 
Q 1219 1581 811 2004 
Q 403 2428 403 3163 
Q 403 3881 828 4315 
Q 1253 4750 1959 4750 
Q 2769 4750 3195 4129 
Q 3622 3509 3622 2328 
Q 3622 1225 3098 567 
Q 2575 -91 1691 -91 
Q 1453 -91 1209 -44 
Q 966 3 703 97 
z
M 1959 2075 
Q 2384 2075 2632 2365 
Q 2881 2656 2881 3163 
Q 2881 3666 2632 3958 
Q 2384 4250 1959 4250 
Q 1534 4250 1286 3958 
Q 1038 3666 1038 3163 
Q 1038 2656 1286 2365 
Q 1534 2075 1959 2075 
z
" transform="scale(0.015625)"/>
       </defs>
       <use xlink:href="#DejaVuSans-31"/>
       <use xlink:href="#DejaVuSans-39" x="63.623047"/>
       <use xlink:href="#DejaVuSans-2e" x="127.246094"/>
       <use xlink:href="#DejaVuSans-39" x="159.033203"/>
       <use xlink:href="#DejaVuSans-6b" x="222.65625"/>
      </g>
      <!-- 25 -->
      <g transform="translate(168.236792 234.25225)scale(0.1 -0.1)">
       <defs>
        <path id="DejaVuSans-35" d="M 691 4666 
L 3169 4666 
L 3169 4134 
L 1269 4134 
L 1269 2991 
Q 1406 3038 1543 3061 
Q 1681 3084 1819 3084 
Q 2600 3084 3056 2656 
Q 3513 2228 3513 1497 
Q 3513 744 3044 326 
Q 2575 -91 1722 -91 
Q 1428 -91 1123 -41 
Q 819 9 494 109 
L 494 744 
Q 775 591 1075 516 
Q 1375 441 1709 441 
Q 2250 441 2565 725 
Q 2881 1009 2881 1497 
Q 2881 1984 2565 2268 
Q 2250 2553 1709 2553 
Q 1456 2553 1204 2497 
Q 953 2441 691 2322 
L 691 4666 
z
" transform="scale(0.015625)"/>
       </defs>
       <use xlink:href="#DejaVuSans-32"/>
       <use xlink:href="#DejaVuSans-35" x="63.623047"/>
      </g>
     </g>
    </g>
    <g id="xtick_4">
     <g id="line2d_4">
      <g>
       <use xlink:href="#m62061843d6" x="251.012421" y="208.456" style="stroke: #000000; stroke-width: 0.8"/>
      </g>
     </g>
     <g id="text_4">
      <!-- 31.8k -->
      <g transform="translate(236.984296 223.054438)scale(0.1 -0.1)">
       <defs>
        <path id="DejaVuSans-33" d="M 2597 2516 
Q 3050 2419 3304 2112 
Q 3559 1806 3559 1356 
Q 3559 666 3084 287 
Q 2609 -91 1734 -91 
Q 1441 -91 1130 -33 
Q 819 25 488 141 
L 488 750 
Q 750 597 1062 519 
Q 1375 441 1716 441 
Q 2309 441 2620 675 
Q 2931 909 2931 1356 
Q 2931 1769 2642 2001 
Q 2353 2234 1838 2234 
L 1294 2234 
L 1294 2753 
L 1863 2753 
Q 2328 2753 2575 2939 
Q 2822 3125 2822 3475 
Q 2822 3834 2567 4026 
Q 2313 4219 1838 4219 
Q 1578 4219 1281 4162 
Q 984 4106 628 3988 
L 628 4550 
Q 988 4650 1302 4700 
Q 1616 4750 1894 4750 
Q 2613 4750 3031 4423 
Q 3450 4097 3450 3541 
Q 3450 3153 3228 2886 
Q 3006 2619 2597 2516 
z
" transform="scale(0.015625)"/>
       </defs>
       <use xlink:href="#DejaVuSans-33"/>
       <use xlink:href="#DejaVuSans-31" x="63.623047"/>
       <use xlink:href="#DejaVuSans-2e" x="127.246094"/>
       <use xlink:href="#DejaVuSans-38" x="159.033203"/>
       <use xlink:href="#DejaVuSans-6b" x="222.65625"/>
      </g>
      <!-- 40 -->
      <g transform="translate(244.649921 234.25225)scale(0.1 -0.1)">
       <defs>
        <path id="DejaVuSans-34" d="M 2419 4116 
L 825 1625 
L 2419 1625 
L 2419 4116 
z
M 2253 4666 
L 3047 4666 
L 3047 1625 
L 3713 1625 
L 3713 1100 
L 3047 1100 
L 3047 0 
L 2419 0 
L 2419 1100 
L 313 1100 
L 313 1709 
L 2253 4666 
z
" transform="scale(0.015625)"/>
       </defs>
       <use xlink:href="#DejaVuSans-34"/>
       <use xlink:href="#DejaVuSans-30" x="63.623047"/>
      </g>
     </g>
    </g>
    <g id="xtick_5">
     <g id="line2d_5">
      <g>
       <use xlink:href="#m62061843d6" x="352.896592" y="208.456" style="stroke: #000000; stroke-width: 0.8"/>
      </g>
     </g>
     <g id="text_5">
      <!-- 47.7k -->
      <g transform="translate(338.868467 223.054438)scale(0.1 -0.1)">
       <defs>
        <path id="DejaVuSans-37" d="M 525 4666 
L 3525 4666 
L 3525 4397 
L 1831 0 
L 1172 0 
L 2766 4134 
L 525 4134 
L 525 4666 
z
" transform="scale(0.015625)"/>
       </defs>
       <use xlink:href="#DejaVuSans-34"/>
       <use xlink:href="#DejaVuSans-37" x="63.623047"/>
       <use xlink:href="#DejaVuSans-2e" x="127.246094"/>
       <use xlink:href="#DejaVuSans-37" x="159.033203"/>
       <use xlink:href="#DejaVuSans-6b" x="222.65625"/>
      </g>
      <!-- 60 -->
      <g transform="translate(346.534092 234.25225)scale(0.1 -0.1)">
       <use xlink:href="#DejaVuSans-36"/>
       <use xlink:href="#DejaVuSans-30" x="63.623047"/>
      </g>
     </g>
    </g>
    <g id="xtick_6">
     <g id="line2d_6">
      <g>
       <use xlink:href="#m62061843d6" x="429.309721" y="208.456" style="stroke: #000000; stroke-width: 0.8"/>
      </g>
     </g>
     <g id="text_6">
      <!-- 59.6k -->
      <g transform="translate(415.281596 223.054438)scale(0.1 -0.1)">
       <use xlink:href="#DejaVuSans-35"/>
       <use xlink:href="#DejaVuSans-39" x="63.623047"/>
       <use xlink:href="#DejaVuSans-2e" x="127.246094"/>
       <use xlink:href="#DejaVuSans-36" x="159.033203"/>
       <use xlink:href="#DejaVuSans-6b" x="222.65625"/>
      </g>
      <!-- 75 -->
      <g transform="translate(422.947221 234.25225)scale(0.1 -0.1)">
       <use xlink:href="#DejaVuSans-37"/>
       <use xlink:href="#DejaVuSans-35" x="63.623047"/>
      </g>
     </g>
    </g>
    <g id="xtick_7">
     <g id="line2d_7">
      <g>
       <use xlink:href="#m62061843d6" x="556.664935" y="208.456" style="stroke: #000000; stroke-width: 0.8"/>
      </g>
     </g>
     <g id="text_7">
      <!-- 79.5k -->
      <g transform="translate(542.63681 223.054438)scale(0.1 -0.1)">
       <use xlink:href="#DejaVuSans-37"/>
       <use xlink:href="#DejaVuSans-39" x="63.623047"/>
       <use xlink:href="#DejaVuSans-2e" x="127.246094"/>
       <use xlink:href="#DejaVuSans-35" x="159.033203"/>
       <use xlink:href="#DejaVuSans-6b" x="222.65625"/>
      </g>
      <!-- 100 -->
      <g transform="translate(547.121185 234.25225)scale(0.1 -0.1)">
       <use xlink:href="#DejaVuSans-31"/>
       <use xlink:href="#DejaVuSans-30" x="63.623047"/>
       <use xlink:href="#DejaVuSans-30" x="127.246094"/>
      </g>
     </g>
    </g>
    <g id="xtick_8">
     <g id="line2d_8">
      <g>
       <use xlink:href="#m62061843d6" x="689.114358" y="208.456" style="stroke: #000000; stroke-width: 0.8"/>
      </g>
     </g>
     <g id="text_8">
      <!-- 100.2k -->
      <g transform="translate(671.904983 223.054438)scale(0.1 -0.1)">
       <use xlink:href="#DejaVuSans-31"/>
       <use xlink:href="#DejaVuSans-30" x="63.623047"/>
       <use xlink:href="#DejaVuSans-30" x="127.246094"/>
       <use xlink:href="#DejaVuSans-2e" x="190.869141"/>
       <use xlink:href="#DejaVuSans-32" x="222.65625"/>
       <use xlink:href="#DejaVuSans-6b" x="286.279297"/>
      </g>
      <!-- 126 -->
      <g transform="translate(679.570608 234.25225)scale(0.1 -0.1)">
       <use xlink:href="#DejaVuSans-31"/>
       <use xlink:href="#DejaVuSans-32" x="63.623047"/>
       <use xlink:href="#DejaVuSans-36" x="127.246094"/>
      </g>
     </g>
    </g>
    <g id="xtick_9">
     <g id="line2d_9">
      <g>
       <use xlink:href="#m62061843d6" x="303.492381" y="208.456" style="stroke: #000000; stroke-width: 0.8"/>
      </g>
     </g>
     <g id="text_9">
      <!-- 40k -->
      <g transform="translate(294.234568 223.054438)scale(0.1 -0.1)">
       <use xlink:href="#DejaVuSans-34"/>
       <use xlink:href="#DejaVuSans-30" x="63.623047"/>
       <use xlink:href="#DejaVuSans-6b" x="127.246094"/>
      </g>
     </g>
    </g>
    <g id="text_10">
     <!-- # Parameters / # Hidden Nodes -->
     <g transform="translate(285.630703 248.690219)scale(0.11 -0.11)">
      <defs>
       <path id="DejaVuSans-Bold-23" d="M 2847 4594 
L 2547 3391 
L 3372 3391 
L 3675 4594 
L 4366 4594 
L 4063 3391 
L 4928 3391 
L 4928 2725 
L 3897 2725 
L 3681 1869 
L 4569 1869 
L 4569 1197 
L 3519 1197 
L 3219 0 
L 2528 0 
L 2828 1197 
L 2003 1197 
L 1703 0 
L 1006 0 
L 1306 1197 
L 434 1197 
L 434 1869 
L 1459 1869 
L 1678 2725 
L 794 2725 
L 794 3391 
L 1850 3391 
L 2150 4594 
L 2847 4594 
z
M 3200 2725 
L 2375 2725 
L 2156 1869 
L 2981 1869 
L 3200 2725 
z
" transform="scale(0.015625)"/>
       <path id="DejaVuSans-Bold-20" transform="scale(0.015625)"/>
       <path id="DejaVuSans-Bold-50" d="M 588 4666 
L 2584 4666 
Q 3475 4666 3951 4270 
Q 4428 3875 4428 3144 
Q 4428 2409 3951 2014 
Q 3475 1619 2584 1619 
L 1791 1619 
L 1791 0 
L 588 0 
L 588 4666 
z
M 1791 3794 
L 1791 2491 
L 2456 2491 
Q 2806 2491 2997 2661 
Q 3188 2831 3188 3144 
Q 3188 3456 2997 3625 
Q 2806 3794 2456 3794 
L 1791 3794 
z
" transform="scale(0.015625)"/>
       <path id="DejaVuSans-Bold-61" d="M 2106 1575 
Q 1756 1575 1579 1456 
Q 1403 1338 1403 1106 
Q 1403 894 1545 773 
Q 1688 653 1941 653 
Q 2256 653 2472 879 
Q 2688 1106 2688 1447 
L 2688 1575 
L 2106 1575 
z
M 3816 1997 
L 3816 0 
L 2688 0 
L 2688 519 
Q 2463 200 2181 54 
Q 1900 -91 1497 -91 
Q 953 -91 614 226 
Q 275 544 275 1050 
Q 275 1666 698 1953 
Q 1122 2241 2028 2241 
L 2688 2241 
L 2688 2328 
Q 2688 2594 2478 2717 
Q 2269 2841 1825 2841 
Q 1466 2841 1156 2769 
Q 847 2697 581 2553 
L 581 3406 
Q 941 3494 1303 3539 
Q 1666 3584 2028 3584 
Q 2975 3584 3395 3211 
Q 3816 2838 3816 1997 
z
" transform="scale(0.015625)"/>
       <path id="DejaVuSans-Bold-72" d="M 3138 2547 
Q 2991 2616 2845 2648 
Q 2700 2681 2553 2681 
Q 2122 2681 1889 2404 
Q 1656 2128 1656 1613 
L 1656 0 
L 538 0 
L 538 3500 
L 1656 3500 
L 1656 2925 
Q 1872 3269 2151 3426 
Q 2431 3584 2822 3584 
Q 2878 3584 2943 3579 
Q 3009 3575 3134 3559 
L 3138 2547 
z
" transform="scale(0.015625)"/>
       <path id="DejaVuSans-Bold-6d" d="M 3781 2919 
Q 3994 3244 4286 3414 
Q 4578 3584 4928 3584 
Q 5531 3584 5847 3212 
Q 6163 2841 6163 2131 
L 6163 0 
L 5038 0 
L 5038 1825 
Q 5041 1866 5042 1909 
Q 5044 1953 5044 2034 
Q 5044 2406 4934 2573 
Q 4825 2741 4581 2741 
Q 4263 2741 4089 2478 
Q 3916 2216 3909 1719 
L 3909 0 
L 2784 0 
L 2784 1825 
Q 2784 2406 2684 2573 
Q 2584 2741 2328 2741 
Q 2006 2741 1831 2477 
Q 1656 2213 1656 1722 
L 1656 0 
L 531 0 
L 531 3500 
L 1656 3500 
L 1656 2988 
Q 1863 3284 2130 3434 
Q 2397 3584 2719 3584 
Q 3081 3584 3359 3409 
Q 3638 3234 3781 2919 
z
" transform="scale(0.015625)"/>
       <path id="DejaVuSans-Bold-65" d="M 4031 1759 
L 4031 1441 
L 1416 1441 
Q 1456 1047 1700 850 
Q 1944 653 2381 653 
Q 2734 653 3104 758 
Q 3475 863 3866 1075 
L 3866 213 
Q 3469 63 3072 -14 
Q 2675 -91 2278 -91 
Q 1328 -91 801 392 
Q 275 875 275 1747 
Q 275 2603 792 3093 
Q 1309 3584 2216 3584 
Q 3041 3584 3536 3087 
Q 4031 2591 4031 1759 
z
M 2881 2131 
Q 2881 2450 2695 2645 
Q 2509 2841 2209 2841 
Q 1884 2841 1681 2658 
Q 1478 2475 1428 2131 
L 2881 2131 
z
" transform="scale(0.015625)"/>
       <path id="DejaVuSans-Bold-74" d="M 1759 4494 
L 1759 3500 
L 2913 3500 
L 2913 2700 
L 1759 2700 
L 1759 1216 
Q 1759 972 1856 886 
Q 1953 800 2241 800 
L 2816 800 
L 2816 0 
L 1856 0 
Q 1194 0 917 276 
Q 641 553 641 1216 
L 641 2700 
L 84 2700 
L 84 3500 
L 641 3500 
L 641 4494 
L 1759 4494 
z
" transform="scale(0.015625)"/>
       <path id="DejaVuSans-Bold-73" d="M 3272 3391 
L 3272 2541 
Q 2913 2691 2578 2766 
Q 2244 2841 1947 2841 
Q 1628 2841 1473 2761 
Q 1319 2681 1319 2516 
Q 1319 2381 1436 2309 
Q 1553 2238 1856 2203 
L 2053 2175 
Q 2913 2066 3209 1816 
Q 3506 1566 3506 1031 
Q 3506 472 3093 190 
Q 2681 -91 1863 -91 
Q 1516 -91 1145 -36 
Q 775 19 384 128 
L 384 978 
Q 719 816 1070 734 
Q 1422 653 1784 653 
Q 2113 653 2278 743 
Q 2444 834 2444 1013 
Q 2444 1163 2330 1236 
Q 2216 1309 1875 1350 
L 1678 1375 
Q 931 1469 631 1722 
Q 331 1975 331 2491 
Q 331 3047 712 3315 
Q 1094 3584 1881 3584 
Q 2191 3584 2531 3537 
Q 2872 3491 3272 3391 
z
" transform="scale(0.015625)"/>
       <path id="DejaVuSans-Bold-2f" d="M 1644 4666 
L 2338 4666 
L 691 -594 
L 0 -594 
L 1644 4666 
z
" transform="scale(0.015625)"/>
       <path id="DejaVuSans-Bold-48" d="M 588 4666 
L 1791 4666 
L 1791 2888 
L 3566 2888 
L 3566 4666 
L 4769 4666 
L 4769 0 
L 3566 0 
L 3566 1978 
L 1791 1978 
L 1791 0 
L 588 0 
L 588 4666 
z
" transform="scale(0.015625)"/>
       <path id="DejaVuSans-Bold-69" d="M 538 3500 
L 1656 3500 
L 1656 0 
L 538 0 
L 538 3500 
z
M 538 4863 
L 1656 4863 
L 1656 3950 
L 538 3950 
L 538 4863 
z
" transform="scale(0.015625)"/>
       <path id="DejaVuSans-Bold-64" d="M 2919 2988 
L 2919 4863 
L 4044 4863 
L 4044 0 
L 2919 0 
L 2919 506 
Q 2688 197 2409 53 
Q 2131 -91 1766 -91 
Q 1119 -91 703 423 
Q 288 938 288 1747 
Q 288 2556 703 3070 
Q 1119 3584 1766 3584 
Q 2128 3584 2408 3439 
Q 2688 3294 2919 2988 
z
M 2181 722 
Q 2541 722 2730 984 
Q 2919 1247 2919 1747 
Q 2919 2247 2730 2509 
Q 2541 2772 2181 2772 
Q 1825 2772 1636 2509 
Q 1447 2247 1447 1747 
Q 1447 1247 1636 984 
Q 1825 722 2181 722 
z
" transform="scale(0.015625)"/>
       <path id="DejaVuSans-Bold-6e" d="M 4056 2131 
L 4056 0 
L 2931 0 
L 2931 347 
L 2931 1631 
Q 2931 2084 2911 2256 
Q 2891 2428 2841 2509 
Q 2775 2619 2662 2680 
Q 2550 2741 2406 2741 
Q 2056 2741 1856 2470 
Q 1656 2200 1656 1722 
L 1656 0 
L 538 0 
L 538 3500 
L 1656 3500 
L 1656 2988 
Q 1909 3294 2193 3439 
Q 2478 3584 2822 3584 
Q 3428 3584 3742 3212 
Q 4056 2841 4056 2131 
z
" transform="scale(0.015625)"/>
       <path id="DejaVuSans-Bold-4e" d="M 588 4666 
L 1931 4666 
L 3628 1466 
L 3628 4666 
L 4769 4666 
L 4769 0 
L 3425 0 
L 1728 3200 
L 1728 0 
L 588 0 
L 588 4666 
z
" transform="scale(0.015625)"/>
       <path id="DejaVuSans-Bold-6f" d="M 2203 2784 
Q 1831 2784 1636 2517 
Q 1441 2250 1441 1747 
Q 1441 1244 1636 976 
Q 1831 709 2203 709 
Q 2569 709 2762 976 
Q 2956 1244 2956 1747 
Q 2956 2250 2762 2517 
Q 2569 2784 2203 2784 
z
M 2203 3584 
Q 3106 3584 3614 3096 
Q 4122 2609 4122 1747 
Q 4122 884 3614 396 
Q 3106 -91 2203 -91 
Q 1297 -91 786 396 
Q 275 884 275 1747 
Q 275 2609 786 3096 
Q 1297 3584 2203 3584 
z
" transform="scale(0.015625)"/>
      </defs>
      <use xlink:href="#DejaVuSans-Bold-23"/>
      <use xlink:href="#DejaVuSans-Bold-20" x="83.789062"/>
      <use xlink:href="#DejaVuSans-Bold-50" x="118.603516"/>
      <use xlink:href="#DejaVuSans-Bold-61" x="189.269531"/>
      <use xlink:href="#DejaVuSans-Bold-72" x="256.75"/>
      <use xlink:href="#DejaVuSans-Bold-61" x="306.066406"/>
      <use xlink:href="#DejaVuSans-Bold-6d" x="373.546875"/>
      <use xlink:href="#DejaVuSans-Bold-65" x="477.746094"/>
      <use xlink:href="#DejaVuSans-Bold-74" x="545.568359"/>
      <use xlink:href="#DejaVuSans-Bold-65" x="593.371094"/>
      <use xlink:href="#DejaVuSans-Bold-72" x="661.193359"/>
      <use xlink:href="#DejaVuSans-Bold-73" x="710.509766"/>
      <use xlink:href="#DejaVuSans-Bold-20" x="770.03125"/>
      <use xlink:href="#DejaVuSans-Bold-2f" x="804.845703"/>
      <use xlink:href="#DejaVuSans-Bold-20" x="841.369141"/>
      <use xlink:href="#DejaVuSans-Bold-23" x="876.183594"/>
      <use xlink:href="#DejaVuSans-Bold-20" x="959.972656"/>
      <use xlink:href="#DejaVuSans-Bold-48" x="994.787109"/>
      <use xlink:href="#DejaVuSans-Bold-69" x="1078.478516"/>
      <use xlink:href="#DejaVuSans-Bold-64" x="1112.755859"/>
      <use xlink:href="#DejaVuSans-Bold-64" x="1184.337891"/>
      <use xlink:href="#DejaVuSans-Bold-65" x="1255.919922"/>
      <use xlink:href="#DejaVuSans-Bold-6e" x="1323.742188"/>
      <use xlink:href="#DejaVuSans-Bold-20" x="1394.933594"/>
      <use xlink:href="#DejaVuSans-Bold-4e" x="1429.748047"/>
      <use xlink:href="#DejaVuSans-Bold-6f" x="1513.439453"/>
      <use xlink:href="#DejaVuSans-Bold-64" x="1582.140625"/>
      <use xlink:href="#DejaVuSans-Bold-65" x="1653.722656"/>
      <use xlink:href="#DejaVuSans-Bold-73" x="1721.544922"/>
     </g>
    </g>
   </g>
   <g id="matplotlib.axis_2">
    <g id="ytick_1">
     <g id="line2d_10">
      <defs>
       <path id="m4dde89c1bd" d="M 0 0 
L -3.5 0 
" style="stroke: #000000; stroke-width: 0.8"/>
      </defs>
      <g>
       <use xlink:href="#m4dde89c1bd" x="47.18" y="205.297576" style="stroke: #000000; stroke-width: 0.8"/>
      </g>
     </g>
     <g id="text_11">
      <!--     0 -->
      <g transform="translate(21.105 209.096795)scale(0.1 -0.1)">
       <defs>
        <path id="DejaVuSans-20" transform="scale(0.015625)"/>
       </defs>
       <use xlink:href="#DejaVuSans-20"/>
       <use xlink:href="#DejaVuSans-20" x="31.787109"/>
       <use xlink:href="#DejaVuSans-20" x="63.574219"/>
       <use xlink:href="#DejaVuSans-20" x="95.361328"/>
       <use xlink:href="#DejaVuSans-30" x="127.148438"/>
      </g>
     </g>
    </g>
    <g id="ytick_2">
     <g id="line2d_11">
      <g>
       <use xlink:href="#m4dde89c1bd" x="47.18" y="142.129091" style="stroke: #000000; stroke-width: 0.8"/>
      </g>
     </g>
     <g id="text_12">
      <!--     20 -->
      <g transform="translate(14.7425 145.92831)scale(0.1 -0.1)">
       <use xlink:href="#DejaVuSans-20"/>
       <use xlink:href="#DejaVuSans-20" x="31.787109"/>
       <use xlink:href="#DejaVuSans-20" x="63.574219"/>
       <use xlink:href="#DejaVuSans-20" x="95.361328"/>
       <use xlink:href="#DejaVuSans-32" x="127.148438"/>
       <use xlink:href="#DejaVuSans-30" x="190.771484"/>
      </g>
     </g>
    </g>
    <g id="ytick_3">
     <g id="line2d_12">
      <g>
       <use xlink:href="#m4dde89c1bd" x="47.18" y="78.960606" style="stroke: #000000; stroke-width: 0.8"/>
      </g>
     </g>
     <g id="text_13">
      <!--     40 -->
      <g transform="translate(14.7425 82.759825)scale(0.1 -0.1)">
       <use xlink:href="#DejaVuSans-20"/>
       <use xlink:href="#DejaVuSans-20" x="31.787109"/>
       <use xlink:href="#DejaVuSans-20" x="63.574219"/>
       <use xlink:href="#DejaVuSans-20" x="95.361328"/>
       <use xlink:href="#DejaVuSans-34" x="127.148438"/>
       <use xlink:href="#DejaVuSans-30" x="190.771484"/>
      </g>
     </g>
    </g>
    <g id="ytick_4">
     <g id="line2d_13">
      <g>
       <use xlink:href="#m4dde89c1bd" x="47.18" y="15.792121" style="stroke: #000000; stroke-width: 0.8"/>
      </g>
     </g>
     <g id="text_14">
      <!--     60 -->
      <g transform="translate(14.7425 19.59134)scale(0.1 -0.1)">
       <use xlink:href="#DejaVuSans-20"/>
       <use xlink:href="#DejaVuSans-20" x="31.787109"/>
       <use xlink:href="#DejaVuSans-20" x="63.574219"/>
       <use xlink:href="#DejaVuSans-20" x="95.361328"/>
       <use xlink:href="#DejaVuSans-36" x="127.148438"/>
       <use xlink:href="#DejaVuSans-30" x="190.771484"/>
      </g>
     </g>
    </g>
    <g id="text_15">
     <!-- Zero-One Loss (%) -->
     <g transform="translate(8.454844 161.239797)rotate(-90)scale(0.11 -0.11)">
      <defs>
       <path id="DejaVuSans-Bold-5a" d="M 359 4666 
L 4281 4666 
L 4281 3938 
L 1778 909 
L 4353 909 
L 4353 0 
L 288 0 
L 288 728 
L 2791 3756 
L 359 3756 
L 359 4666 
z
" transform="scale(0.015625)"/>
       <path id="DejaVuSans-Bold-2d" d="M 347 2297 
L 2309 2297 
L 2309 1388 
L 347 1388 
L 347 2297 
z
" transform="scale(0.015625)"/>
       <path id="DejaVuSans-Bold-4f" d="M 2719 3878 
Q 2169 3878 1866 3472 
Q 1563 3066 1563 2328 
Q 1563 1594 1866 1187 
Q 2169 781 2719 781 
Q 3272 781 3575 1187 
Q 3878 1594 3878 2328 
Q 3878 3066 3575 3472 
Q 3272 3878 2719 3878 
z
M 2719 4750 
Q 3844 4750 4481 4106 
Q 5119 3463 5119 2328 
Q 5119 1197 4481 553 
Q 3844 -91 2719 -91 
Q 1597 -91 958 553 
Q 319 1197 319 2328 
Q 319 3463 958 4106 
Q 1597 4750 2719 4750 
z
" transform="scale(0.015625)"/>
       <path id="DejaVuSans-Bold-4c" d="M 588 4666 
L 1791 4666 
L 1791 909 
L 3903 909 
L 3903 0 
L 588 0 
L 588 4666 
z
" transform="scale(0.015625)"/>
       <path id="DejaVuSans-Bold-28" d="M 2413 -844 
L 1484 -844 
Q 1006 -72 778 623 
Q 550 1319 550 2003 
Q 550 2688 779 3389 
Q 1009 4091 1484 4856 
L 2413 4856 
Q 2013 4116 1813 3408 
Q 1613 2700 1613 2009 
Q 1613 1319 1811 609 
Q 2009 -100 2413 -844 
z
" transform="scale(0.015625)"/>
       <path id="DejaVuSans-Bold-25" d="M 4959 1925 
Q 4738 1925 4616 1733 
Q 4494 1541 4494 1184 
Q 4494 825 4614 633 
Q 4734 441 4959 441 
Q 5184 441 5303 633 
Q 5422 825 5422 1184 
Q 5422 1541 5301 1733 
Q 5181 1925 4959 1925 
z
M 4959 2450 
Q 5541 2450 5875 2112 
Q 6209 1775 6209 1184 
Q 6209 594 5875 251 
Q 5541 -91 4959 -91 
Q 4378 -91 4042 251 
Q 3706 594 3706 1184 
Q 3706 1772 4042 2111 
Q 4378 2450 4959 2450 
z
M 2094 -91 
L 1403 -91 
L 4319 4750 
L 5013 4750 
L 2094 -91 
z
M 1453 4750 
Q 2034 4750 2367 4411 
Q 2700 4072 2700 3481 
Q 2700 2891 2367 2550 
Q 2034 2209 1453 2209 
Q 872 2209 539 2550 
Q 206 2891 206 3481 
Q 206 4072 539 4411 
Q 872 4750 1453 4750 
z
M 1453 4225 
Q 1228 4225 1106 4031 
Q 984 3838 984 3481 
Q 984 3122 1106 2926 
Q 1228 2731 1453 2731 
Q 1678 2731 1798 2926 
Q 1919 3122 1919 3481 
Q 1919 3838 1797 4031 
Q 1675 4225 1453 4225 
z
" transform="scale(0.015625)"/>
       <path id="DejaVuSans-Bold-29" d="M 513 -844 
Q 913 -100 1113 609 
Q 1313 1319 1313 2009 
Q 1313 2700 1113 3408 
Q 913 4116 513 4856 
L 1441 4856 
Q 1916 4091 2145 3389 
Q 2375 2688 2375 2003 
Q 2375 1319 2147 623 
Q 1919 -72 1441 -844 
L 513 -844 
z
" transform="scale(0.015625)"/>
      </defs>
      <use xlink:href="#DejaVuSans-Bold-5a"/>
      <use xlink:href="#DejaVuSans-Bold-65" x="72.509766"/>
      <use xlink:href="#DejaVuSans-Bold-72" x="140.332031"/>
      <use xlink:href="#DejaVuSans-Bold-6f" x="189.648438"/>
      <use xlink:href="#DejaVuSans-Bold-2d" x="258.349609"/>
      <use xlink:href="#DejaVuSans-Bold-4f" x="299.853516"/>
      <use xlink:href="#DejaVuSans-Bold-6e" x="384.863281"/>
      <use xlink:href="#DejaVuSans-Bold-65" x="456.054688"/>
      <use xlink:href="#DejaVuSans-Bold-20" x="523.876953"/>
      <use xlink:href="#DejaVuSans-Bold-4c" x="558.691406"/>
      <use xlink:href="#DejaVuSans-Bold-6f" x="622.412109"/>
      <use xlink:href="#DejaVuSans-Bold-73" x="691.113281"/>
      <use xlink:href="#DejaVuSans-Bold-73" x="750.634766"/>
      <use xlink:href="#DejaVuSans-Bold-20" x="810.15625"/>
      <use xlink:href="#DejaVuSans-Bold-28" x="844.970703"/>
      <use xlink:href="#DejaVuSans-Bold-25" x="890.673828"/>
      <use xlink:href="#DejaVuSans-Bold-29" x="990.869141"/>
     </g>
    </g>
   </g>
   <g id="line2d_14">
    <path d="M 303.492381 208.456 
L 303.492381 0 
" clip-path="url(#p192f642adf)" style="fill: none; stroke-dasharray: 9.25,4; stroke-dashoffset: 0; stroke: #000000; stroke-width: 2.5"/>
   </g>
   <g id="line2d_15">
    <path d="M 47.18 205.297576 
L 720 205.297576 
" clip-path="url(#p192f642adf)" style="fill: none; stroke-dasharray: 3.7,1.6; stroke-dashoffset: 0; stroke: #808080"/>
   </g>
   <g id="line2d_16">
    <path d="M 182.713527 -1 
L 189.881918 47.455324 
L 200.070335 48.655525 
L 210.258752 54.672324 
L 220.44717 72.533213 
L 230.635587 81.850564 
L 240.824004 38.374855 
L 251.012421 78.171 
L 256.10663 82.86126 
L 261.200838 58.778275 
L 266.295047 112.818914 
L 271.389255 106.565234 
L 276.483464 92.936633 
L 281.577672 89.493951 
L 286.671881 115.851001 
L 291.76609 110.829107 
L 296.860298 98.448084 
L 301.954507 112.234605 
L 307.048715 117.319668 
L 312.142924 122.404732 
L 317.237132 115.566743 
L 322.331341 129.400641 
L 327.42555 134.280407 
L 332.519758 139.302301 
L 337.613967 142.697607 
L 342.708175 138.607448 
L 347.802384 135.764866 
L 352.896592 134.390952 
L 378.367635 147.403659 
L 403.838678 154.604867 
L 429.309721 149.440843 
L 454.780764 158.079133 
L 480.251807 157.842252 
L 505.72285 160.258446 
L 531.193892 161.25335 
L 556.664935 161.569192 
L 582.135978 164.032763 
L 607.607021 165.454054 
L 633.078064 167.80708 
L 658.549107 167.538614 
L 684.02015 168.280844 
L 709.491192 171.312931 
L 721 171.384286 
" clip-path="url(#p192f642adf)" style="fill: none; stroke: #ff7f0e; stroke-linecap: square"/>
    <defs>
     <path id="me0c271f69f" d="M 0 2.12132 
L 2.12132 0 
L 0 -2.12132 
L -2.12132 0 
z
" style="stroke: #ff7f0e; stroke-linejoin: miter"/>
    </defs>
    <g clip-path="url(#p192f642adf)">
     <use xlink:href="#me0c271f69f" x="182.713527" y="-1" style="fill: #ff7f0e; stroke: #ff7f0e; stroke-linejoin: miter"/>
     <use xlink:href="#me0c271f69f" x="189.881918" y="47.455324" style="fill: #ff7f0e; stroke: #ff7f0e; stroke-linejoin: miter"/>
     <use xlink:href="#me0c271f69f" x="200.070335" y="48.655525" style="fill: #ff7f0e; stroke: #ff7f0e; stroke-linejoin: miter"/>
     <use xlink:href="#me0c271f69f" x="210.258752" y="54.672324" style="fill: #ff7f0e; stroke: #ff7f0e; stroke-linejoin: miter"/>
     <use xlink:href="#me0c271f69f" x="220.44717" y="72.533213" style="fill: #ff7f0e; stroke: #ff7f0e; stroke-linejoin: miter"/>
     <use xlink:href="#me0c271f69f" x="230.635587" y="81.850564" style="fill: #ff7f0e; stroke: #ff7f0e; stroke-linejoin: miter"/>
     <use xlink:href="#me0c271f69f" x="240.824004" y="38.374855" style="fill: #ff7f0e; stroke: #ff7f0e; stroke-linejoin: miter"/>
     <use xlink:href="#me0c271f69f" x="251.012421" y="78.171" style="fill: #ff7f0e; stroke: #ff7f0e; stroke-linejoin: miter"/>
     <use xlink:href="#me0c271f69f" x="256.10663" y="82.86126" style="fill: #ff7f0e; stroke: #ff7f0e; stroke-linejoin: miter"/>
     <use xlink:href="#me0c271f69f" x="261.200838" y="58.778275" style="fill: #ff7f0e; stroke: #ff7f0e; stroke-linejoin: miter"/>
     <use xlink:href="#me0c271f69f" x="266.295047" y="112.818914" style="fill: #ff7f0e; stroke: #ff7f0e; stroke-linejoin: miter"/>
     <use xlink:href="#me0c271f69f" x="271.389255" y="106.565234" style="fill: #ff7f0e; stroke: #ff7f0e; stroke-linejoin: miter"/>
     <use xlink:href="#me0c271f69f" x="276.483464" y="92.936633" style="fill: #ff7f0e; stroke: #ff7f0e; stroke-linejoin: miter"/>
     <use xlink:href="#me0c271f69f" x="281.577672" y="89.493951" style="fill: #ff7f0e; stroke: #ff7f0e; stroke-linejoin: miter"/>
     <use xlink:href="#me0c271f69f" x="286.671881" y="115.851001" style="fill: #ff7f0e; stroke: #ff7f0e; stroke-linejoin: miter"/>
     <use xlink:href="#me0c271f69f" x="291.76609" y="110.829107" style="fill: #ff7f0e; stroke: #ff7f0e; stroke-linejoin: miter"/>
     <use xlink:href="#me0c271f69f" x="296.860298" y="98.448084" style="fill: #ff7f0e; stroke: #ff7f0e; stroke-linejoin: miter"/>
     <use xlink:href="#me0c271f69f" x="301.954507" y="112.234605" style="fill: #ff7f0e; stroke: #ff7f0e; stroke-linejoin: miter"/>
     <use xlink:href="#me0c271f69f" x="307.048715" y="117.319668" style="fill: #ff7f0e; stroke: #ff7f0e; stroke-linejoin: miter"/>
     <use xlink:href="#me0c271f69f" x="312.142924" y="122.404732" style="fill: #ff7f0e; stroke: #ff7f0e; stroke-linejoin: miter"/>
     <use xlink:href="#me0c271f69f" x="317.237132" y="115.566743" style="fill: #ff7f0e; stroke: #ff7f0e; stroke-linejoin: miter"/>
     <use xlink:href="#me0c271f69f" x="322.331341" y="129.400641" style="fill: #ff7f0e; stroke: #ff7f0e; stroke-linejoin: miter"/>
     <use xlink:href="#me0c271f69f" x="327.42555" y="134.280407" style="fill: #ff7f0e; stroke: #ff7f0e; stroke-linejoin: miter"/>
     <use xlink:href="#me0c271f69f" x="332.519758" y="139.302301" style="fill: #ff7f0e; stroke: #ff7f0e; stroke-linejoin: miter"/>
     <use xlink:href="#me0c271f69f" x="337.613967" y="142.697607" style="fill: #ff7f0e; stroke: #ff7f0e; stroke-linejoin: miter"/>
     <use xlink:href="#me0c271f69f" x="342.708175" y="138.607448" style="fill: #ff7f0e; stroke: #ff7f0e; stroke-linejoin: miter"/>
     <use xlink:href="#me0c271f69f" x="347.802384" y="135.764866" style="fill: #ff7f0e; stroke: #ff7f0e; stroke-linejoin: miter"/>
     <use xlink:href="#me0c271f69f" x="352.896592" y="134.390952" style="fill: #ff7f0e; stroke: #ff7f0e; stroke-linejoin: miter"/>
     <use xlink:href="#me0c271f69f" x="378.367635" y="147.403659" style="fill: #ff7f0e; stroke: #ff7f0e; stroke-linejoin: miter"/>
     <use xlink:href="#me0c271f69f" x="403.838678" y="154.604867" style="fill: #ff7f0e; stroke: #ff7f0e; stroke-linejoin: miter"/>
     <use xlink:href="#me0c271f69f" x="429.309721" y="149.440843" style="fill: #ff7f0e; stroke: #ff7f0e; stroke-linejoin: miter"/>
     <use xlink:href="#me0c271f69f" x="454.780764" y="158.079133" style="fill: #ff7f0e; stroke: #ff7f0e; stroke-linejoin: miter"/>
     <use xlink:href="#me0c271f69f" x="480.251807" y="157.842252" style="fill: #ff7f0e; stroke: #ff7f0e; stroke-linejoin: miter"/>
     <use xlink:href="#me0c271f69f" x="505.72285" y="160.258446" style="fill: #ff7f0e; stroke: #ff7f0e; stroke-linejoin: miter"/>
     <use xlink:href="#me0c271f69f" x="531.193892" y="161.25335" style="fill: #ff7f0e; stroke: #ff7f0e; stroke-linejoin: miter"/>
     <use xlink:href="#me0c271f69f" x="556.664935" y="161.569192" style="fill: #ff7f0e; stroke: #ff7f0e; stroke-linejoin: miter"/>
     <use xlink:href="#me0c271f69f" x="582.135978" y="164.032763" style="fill: #ff7f0e; stroke: #ff7f0e; stroke-linejoin: miter"/>
     <use xlink:href="#me0c271f69f" x="607.607021" y="165.454054" style="fill: #ff7f0e; stroke: #ff7f0e; stroke-linejoin: miter"/>
     <use xlink:href="#me0c271f69f" x="633.078064" y="167.80708" style="fill: #ff7f0e; stroke: #ff7f0e; stroke-linejoin: miter"/>
     <use xlink:href="#me0c271f69f" x="658.549107" y="167.538614" style="fill: #ff7f0e; stroke: #ff7f0e; stroke-linejoin: miter"/>
     <use xlink:href="#me0c271f69f" x="684.02015" y="168.280844" style="fill: #ff7f0e; stroke: #ff7f0e; stroke-linejoin: miter"/>
     <use xlink:href="#me0c271f69f" x="709.491192" y="171.312931" style="fill: #ff7f0e; stroke: #ff7f0e; stroke-linejoin: miter"/>
     <use xlink:href="#me0c271f69f" x="734.962235" y="171.470852" style="fill: #ff7f0e; stroke: #ff7f0e; stroke-linejoin: miter"/>
     <use xlink:href="#me0c271f69f" x="760.433278" y="170.065353" style="fill: #ff7f0e; stroke: #ff7f0e; stroke-linejoin: miter"/>
     <use xlink:href="#me0c271f69f" x="785.904321" y="171.881447" style="fill: #ff7f0e; stroke: #ff7f0e; stroke-linejoin: miter"/>
     <use xlink:href="#me0c271f69f" x="811.375364" y="173.697541" style="fill: #ff7f0e; stroke: #ff7f0e; stroke-linejoin: miter"/>
    </g>
   </g>
   <g id="line2d_17">
    <path d="M 185.185338 -1 
L 189.881918 21.957365 
L 200.070335 28.147877 
L 210.258752 30.409309 
L 220.44717 42.594509 
L 230.635587 48.734486 
L 240.824004 19.986509 
L 251.012421 48.500763 
L 256.10663 51.179106 
L 261.200838 34.546844 
L 266.295047 71.487774 
L 271.389255 69.403214 
L 276.483464 57.856015 
L 281.577672 56.365239 
L 286.671881 72.517421 
L 291.76609 72.864847 
L 296.860298 64.615043 
L 301.954507 73.477582 
L 307.048715 75.631627 
L 312.142924 77.153987 
L 317.237132 75.903251 
L 322.331341 89.661347 
L 327.42555 86.862984 
L 332.519758 97.203664 
L 337.613967 93.912586 
L 342.708175 94.891698 
L 347.802384 90.488855 
L 352.896592 85.751218 
L 378.367635 99.193472 
L 403.838678 111.271286 
L 429.309721 106.824225 
L 454.780764 114.246522 
L 480.251807 115.857318 
L 505.72285 118.965208 
L 531.193892 127.49927 
L 556.664935 122.818485 
L 582.135978 130.221832 
L 607.607021 128.522599 
L 633.078064 137.164048 
L 658.549107 136.203887 
L 684.02015 133.721366 
L 709.491192 139.153855 
L 721 138.494536 
" clip-path="url(#p192f642adf)" style="fill: none; stroke: #1f77b4; stroke-linecap: square"/>
    <defs>
     <path id="m718c9bf0e4" d="M 0 2.12132 
L 2.12132 0 
L 0 -2.12132 
L -2.12132 0 
z
" style="stroke: #1f77b4; stroke-linejoin: miter"/>
    </defs>
    <g clip-path="url(#p192f642adf)">
     <use xlink:href="#m718c9bf0e4" x="185.185338" y="-1" style="fill: #1f77b4; stroke: #1f77b4; stroke-linejoin: miter"/>
     <use xlink:href="#m718c9bf0e4" x="189.881918" y="21.957365" style="fill: #1f77b4; stroke: #1f77b4; stroke-linejoin: miter"/>
     <use xlink:href="#m718c9bf0e4" x="200.070335" y="28.147877" style="fill: #1f77b4; stroke: #1f77b4; stroke-linejoin: miter"/>
     <use xlink:href="#m718c9bf0e4" x="210.258752" y="30.409309" style="fill: #1f77b4; stroke: #1f77b4; stroke-linejoin: miter"/>
     <use xlink:href="#m718c9bf0e4" x="220.44717" y="42.594509" style="fill: #1f77b4; stroke: #1f77b4; stroke-linejoin: miter"/>
     <use xlink:href="#m718c9bf0e4" x="230.635587" y="48.734486" style="fill: #1f77b4; stroke: #1f77b4; stroke-linejoin: miter"/>
     <use xlink:href="#m718c9bf0e4" x="240.824004" y="19.986509" style="fill: #1f77b4; stroke: #1f77b4; stroke-linejoin: miter"/>
     <use xlink:href="#m718c9bf0e4" x="251.012421" y="48.500763" style="fill: #1f77b4; stroke: #1f77b4; stroke-linejoin: miter"/>
     <use xlink:href="#m718c9bf0e4" x="256.10663" y="51.179106" style="fill: #1f77b4; stroke: #1f77b4; stroke-linejoin: miter"/>
     <use xlink:href="#m718c9bf0e4" x="261.200838" y="34.546844" style="fill: #1f77b4; stroke: #1f77b4; stroke-linejoin: miter"/>
     <use xlink:href="#m718c9bf0e4" x="266.295047" y="71.487774" style="fill: #1f77b4; stroke: #1f77b4; stroke-linejoin: miter"/>
     <use xlink:href="#m718c9bf0e4" x="271.389255" y="69.403214" style="fill: #1f77b4; stroke: #1f77b4; stroke-linejoin: miter"/>
     <use xlink:href="#m718c9bf0e4" x="276.483464" y="57.856015" style="fill: #1f77b4; stroke: #1f77b4; stroke-linejoin: miter"/>
     <use xlink:href="#m718c9bf0e4" x="281.577672" y="56.365239" style="fill: #1f77b4; stroke: #1f77b4; stroke-linejoin: miter"/>
     <use xlink:href="#m718c9bf0e4" x="286.671881" y="72.517421" style="fill: #1f77b4; stroke: #1f77b4; stroke-linejoin: miter"/>
     <use xlink:href="#m718c9bf0e4" x="291.76609" y="72.864847" style="fill: #1f77b4; stroke: #1f77b4; stroke-linejoin: miter"/>
     <use xlink:href="#m718c9bf0e4" x="296.860298" y="64.615043" style="fill: #1f77b4; stroke: #1f77b4; stroke-linejoin: miter"/>
     <use xlink:href="#m718c9bf0e4" x="301.954507" y="73.477582" style="fill: #1f77b4; stroke: #1f77b4; stroke-linejoin: miter"/>
     <use xlink:href="#m718c9bf0e4" x="307.048715" y="75.631627" style="fill: #1f77b4; stroke: #1f77b4; stroke-linejoin: miter"/>
     <use xlink:href="#m718c9bf0e4" x="312.142924" y="77.153987" style="fill: #1f77b4; stroke: #1f77b4; stroke-linejoin: miter"/>
     <use xlink:href="#m718c9bf0e4" x="317.237132" y="75.903251" style="fill: #1f77b4; stroke: #1f77b4; stroke-linejoin: miter"/>
     <use xlink:href="#m718c9bf0e4" x="322.331341" y="89.661347" style="fill: #1f77b4; stroke: #1f77b4; stroke-linejoin: miter"/>
     <use xlink:href="#m718c9bf0e4" x="327.42555" y="86.862984" style="fill: #1f77b4; stroke: #1f77b4; stroke-linejoin: miter"/>
     <use xlink:href="#m718c9bf0e4" x="332.519758" y="97.203664" style="fill: #1f77b4; stroke: #1f77b4; stroke-linejoin: miter"/>
     <use xlink:href="#m718c9bf0e4" x="337.613967" y="93.912586" style="fill: #1f77b4; stroke: #1f77b4; stroke-linejoin: miter"/>
     <use xlink:href="#m718c9bf0e4" x="342.708175" y="94.891698" style="fill: #1f77b4; stroke: #1f77b4; stroke-linejoin: miter"/>
     <use xlink:href="#m718c9bf0e4" x="347.802384" y="90.488855" style="fill: #1f77b4; stroke: #1f77b4; stroke-linejoin: miter"/>
     <use xlink:href="#m718c9bf0e4" x="352.896592" y="85.751218" style="fill: #1f77b4; stroke: #1f77b4; stroke-linejoin: miter"/>
     <use xlink:href="#m718c9bf0e4" x="378.367635" y="99.193472" style="fill: #1f77b4; stroke: #1f77b4; stroke-linejoin: miter"/>
     <use xlink:href="#m718c9bf0e4" x="403.838678" y="111.271286" style="fill: #1f77b4; stroke: #1f77b4; stroke-linejoin: miter"/>
     <use xlink:href="#m718c9bf0e4" x="429.309721" y="106.824225" style="fill: #1f77b4; stroke: #1f77b4; stroke-linejoin: miter"/>
     <use xlink:href="#m718c9bf0e4" x="454.780764" y="114.246522" style="fill: #1f77b4; stroke: #1f77b4; stroke-linejoin: miter"/>
     <use xlink:href="#m718c9bf0e4" x="480.251807" y="115.857318" style="fill: #1f77b4; stroke: #1f77b4; stroke-linejoin: miter"/>
     <use xlink:href="#m718c9bf0e4" x="505.72285" y="118.965208" style="fill: #1f77b4; stroke: #1f77b4; stroke-linejoin: miter"/>
     <use xlink:href="#m718c9bf0e4" x="531.193892" y="127.49927" style="fill: #1f77b4; stroke: #1f77b4; stroke-linejoin: miter"/>
     <use xlink:href="#m718c9bf0e4" x="556.664935" y="122.818485" style="fill: #1f77b4; stroke: #1f77b4; stroke-linejoin: miter"/>
     <use xlink:href="#m718c9bf0e4" x="582.135978" y="130.221832" style="fill: #1f77b4; stroke: #1f77b4; stroke-linejoin: miter"/>
     <use xlink:href="#m718c9bf0e4" x="607.607021" y="128.522599" style="fill: #1f77b4; stroke: #1f77b4; stroke-linejoin: miter"/>
     <use xlink:href="#m718c9bf0e4" x="633.078064" y="137.164048" style="fill: #1f77b4; stroke: #1f77b4; stroke-linejoin: miter"/>
     <use xlink:href="#m718c9bf0e4" x="658.549107" y="136.203887" style="fill: #1f77b4; stroke: #1f77b4; stroke-linejoin: miter"/>
     <use xlink:href="#m718c9bf0e4" x="684.02015" y="133.721366" style="fill: #1f77b4; stroke: #1f77b4; stroke-linejoin: miter"/>
     <use xlink:href="#m718c9bf0e4" x="709.491192" y="139.153855" style="fill: #1f77b4; stroke: #1f77b4; stroke-linejoin: miter"/>
     <use xlink:href="#m718c9bf0e4" x="734.962235" y="137.694663" style="fill: #1f77b4; stroke: #1f77b4; stroke-linejoin: miter"/>
     <use xlink:href="#m718c9bf0e4" x="760.433278" y="138.414784" style="fill: #1f77b4; stroke: #1f77b4; stroke-linejoin: miter"/>
     <use xlink:href="#m718c9bf0e4" x="785.904321" y="140.859404" style="fill: #1f77b4; stroke: #1f77b4; stroke-linejoin: miter"/>
     <use xlink:href="#m718c9bf0e4" x="811.375364" y="141.535307" style="fill: #1f77b4; stroke: #1f77b4; stroke-linejoin: miter"/>
    </g>
   </g>
   <g id="patch_3">
    <path d="M 47.18 208.456 
L 47.18 0 
" style="fill: none; stroke: #000000; stroke-width: 0.8; stroke-linejoin: miter; stroke-linecap: square"/>
   </g>
   <g id="patch_4">
    <path d="M 720 208.456 
L 720 0 
" style="fill: none; stroke: #000000; stroke-width: 0.8; stroke-linejoin: miter; stroke-linecap: square"/>
   </g>
   <g id="patch_5">
    <path d="M 47.18 208.456 
L 720 208.456 
" style="fill: none; stroke: #000000; stroke-width: 0.8; stroke-linejoin: miter; stroke-linecap: square"/>
   </g>
   <g id="patch_6">
    <path d="M 47.18 0 
L 720 0 
" style="fill: none; stroke: #000000; stroke-width: 0.8; stroke-linejoin: miter; stroke-linecap: square"/>
   </g>
   <g id="legend_1">
    <g id="patch_7">
     <path d="M 564.545313 52.034375 
L 713 52.034375 
Q 715 52.034375 715 50.034375 
L 715 7 
Q 715 5 713 5 
L 564.545313 5 
Q 562.545313 5 562.545313 7 
L 562.545313 50.034375 
Q 562.545313 52.034375 564.545313 52.034375 
z
" style="fill: #ffffff; opacity: 0.8; stroke: #cccccc; stroke-linejoin: miter"/>
    </g>
    <g id="line2d_18">
     <path d="M 566.545313 13.098438 
L 576.545313 13.098438 
L 586.545313 13.098438 
" style="fill: none; stroke-dasharray: 9.25,4; stroke-dashoffset: 0; stroke: #000000; stroke-width: 2.5"/>
    </g>
    <g id="text_16">
     <!-- Interpolation Threshold -->
     <g transform="translate(594.545313 16.598438)scale(0.1 -0.1)">
      <defs>
       <path id="DejaVuSans-49" d="M 628 4666 
L 1259 4666 
L 1259 0 
L 628 0 
L 628 4666 
z
" transform="scale(0.015625)"/>
       <path id="DejaVuSans-6e" d="M 3513 2113 
L 3513 0 
L 2938 0 
L 2938 2094 
Q 2938 2591 2744 2837 
Q 2550 3084 2163 3084 
Q 1697 3084 1428 2787 
Q 1159 2491 1159 1978 
L 1159 0 
L 581 0 
L 581 3500 
L 1159 3500 
L 1159 2956 
Q 1366 3272 1645 3428 
Q 1925 3584 2291 3584 
Q 2894 3584 3203 3211 
Q 3513 2838 3513 2113 
z
" transform="scale(0.015625)"/>
       <path id="DejaVuSans-74" d="M 1172 4494 
L 1172 3500 
L 2356 3500 
L 2356 3053 
L 1172 3053 
L 1172 1153 
Q 1172 725 1289 603 
Q 1406 481 1766 481 
L 2356 481 
L 2356 0 
L 1766 0 
Q 1100 0 847 248 
Q 594 497 594 1153 
L 594 3053 
L 172 3053 
L 172 3500 
L 594 3500 
L 594 4494 
L 1172 4494 
z
" transform="scale(0.015625)"/>
       <path id="DejaVuSans-65" d="M 3597 1894 
L 3597 1613 
L 953 1613 
Q 991 1019 1311 708 
Q 1631 397 2203 397 
Q 2534 397 2845 478 
Q 3156 559 3463 722 
L 3463 178 
Q 3153 47 2828 -22 
Q 2503 -91 2169 -91 
Q 1331 -91 842 396 
Q 353 884 353 1716 
Q 353 2575 817 3079 
Q 1281 3584 2069 3584 
Q 2775 3584 3186 3129 
Q 3597 2675 3597 1894 
z
M 3022 2063 
Q 3016 2534 2758 2815 
Q 2500 3097 2075 3097 
Q 1594 3097 1305 2825 
Q 1016 2553 972 2059 
L 3022 2063 
z
" transform="scale(0.015625)"/>
       <path id="DejaVuSans-72" d="M 2631 2963 
Q 2534 3019 2420 3045 
Q 2306 3072 2169 3072 
Q 1681 3072 1420 2755 
Q 1159 2438 1159 1844 
L 1159 0 
L 581 0 
L 581 3500 
L 1159 3500 
L 1159 2956 
Q 1341 3275 1631 3429 
Q 1922 3584 2338 3584 
Q 2397 3584 2469 3576 
Q 2541 3569 2628 3553 
L 2631 2963 
z
" transform="scale(0.015625)"/>
       <path id="DejaVuSans-70" d="M 1159 525 
L 1159 -1331 
L 581 -1331 
L 581 3500 
L 1159 3500 
L 1159 2969 
Q 1341 3281 1617 3432 
Q 1894 3584 2278 3584 
Q 2916 3584 3314 3078 
Q 3713 2572 3713 1747 
Q 3713 922 3314 415 
Q 2916 -91 2278 -91 
Q 1894 -91 1617 61 
Q 1341 213 1159 525 
z
M 3116 1747 
Q 3116 2381 2855 2742 
Q 2594 3103 2138 3103 
Q 1681 3103 1420 2742 
Q 1159 2381 1159 1747 
Q 1159 1113 1420 752 
Q 1681 391 2138 391 
Q 2594 391 2855 752 
Q 3116 1113 3116 1747 
z
" transform="scale(0.015625)"/>
       <path id="DejaVuSans-6f" d="M 1959 3097 
Q 1497 3097 1228 2736 
Q 959 2375 959 1747 
Q 959 1119 1226 758 
Q 1494 397 1959 397 
Q 2419 397 2687 759 
Q 2956 1122 2956 1747 
Q 2956 2369 2687 2733 
Q 2419 3097 1959 3097 
z
M 1959 3584 
Q 2709 3584 3137 3096 
Q 3566 2609 3566 1747 
Q 3566 888 3137 398 
Q 2709 -91 1959 -91 
Q 1206 -91 779 398 
Q 353 888 353 1747 
Q 353 2609 779 3096 
Q 1206 3584 1959 3584 
z
" transform="scale(0.015625)"/>
       <path id="DejaVuSans-6c" d="M 603 4863 
L 1178 4863 
L 1178 0 
L 603 0 
L 603 4863 
z
" transform="scale(0.015625)"/>
       <path id="DejaVuSans-61" d="M 2194 1759 
Q 1497 1759 1228 1600 
Q 959 1441 959 1056 
Q 959 750 1161 570 
Q 1363 391 1709 391 
Q 2188 391 2477 730 
Q 2766 1069 2766 1631 
L 2766 1759 
L 2194 1759 
z
M 3341 1997 
L 3341 0 
L 2766 0 
L 2766 531 
Q 2569 213 2275 61 
Q 1981 -91 1556 -91 
Q 1019 -91 701 211 
Q 384 513 384 1019 
Q 384 1609 779 1909 
Q 1175 2209 1959 2209 
L 2766 2209 
L 2766 2266 
Q 2766 2663 2505 2880 
Q 2244 3097 1772 3097 
Q 1472 3097 1187 3025 
Q 903 2953 641 2809 
L 641 3341 
Q 956 3463 1253 3523 
Q 1550 3584 1831 3584 
Q 2591 3584 2966 3190 
Q 3341 2797 3341 1997 
z
" transform="scale(0.015625)"/>
       <path id="DejaVuSans-69" d="M 603 3500 
L 1178 3500 
L 1178 0 
L 603 0 
L 603 3500 
z
M 603 4863 
L 1178 4863 
L 1178 4134 
L 603 4134 
L 603 4863 
z
" transform="scale(0.015625)"/>
       <path id="DejaVuSans-54" d="M -19 4666 
L 3928 4666 
L 3928 4134 
L 2272 4134 
L 2272 0 
L 1638 0 
L 1638 4134 
L -19 4134 
L -19 4666 
z
" transform="scale(0.015625)"/>
       <path id="DejaVuSans-68" d="M 3513 2113 
L 3513 0 
L 2938 0 
L 2938 2094 
Q 2938 2591 2744 2837 
Q 2550 3084 2163 3084 
Q 1697 3084 1428 2787 
Q 1159 2491 1159 1978 
L 1159 0 
L 581 0 
L 581 4863 
L 1159 4863 
L 1159 2956 
Q 1366 3272 1645 3428 
Q 1925 3584 2291 3584 
Q 2894 3584 3203 3211 
Q 3513 2838 3513 2113 
z
" transform="scale(0.015625)"/>
       <path id="DejaVuSans-73" d="M 2834 3397 
L 2834 2853 
Q 2591 2978 2328 3040 
Q 2066 3103 1784 3103 
Q 1356 3103 1142 2972 
Q 928 2841 928 2578 
Q 928 2378 1081 2264 
Q 1234 2150 1697 2047 
L 1894 2003 
Q 2506 1872 2764 1633 
Q 3022 1394 3022 966 
Q 3022 478 2636 193 
Q 2250 -91 1575 -91 
Q 1294 -91 989 -36 
Q 684 19 347 128 
L 347 722 
Q 666 556 975 473 
Q 1284 391 1588 391 
Q 1994 391 2212 530 
Q 2431 669 2431 922 
Q 2431 1156 2273 1281 
Q 2116 1406 1581 1522 
L 1381 1569 
Q 847 1681 609 1914 
Q 372 2147 372 2553 
Q 372 3047 722 3315 
Q 1072 3584 1716 3584 
Q 2034 3584 2315 3537 
Q 2597 3491 2834 3397 
z
" transform="scale(0.015625)"/>
       <path id="DejaVuSans-64" d="M 2906 2969 
L 2906 4863 
L 3481 4863 
L 3481 0 
L 2906 0 
L 2906 525 
Q 2725 213 2448 61 
Q 2172 -91 1784 -91 
Q 1150 -91 751 415 
Q 353 922 353 1747 
Q 353 2572 751 3078 
Q 1150 3584 1784 3584 
Q 2172 3584 2448 3432 
Q 2725 3281 2906 2969 
z
M 947 1747 
Q 947 1113 1208 752 
Q 1469 391 1925 391 
Q 2381 391 2643 752 
Q 2906 1113 2906 1747 
Q 2906 2381 2643 2742 
Q 2381 3103 1925 3103 
Q 1469 3103 1208 2742 
Q 947 2381 947 1747 
z
" transform="scale(0.015625)"/>
      </defs>
      <use xlink:href="#DejaVuSans-49"/>
      <use xlink:href="#DejaVuSans-6e" x="29.492188"/>
      <use xlink:href="#DejaVuSans-74" x="92.871094"/>
      <use xlink:href="#DejaVuSans-65" x="132.080078"/>
      <use xlink:href="#DejaVuSans-72" x="193.603516"/>
      <use xlink:href="#DejaVuSans-70" x="234.716797"/>
      <use xlink:href="#DejaVuSans-6f" x="298.193359"/>
      <use xlink:href="#DejaVuSans-6c" x="359.375"/>
      <use xlink:href="#DejaVuSans-61" x="387.158203"/>
      <use xlink:href="#DejaVuSans-74" x="448.4375"/>
      <use xlink:href="#DejaVuSans-69" x="487.646484"/>
      <use xlink:href="#DejaVuSans-6f" x="515.429688"/>
      <use xlink:href="#DejaVuSans-6e" x="576.611328"/>
      <use xlink:href="#DejaVuSans-20" x="639.990234"/>
      <use xlink:href="#DejaVuSans-54" x="671.777344"/>
      <use xlink:href="#DejaVuSans-68" x="732.861328"/>
      <use xlink:href="#DejaVuSans-72" x="796.240234"/>
      <use xlink:href="#DejaVuSans-65" x="835.103516"/>
      <use xlink:href="#DejaVuSans-73" x="896.626953"/>
      <use xlink:href="#DejaVuSans-68" x="948.726562"/>
      <use xlink:href="#DejaVuSans-6f" x="1012.105469"/>
      <use xlink:href="#DejaVuSans-6c" x="1073.287109"/>
      <use xlink:href="#DejaVuSans-64" x="1101.070312"/>
     </g>
    </g>
    <g id="line2d_19">
     <path d="M 566.545313 27.776563 
L 576.545313 27.776563 
L 586.545313 27.776563 
" style="fill: none; stroke: #ff7f0e; stroke-linecap: square"/>
     <g>
      <use xlink:href="#me0c271f69f" x="576.545313" y="27.776563" style="fill: #ff7f0e; stroke: #ff7f0e; stroke-linejoin: miter"/>
     </g>
    </g>
    <g id="text_17">
     <!-- Train -->
     <g transform="translate(594.545313 31.276563)scale(0.1 -0.1)">
      <use xlink:href="#DejaVuSans-54"/>
      <use xlink:href="#DejaVuSans-72" x="46.333984"/>
      <use xlink:href="#DejaVuSans-61" x="87.447266"/>
      <use xlink:href="#DejaVuSans-69" x="148.726562"/>
      <use xlink:href="#DejaVuSans-6e" x="176.509766"/>
     </g>
    </g>
    <g id="line2d_20">
     <path d="M 566.545313 42.454688 
L 576.545313 42.454688 
L 586.545313 42.454688 
" style="fill: none; stroke: #1f77b4; stroke-linecap: square"/>
     <g>
      <use xlink:href="#m718c9bf0e4" x="576.545313" y="42.454688" style="fill: #1f77b4; stroke: #1f77b4; stroke-linejoin: miter"/>
     </g>
    </g>
    <g id="text_18">
     <!-- Test -->
     <g transform="translate(594.545313 45.954688)scale(0.1 -0.1)">
      <use xlink:href="#DejaVuSans-54"/>
      <use xlink:href="#DejaVuSans-65" x="44.083984"/>
      <use xlink:href="#DejaVuSans-73" x="105.607422"/>
      <use xlink:href="#DejaVuSans-74" x="157.707031"/>
     </g>
    </g>
   </g>
  </g>
 </g>
 <defs>
  <clipPath id="p192f642adf">
   <rect x="47.18" y="0" width="672.82" height="208.456"/>
  </clipPath>
 </defs>
</svg>
