<?xml version="1.0" encoding="utf-8" standalone="no"?>
<!DOCTYPE svg PUBLIC "-//W3C//DTD SVG 1.1//EN"
  "http://www.w3.org/Graphics/SVG/1.1/DTD/svg11.dtd">
<svg xmlns:xlink="http://www.w3.org/1999/xlink" width="720pt" height="252pt" viewBox="0 0 720 252" xmlns="http://www.w3.org/2000/svg" version="1.1">
 <metadata>
  <rdf:RDF xmlns:dc="http://purl.org/dc/elements/1.1/" xmlns:cc="http://creativecommons.org/ns#" xmlns:rdf="http://www.w3.org/1999/02/22-rdf-syntax-ns#">
   <cc:Work>
    <dc:type rdf:resource="http://purl.org/dc/dcmitype/StillImage"/>
    <dc:date>2023-08-15T22:38:17.440549</dc:date>
    <dc:format>image/svg+xml</dc:format>
    <dc:creator>
     <cc:Agent>
      <dc:title>Matplotlib v3.5.3, https://matplotlib.org/</dc:title>
     </cc:Agent>
    </dc:creator>
   </cc:Work>
  </rdf:RDF>
 </metadata>
 <defs>
  <style type="text/css">*{stroke-linejoin: round; stroke-linecap: butt}</style>
 </defs>
 <g id="figure_1">
  <g id="patch_1">
   <path d="M 0 252 
L 720 252 
L 720 0 
L 0 0 
z
" style="fill: #ffffff"/>
  </g>
  <g id="axes_1">
   <g id="patch_2">
    <path d="M 47.18 208.456 
L 720 208.456 
L 720 0.155294 
L 47.18 0.155294 
z
" style="fill: #ffffff"/>
   </g>
   <g id="PolyCollection_1">
    <path d="M 57.432495 176.006028 
L 57.432495 192.043807 
L 67.620912 189.834087 
L 77.80933 195.416183 
L 87.997747 171.981856 
L 98.186164 186.931833 
L 108.374581 158.515552 
L 118.562998 152.709028 
L 128.751415 144.725078 
L 138.939832 140.3242 
L 149.12825 129.192033 
L 159.316667 111.009292 
L 169.505084 40.037097 
L 179.693501 50.781469 
L 189.881918 10.979898 
L 200.070335 21.446039 
L 210.258752 34.017269 
L 220.44717 32.607743 
L 230.635587 9.930648 
L 240.824004 20.574082 
L 251.012421 9.172798 
L 256.10663 9.333654 
L 261.200838 8.787391 
L 266.295047 8.702727 
L 271.389255 6.912711 
L 276.483464 7.670116 
L 281.577672 6.505454 
L 286.671881 6.91676 
L 291.76609 7.641309 
L 296.860298 7.050277 
L 301.954507 6.508309 
L 307.048715 6.522052 
L 312.142924 6.677668 
L 317.237132 7.482612 
L 322.331341 6.729505 
L 327.42555 6.143166 
L 332.519758 6.035855 
L 337.613967 5.620035 
L 342.708175 6.556895 
L 347.802384 6.260455 
L 352.896592 5.625834 
L 378.367635 5.420553 
L 403.838678 5.373813 
L 429.309721 5.233031 
L 454.780764 4.683559 
L 480.251807 4.912788 
L 505.72285 4.833049 
L 531.193892 4.475574 
L 556.664935 4.64948 
L 582.135978 4.542424 
L 607.607021 4.529813 
L 633.078064 4.435934 
L 658.549107 4.309708 
L 684.02015 4.301672 
L 709.491192 4.281487 
L 734.962235 4.28632 
L 760.433278 4.239622 
L 785.904321 4.239622 
L 811.375364 4.272037 
L 811.375364 4.228817 
L 811.375364 4.228817 
L 785.904321 4.239622 
L 760.433278 4.239622 
L 734.962235 4.234893 
L 709.491192 4.235247 
L 684.02015 4.259949 
L 658.549107 4.230695 
L 633.078064 4.24577 
L 607.607021 4.18648 
L 582.135978 4.263474 
L 556.664935 4.305045 
L 531.193892 4.341865 
L 505.72285 4.333251 
L 480.251807 4.494388 
L 454.780764 4.423624 
L 429.309721 4.423597 
L 403.838678 4.753886 
L 378.367635 4.94037 
L 352.896592 5.243632 
L 347.802384 5.434087 
L 342.708175 4.902929 
L 337.613967 5.361209 
L 332.519758 5.019584 
L 327.42555 5.128343 
L 322.331341 5.074704 
L 317.237132 4.940874 
L 312.142924 5.523185 
L 307.048715 5.259901 
L 301.954507 5.167205 
L 296.860298 5.548802 
L 291.76609 5.935813 
L 286.671881 5.466073 
L 281.577672 5.530833 
L 276.483464 5.320744 
L 271.389255 5.854075 
L 266.295047 5.759862 
L 261.200838 6.471457 
L 256.10663 6.579573 
L 251.012421 6.877379 
L 240.824004 3.198565 
L 230.635587 7.088418 
L 220.44717 -0.950847 
L 210.258752 4.234251 
L 200.070335 3.782329 
L 189.881918 9.678519 
L 179.693501 7.566596 
L 169.505084 9.929598 
L 159.316667 20.297061 
L 149.12825 41.7966 
L 138.939832 91.727183 
L 128.751415 64.801637 
L 118.562998 71.845461 
L 108.374581 89.721664 
L 98.186164 157.515951 
L 87.997747 139.817924 
L 77.80933 148.700737 
L 67.620912 170.219567 
L 57.432495 176.006028 
z
" clip-path="url(#p1b32cc301d)" style="fill: #ff7f0e; fill-opacity: 0.3; stroke: #ff7f0e; stroke-opacity: 0.3"/>
   </g>
   <g id="PolyCollection_2">
    <path d="M 57.432495 176.148408 
L 57.432495 191.996347 
L 67.620912 189.815447 
L 77.80933 195.071829 
L 87.997747 171.999479 
L 98.186164 186.923736 
L 108.374581 159.221465 
L 118.562998 154.642902 
L 128.751415 145.975972 
L 138.939832 141.86743 
L 149.12825 130.55694 
L 159.316667 115.465265 
L 169.505084 53.963912 
L 179.693501 62.681284 
L 189.881918 33.705321 
L 200.070335 40.083493 
L 210.258752 47.536255 
L 220.44717 47.503705 
L 230.635587 32.22966 
L 240.824004 38.588487 
L 251.012421 30.275774 
L 256.10663 29.069711 
L 261.200838 28.975701 
L 266.295047 28.346796 
L 271.389255 26.173303 
L 276.483464 26.863014 
L 281.577672 24.963629 
L 286.671881 26.817607 
L 291.76609 26.456972 
L 296.860298 26.281459 
L 301.954507 24.026094 
L 307.048715 24.303441 
L 312.142924 24.655473 
L 317.237132 24.751303 
L 322.331341 24.254102 
L 327.42555 23.198859 
L 332.519758 23.202646 
L 337.613967 24.022083 
L 342.708175 24.962027 
L 347.802384 24.168966 
L 352.896592 22.438249 
L 378.367635 20.950303 
L 403.838678 22.11689 
L 429.309721 19.838191 
L 454.780764 18.952732 
L 480.251807 18.879445 
L 505.72285 18.144759 
L 531.193892 18.106871 
L 556.664935 17.994638 
L 582.135978 17.090929 
L 607.607021 16.914221 
L 633.078064 17.67569 
L 658.549107 15.452429 
L 684.02015 16.269011 
L 709.491192 15.056294 
L 734.962235 15.534985 
L 760.433278 15.177356 
L 785.904321 15.327578 
L 811.375364 15.548016 
L 811.375364 14.542976 
L 811.375364 14.542976 
L 785.904321 14.655393 
L 760.433278 14.764784 
L 734.962235 14.337608 
L 709.491192 14.714861 
L 684.02015 15.212831 
L 658.549107 15.22995 
L 633.078064 15.627233 
L 607.607021 15.180644 
L 582.135978 15.957653 
L 556.664935 17.022215 
L 531.193892 16.889865 
L 505.72285 16.839626 
L 480.251807 18.057082 
L 454.780764 17.359582 
L 429.309721 17.286363 
L 403.838678 18.946943 
L 378.367635 19.660233 
L 352.896592 20.711281 
L 347.802384 20.687916 
L 342.708175 20.077835 
L 337.613967 20.977328 
L 332.519758 20.703673 
L 327.42555 20.878609 
L 322.331341 21.383733 
L 317.237132 20.451537 
L 312.142924 21.315594 
L 307.048715 20.470704 
L 301.954507 22.295759 
L 296.860298 22.553598 
L 291.76609 24.242893 
L 286.671881 21.996716 
L 281.577672 21.538024 
L 276.483464 22.785915 
L 271.389255 22.08923 
L 266.295047 22.883036 
L 261.200838 24.407221 
L 256.10663 24.481015 
L 251.012421 26.142678 
L 240.824004 23.614445 
L 230.635587 25.194152 
L 220.44717 19.879538 
L 210.258752 23.157731 
L 200.070335 25.441349 
L 189.881918 26.514012 
L 179.693501 28.4353 
L 169.505084 30.598485 
L 159.316667 37.699124 
L 149.12825 56.489294 
L 138.939832 97.153682 
L 128.751415 75.514584 
L 118.562998 80.236942 
L 108.374581 95.958267 
L 98.186164 157.699008 
L 87.997747 141.796504 
L 77.80933 149.865461 
L 67.620912 170.403452 
L 57.432495 176.148408 
z
" clip-path="url(#p1b32cc301d)" style="fill: #1f77b4; fill-opacity: 0.3; stroke: #1f77b4; stroke-opacity: 0.3"/>
   </g>
   <g id="matplotlib.axis_1">
    <g id="xtick_1">
     <g id="line2d_1">
      <defs>
       <path id="m5463738589" d="M 0 0 
L 0 3.5 
" style="stroke: #000000; stroke-width: 0.8"/>
      </defs>
      <g>
       <use xlink:href="#m5463738589" x="57.432495" y="208.456" style="stroke: #000000; stroke-width: 0.8"/>
      </g>
     </g>
     <g id="text_1">
      <!-- 1.6k -->
      <g transform="translate(46.58562 223.054438)scale(0.1 -0.1)">
       <defs>
        <path id="DejaVuSans-31" d="M 794 531 
L 1825 531 
L 1825 4091 
L 703 3866 
L 703 4441 
L 1819 4666 
L 2450 4666 
L 2450 531 
L 3481 531 
L 3481 0 
L 794 0 
L 794 531 
z
" transform="scale(0.015625)"/>
        <path id="DejaVuSans-2e" d="M 684 794 
L 1344 794 
L 1344 0 
L 684 0 
L 684 794 
z
" transform="scale(0.015625)"/>
        <path id="DejaVuSans-36" d="M 2113 2584 
Q 1688 2584 1439 2293 
Q 1191 2003 1191 1497 
Q 1191 994 1439 701 
Q 1688 409 2113 409 
Q 2538 409 2786 701 
Q 3034 994 3034 1497 
Q 3034 2003 2786 2293 
Q 2538 2584 2113 2584 
z
M 3366 4563 
L 3366 3988 
Q 3128 4100 2886 4159 
Q 2644 4219 2406 4219 
Q 1781 4219 1451 3797 
Q 1122 3375 1075 2522 
Q 1259 2794 1537 2939 
Q 1816 3084 2150 3084 
Q 2853 3084 3261 2657 
Q 3669 2231 3669 1497 
Q 3669 778 3244 343 
Q 2819 -91 2113 -91 
Q 1303 -91 875 529 
Q 447 1150 447 2328 
Q 447 3434 972 4092 
Q 1497 4750 2381 4750 
Q 2619 4750 2861 4703 
Q 3103 4656 3366 4563 
z
" transform="scale(0.015625)"/>
        <path id="DejaVuSans-6b" d="M 581 4863 
L 1159 4863 
L 1159 1991 
L 2875 3500 
L 3609 3500 
L 1753 1863 
L 3688 0 
L 2938 0 
L 1159 1709 
L 1159 0 
L 581 0 
L 581 4863 
z
" transform="scale(0.015625)"/>
       </defs>
       <use xlink:href="#DejaVuSans-31"/>
       <use xlink:href="#DejaVuSans-2e" x="63.623047"/>
       <use xlink:href="#DejaVuSans-36" x="95.410156"/>
       <use xlink:href="#DejaVuSans-6b" x="159.033203"/>
      </g>
      <!-- 2 -->
      <g transform="translate(54.251245 234.25225)scale(0.1 -0.1)">
       <defs>
        <path id="DejaVuSans-32" d="M 1228 531 
L 3431 531 
L 3431 0 
L 469 0 
L 469 531 
Q 828 903 1448 1529 
Q 2069 2156 2228 2338 
Q 2531 2678 2651 2914 
Q 2772 3150 2772 3378 
Q 2772 3750 2511 3984 
Q 2250 4219 1831 4219 
Q 1534 4219 1204 4116 
Q 875 4013 500 3803 
L 500 4441 
Q 881 4594 1212 4672 
Q 1544 4750 1819 4750 
Q 2544 4750 2975 4387 
Q 3406 4025 3406 3419 
Q 3406 3131 3298 2873 
Q 3191 2616 2906 2266 
Q 2828 2175 2409 1742 
Q 1991 1309 1228 531 
z
" transform="scale(0.015625)"/>
       </defs>
       <use xlink:href="#DejaVuSans-32"/>
      </g>
     </g>
    </g>
    <g id="xtick_2">
     <g id="line2d_2">
      <g>
       <use xlink:href="#m5463738589" x="98.186164" y="208.456" style="stroke: #000000; stroke-width: 0.8"/>
      </g>
     </g>
     <g id="text_2">
      <!-- 8k -->
      <g transform="translate(92.109601 223.054438)scale(0.1 -0.1)">
       <defs>
        <path id="DejaVuSans-38" d="M 2034 2216 
Q 1584 2216 1326 1975 
Q 1069 1734 1069 1313 
Q 1069 891 1326 650 
Q 1584 409 2034 409 
Q 2484 409 2743 651 
Q 3003 894 3003 1313 
Q 3003 1734 2745 1975 
Q 2488 2216 2034 2216 
z
M 1403 2484 
Q 997 2584 770 2862 
Q 544 3141 544 3541 
Q 544 4100 942 4425 
Q 1341 4750 2034 4750 
Q 2731 4750 3128 4425 
Q 3525 4100 3525 3541 
Q 3525 3141 3298 2862 
Q 3072 2584 2669 2484 
Q 3125 2378 3379 2068 
Q 3634 1759 3634 1313 
Q 3634 634 3220 271 
Q 2806 -91 2034 -91 
Q 1263 -91 848 271 
Q 434 634 434 1313 
Q 434 1759 690 2068 
Q 947 2378 1403 2484 
z
M 1172 3481 
Q 1172 3119 1398 2916 
Q 1625 2713 2034 2713 
Q 2441 2713 2670 2916 
Q 2900 3119 2900 3481 
Q 2900 3844 2670 4047 
Q 2441 4250 2034 4250 
Q 1625 4250 1398 4047 
Q 1172 3844 1172 3481 
z
" transform="scale(0.015625)"/>
       </defs>
       <use xlink:href="#DejaVuSans-38"/>
       <use xlink:href="#DejaVuSans-6b" x="63.623047"/>
      </g>
      <!-- 10 -->
      <g transform="translate(91.823664 234.25225)scale(0.1 -0.1)">
       <defs>
        <path id="DejaVuSans-30" d="M 2034 4250 
Q 1547 4250 1301 3770 
Q 1056 3291 1056 2328 
Q 1056 1369 1301 889 
Q 1547 409 2034 409 
Q 2525 409 2770 889 
Q 3016 1369 3016 2328 
Q 3016 3291 2770 3770 
Q 2525 4250 2034 4250 
z
M 2034 4750 
Q 2819 4750 3233 4129 
Q 3647 3509 3647 2328 
Q 3647 1150 3233 529 
Q 2819 -91 2034 -91 
Q 1250 -91 836 529 
Q 422 1150 422 2328 
Q 422 3509 836 4129 
Q 1250 4750 2034 4750 
z
" transform="scale(0.015625)"/>
       </defs>
       <use xlink:href="#DejaVuSans-31"/>
       <use xlink:href="#DejaVuSans-30" x="63.623047"/>
      </g>
     </g>
    </g>
    <g id="xtick_3">
     <g id="line2d_3">
      <g>
       <use xlink:href="#m5463738589" x="174.599292" y="208.456" style="stroke: #000000; stroke-width: 0.8"/>
      </g>
     </g>
     <g id="text_3">
      <!-- 19.9k -->
      <g transform="translate(160.571167 223.054438)scale(0.1 -0.1)">
       <defs>
        <path id="DejaVuSans-39" d="M 703 97 
L 703 672 
Q 941 559 1184 500 
Q 1428 441 1663 441 
Q 2288 441 2617 861 
Q 2947 1281 2994 2138 
Q 2813 1869 2534 1725 
Q 2256 1581 1919 1581 
Q 1219 1581 811 2004 
Q 403 2428 403 3163 
Q 403 3881 828 4315 
Q 1253 4750 1959 4750 
Q 2769 4750 3195 4129 
Q 3622 3509 3622 2328 
Q 3622 1225 3098 567 
Q 2575 -91 1691 -91 
Q 1453 -91 1209 -44 
Q 966 3 703 97 
z
M 1959 2075 
Q 2384 2075 2632 2365 
Q 2881 2656 2881 3163 
Q 2881 3666 2632 3958 
Q 2384 4250 1959 4250 
Q 1534 4250 1286 3958 
Q 1038 3666 1038 3163 
Q 1038 2656 1286 2365 
Q 1534 2075 1959 2075 
z
" transform="scale(0.015625)"/>
       </defs>
       <use xlink:href="#DejaVuSans-31"/>
       <use xlink:href="#DejaVuSans-39" x="63.623047"/>
       <use xlink:href="#DejaVuSans-2e" x="127.246094"/>
       <use xlink:href="#DejaVuSans-39" x="159.033203"/>
       <use xlink:href="#DejaVuSans-6b" x="222.65625"/>
      </g>
      <!-- 25 -->
      <g transform="translate(168.236792 234.25225)scale(0.1 -0.1)">
       <defs>
        <path id="DejaVuSans-35" d="M 691 4666 
L 3169 4666 
L 3169 4134 
L 1269 4134 
L 1269 2991 
Q 1406 3038 1543 3061 
Q 1681 3084 1819 3084 
Q 2600 3084 3056 2656 
Q 3513 2228 3513 1497 
Q 3513 744 3044 326 
Q 2575 -91 1722 -91 
Q 1428 -91 1123 -41 
Q 819 9 494 109 
L 494 744 
Q 775 591 1075 516 
Q 1375 441 1709 441 
Q 2250 441 2565 725 
Q 2881 1009 2881 1497 
Q 2881 1984 2565 2268 
Q 2250 2553 1709 2553 
Q 1456 2553 1204 2497 
Q 953 2441 691 2322 
L 691 4666 
z
" transform="scale(0.015625)"/>
       </defs>
       <use xlink:href="#DejaVuSans-32"/>
       <use xlink:href="#DejaVuSans-35" x="63.623047"/>
      </g>
     </g>
    </g>
    <g id="xtick_4">
     <g id="line2d_4">
      <g>
       <use xlink:href="#m5463738589" x="251.012421" y="208.456" style="stroke: #000000; stroke-width: 0.8"/>
      </g>
     </g>
     <g id="text_4">
      <!-- 31.8k -->
      <g transform="translate(236.984296 223.054438)scale(0.1 -0.1)">
       <defs>
        <path id="DejaVuSans-33" d="M 2597 2516 
Q 3050 2419 3304 2112 
Q 3559 1806 3559 1356 
Q 3559 666 3084 287 
Q 2609 -91 1734 -91 
Q 1441 -91 1130 -33 
Q 819 25 488 141 
L 488 750 
Q 750 597 1062 519 
Q 1375 441 1716 441 
Q 2309 441 2620 675 
Q 2931 909 2931 1356 
Q 2931 1769 2642 2001 
Q 2353 2234 1838 2234 
L 1294 2234 
L 1294 2753 
L 1863 2753 
Q 2328 2753 2575 2939 
Q 2822 3125 2822 3475 
Q 2822 3834 2567 4026 
Q 2313 4219 1838 4219 
Q 1578 4219 1281 4162 
Q 984 4106 628 3988 
L 628 4550 
Q 988 4650 1302 4700 
Q 1616 4750 1894 4750 
Q 2613 4750 3031 4423 
Q 3450 4097 3450 3541 
Q 3450 3153 3228 2886 
Q 3006 2619 2597 2516 
z
" transform="scale(0.015625)"/>
       </defs>
       <use xlink:href="#DejaVuSans-33"/>
       <use xlink:href="#DejaVuSans-31" x="63.623047"/>
       <use xlink:href="#DejaVuSans-2e" x="127.246094"/>
       <use xlink:href="#DejaVuSans-38" x="159.033203"/>
       <use xlink:href="#DejaVuSans-6b" x="222.65625"/>
      </g>
      <!-- 40 -->
      <g transform="translate(244.649921 234.25225)scale(0.1 -0.1)">
       <defs>
        <path id="DejaVuSans-34" d="M 2419 4116 
L 825 1625 
L 2419 1625 
L 2419 4116 
z
M 2253 4666 
L 3047 4666 
L 3047 1625 
L 3713 1625 
L 3713 1100 
L 3047 1100 
L 3047 0 
L 2419 0 
L 2419 1100 
L 313 1100 
L 313 1709 
L 2253 4666 
z
" transform="scale(0.015625)"/>
       </defs>
       <use xlink:href="#DejaVuSans-34"/>
       <use xlink:href="#DejaVuSans-30" x="63.623047"/>
      </g>
     </g>
    </g>
    <g id="xtick_5">
     <g id="line2d_5">
      <g>
       <use xlink:href="#m5463738589" x="352.896592" y="208.456" style="stroke: #000000; stroke-width: 0.8"/>
      </g>
     </g>
     <g id="text_5">
      <!-- 47.7k -->
      <g transform="translate(338.868467 223.054438)scale(0.1 -0.1)">
       <defs>
        <path id="DejaVuSans-37" d="M 525 4666 
L 3525 4666 
L 3525 4397 
L 1831 0 
L 1172 0 
L 2766 4134 
L 525 4134 
L 525 4666 
z
" transform="scale(0.015625)"/>
       </defs>
       <use xlink:href="#DejaVuSans-34"/>
       <use xlink:href="#DejaVuSans-37" x="63.623047"/>
       <use xlink:href="#DejaVuSans-2e" x="127.246094"/>
       <use xlink:href="#DejaVuSans-37" x="159.033203"/>
       <use xlink:href="#DejaVuSans-6b" x="222.65625"/>
      </g>
      <!-- 60 -->
      <g transform="translate(346.534092 234.25225)scale(0.1 -0.1)">
       <use xlink:href="#DejaVuSans-36"/>
       <use xlink:href="#DejaVuSans-30" x="63.623047"/>
      </g>
     </g>
    </g>
    <g id="xtick_6">
     <g id="line2d_6">
      <g>
       <use xlink:href="#m5463738589" x="429.309721" y="208.456" style="stroke: #000000; stroke-width: 0.8"/>
      </g>
     </g>
     <g id="text_6">
      <!-- 59.6k -->
      <g transform="translate(415.281596 223.054438)scale(0.1 -0.1)">
       <use xlink:href="#DejaVuSans-35"/>
       <use xlink:href="#DejaVuSans-39" x="63.623047"/>
       <use xlink:href="#DejaVuSans-2e" x="127.246094"/>
       <use xlink:href="#DejaVuSans-36" x="159.033203"/>
       <use xlink:href="#DejaVuSans-6b" x="222.65625"/>
      </g>
      <!-- 75 -->
      <g transform="translate(422.947221 234.25225)scale(0.1 -0.1)">
       <use xlink:href="#DejaVuSans-37"/>
       <use xlink:href="#DejaVuSans-35" x="63.623047"/>
      </g>
     </g>
    </g>
    <g id="xtick_7">
     <g id="line2d_7">
      <g>
       <use xlink:href="#m5463738589" x="556.664935" y="208.456" style="stroke: #000000; stroke-width: 0.8"/>
      </g>
     </g>
     <g id="text_7">
      <!-- 79.5k -->
      <g transform="translate(542.63681 223.054438)scale(0.1 -0.1)">
       <use xlink:href="#DejaVuSans-37"/>
       <use xlink:href="#DejaVuSans-39" x="63.623047"/>
       <use xlink:href="#DejaVuSans-2e" x="127.246094"/>
       <use xlink:href="#DejaVuSans-35" x="159.033203"/>
       <use xlink:href="#DejaVuSans-6b" x="222.65625"/>
      </g>
      <!-- 100 -->
      <g transform="translate(547.121185 234.25225)scale(0.1 -0.1)">
       <use xlink:href="#DejaVuSans-31"/>
       <use xlink:href="#DejaVuSans-30" x="63.623047"/>
       <use xlink:href="#DejaVuSans-30" x="127.246094"/>
      </g>
     </g>
    </g>
    <g id="xtick_8">
     <g id="line2d_8">
      <g>
       <use xlink:href="#m5463738589" x="689.114358" y="208.456" style="stroke: #000000; stroke-width: 0.8"/>
      </g>
     </g>
     <g id="text_8">
      <!-- 100.2k -->
      <g transform="translate(671.904983 223.054438)scale(0.1 -0.1)">
       <use xlink:href="#DejaVuSans-31"/>
       <use xlink:href="#DejaVuSans-30" x="63.623047"/>
       <use xlink:href="#DejaVuSans-30" x="127.246094"/>
       <use xlink:href="#DejaVuSans-2e" x="190.869141"/>
       <use xlink:href="#DejaVuSans-32" x="222.65625"/>
       <use xlink:href="#DejaVuSans-6b" x="286.279297"/>
      </g>
      <!-- 126 -->
      <g transform="translate(679.570608 234.25225)scale(0.1 -0.1)">
       <use xlink:href="#DejaVuSans-31"/>
       <use xlink:href="#DejaVuSans-32" x="63.623047"/>
       <use xlink:href="#DejaVuSans-36" x="127.246094"/>
      </g>
     </g>
    </g>
    <g id="xtick_9">
     <g id="line2d_9">
      <g>
       <use xlink:href="#m5463738589" x="303.492381" y="208.456" style="stroke: #000000; stroke-width: 0.8"/>
      </g>
     </g>
     <g id="text_9">
      <!-- 40k -->
      <g transform="translate(294.234568 223.054438)scale(0.1 -0.1)">
       <use xlink:href="#DejaVuSans-34"/>
       <use xlink:href="#DejaVuSans-30" x="63.623047"/>
       <use xlink:href="#DejaVuSans-6b" x="127.246094"/>
      </g>
     </g>
    </g>
    <g id="text_10">
     <!-- # Parameters / # Hidden Nodes -->
     <g transform="translate(285.630703 248.690219)scale(0.11 -0.11)">
      <defs>
       <path id="DejaVuSans-Bold-23" d="M 2847 4594 
L 2547 3391 
L 3372 3391 
L 3675 4594 
L 4366 4594 
L 4063 3391 
L 4928 3391 
L 4928 2725 
L 3897 2725 
L 3681 1869 
L 4569 1869 
L 4569 1197 
L 3519 1197 
L 3219 0 
L 2528 0 
L 2828 1197 
L 2003 1197 
L 1703 0 
L 1006 0 
L 1306 1197 
L 434 1197 
L 434 1869 
L 1459 1869 
L 1678 2725 
L 794 2725 
L 794 3391 
L 1850 3391 
L 2150 4594 
L 2847 4594 
z
M 3200 2725 
L 2375 2725 
L 2156 1869 
L 2981 1869 
L 3200 2725 
z
" transform="scale(0.015625)"/>
       <path id="DejaVuSans-Bold-20" transform="scale(0.015625)"/>
       <path id="DejaVuSans-Bold-50" d="M 588 4666 
L 2584 4666 
Q 3475 4666 3951 4270 
Q 4428 3875 4428 3144 
Q 4428 2409 3951 2014 
Q 3475 1619 2584 1619 
L 1791 1619 
L 1791 0 
L 588 0 
L 588 4666 
z
M 1791 3794 
L 1791 2491 
L 2456 2491 
Q 2806 2491 2997 2661 
Q 3188 2831 3188 3144 
Q 3188 3456 2997 3625 
Q 2806 3794 2456 3794 
L 1791 3794 
z
" transform="scale(0.015625)"/>
       <path id="DejaVuSans-Bold-61" d="M 2106 1575 
Q 1756 1575 1579 1456 
Q 1403 1338 1403 1106 
Q 1403 894 1545 773 
Q 1688 653 1941 653 
Q 2256 653 2472 879 
Q 2688 1106 2688 1447 
L 2688 1575 
L 2106 1575 
z
M 3816 1997 
L 3816 0 
L 2688 0 
L 2688 519 
Q 2463 200 2181 54 
Q 1900 -91 1497 -91 
Q 953 -91 614 226 
Q 275 544 275 1050 
Q 275 1666 698 1953 
Q 1122 2241 2028 2241 
L 2688 2241 
L 2688 2328 
Q 2688 2594 2478 2717 
Q 2269 2841 1825 2841 
Q 1466 2841 1156 2769 
Q 847 2697 581 2553 
L 581 3406 
Q 941 3494 1303 3539 
Q 1666 3584 2028 3584 
Q 2975 3584 3395 3211 
Q 3816 2838 3816 1997 
z
" transform="scale(0.015625)"/>
       <path id="DejaVuSans-Bold-72" d="M 3138 2547 
Q 2991 2616 2845 2648 
Q 2700 2681 2553 2681 
Q 2122 2681 1889 2404 
Q 1656 2128 1656 1613 
L 1656 0 
L 538 0 
L 538 3500 
L 1656 3500 
L 1656 2925 
Q 1872 3269 2151 3426 
Q 2431 3584 2822 3584 
Q 2878 3584 2943 3579 
Q 3009 3575 3134 3559 
L 3138 2547 
z
" transform="scale(0.015625)"/>
       <path id="DejaVuSans-Bold-6d" d="M 3781 2919 
Q 3994 3244 4286 3414 
Q 4578 3584 4928 3584 
Q 5531 3584 5847 3212 
Q 6163 2841 6163 2131 
L 6163 0 
L 5038 0 
L 5038 1825 
Q 5041 1866 5042 1909 
Q 5044 1953 5044 2034 
Q 5044 2406 4934 2573 
Q 4825 2741 4581 2741 
Q 4263 2741 4089 2478 
Q 3916 2216 3909 1719 
L 3909 0 
L 2784 0 
L 2784 1825 
Q 2784 2406 2684 2573 
Q 2584 2741 2328 2741 
Q 2006 2741 1831 2477 
Q 1656 2213 1656 1722 
L 1656 0 
L 531 0 
L 531 3500 
L 1656 3500 
L 1656 2988 
Q 1863 3284 2130 3434 
Q 2397 3584 2719 3584 
Q 3081 3584 3359 3409 
Q 3638 3234 3781 2919 
z
" transform="scale(0.015625)"/>
       <path id="DejaVuSans-Bold-65" d="M 4031 1759 
L 4031 1441 
L 1416 1441 
Q 1456 1047 1700 850 
Q 1944 653 2381 653 
Q 2734 653 3104 758 
Q 3475 863 3866 1075 
L 3866 213 
Q 3469 63 3072 -14 
Q 2675 -91 2278 -91 
Q 1328 -91 801 392 
Q 275 875 275 1747 
Q 275 2603 792 3093 
Q 1309 3584 2216 3584 
Q 3041 3584 3536 3087 
Q 4031 2591 4031 1759 
z
M 2881 2131 
Q 2881 2450 2695 2645 
Q 2509 2841 2209 2841 
Q 1884 2841 1681 2658 
Q 1478 2475 1428 2131 
L 2881 2131 
z
" transform="scale(0.015625)"/>
       <path id="DejaVuSans-Bold-74" d="M 1759 4494 
L 1759 3500 
L 2913 3500 
L 2913 2700 
L 1759 2700 
L 1759 1216 
Q 1759 972 1856 886 
Q 1953 800 2241 800 
L 2816 800 
L 2816 0 
L 1856 0 
Q 1194 0 917 276 
Q 641 553 641 1216 
L 641 2700 
L 84 2700 
L 84 3500 
L 641 3500 
L 641 4494 
L 1759 4494 
z
" transform="scale(0.015625)"/>
       <path id="DejaVuSans-Bold-73" d="M 3272 3391 
L 3272 2541 
Q 2913 2691 2578 2766 
Q 2244 2841 1947 2841 
Q 1628 2841 1473 2761 
Q 1319 2681 1319 2516 
Q 1319 2381 1436 2309 
Q 1553 2238 1856 2203 
L 2053 2175 
Q 2913 2066 3209 1816 
Q 3506 1566 3506 1031 
Q 3506 472 3093 190 
Q 2681 -91 1863 -91 
Q 1516 -91 1145 -36 
Q 775 19 384 128 
L 384 978 
Q 719 816 1070 734 
Q 1422 653 1784 653 
Q 2113 653 2278 743 
Q 2444 834 2444 1013 
Q 2444 1163 2330 1236 
Q 2216 1309 1875 1350 
L 1678 1375 
Q 931 1469 631 1722 
Q 331 1975 331 2491 
Q 331 3047 712 3315 
Q 1094 3584 1881 3584 
Q 2191 3584 2531 3537 
Q 2872 3491 3272 3391 
z
" transform="scale(0.015625)"/>
       <path id="DejaVuSans-Bold-2f" d="M 1644 4666 
L 2338 4666 
L 691 -594 
L 0 -594 
L 1644 4666 
z
" transform="scale(0.015625)"/>
       <path id="DejaVuSans-Bold-48" d="M 588 4666 
L 1791 4666 
L 1791 2888 
L 3566 2888 
L 3566 4666 
L 4769 4666 
L 4769 0 
L 3566 0 
L 3566 1978 
L 1791 1978 
L 1791 0 
L 588 0 
L 588 4666 
z
" transform="scale(0.015625)"/>
       <path id="DejaVuSans-Bold-69" d="M 538 3500 
L 1656 3500 
L 1656 0 
L 538 0 
L 538 3500 
z
M 538 4863 
L 1656 4863 
L 1656 3950 
L 538 3950 
L 538 4863 
z
" transform="scale(0.015625)"/>
       <path id="DejaVuSans-Bold-64" d="M 2919 2988 
L 2919 4863 
L 4044 4863 
L 4044 0 
L 2919 0 
L 2919 506 
Q 2688 197 2409 53 
Q 2131 -91 1766 -91 
Q 1119 -91 703 423 
Q 288 938 288 1747 
Q 288 2556 703 3070 
Q 1119 3584 1766 3584 
Q 2128 3584 2408 3439 
Q 2688 3294 2919 2988 
z
M 2181 722 
Q 2541 722 2730 984 
Q 2919 1247 2919 1747 
Q 2919 2247 2730 2509 
Q 2541 2772 2181 2772 
Q 1825 2772 1636 2509 
Q 1447 2247 1447 1747 
Q 1447 1247 1636 984 
Q 1825 722 2181 722 
z
" transform="scale(0.015625)"/>
       <path id="DejaVuSans-Bold-6e" d="M 4056 2131 
L 4056 0 
L 2931 0 
L 2931 347 
L 2931 1631 
Q 2931 2084 2911 2256 
Q 2891 2428 2841 2509 
Q 2775 2619 2662 2680 
Q 2550 2741 2406 2741 
Q 2056 2741 1856 2470 
Q 1656 2200 1656 1722 
L 1656 0 
L 538 0 
L 538 3500 
L 1656 3500 
L 1656 2988 
Q 1909 3294 2193 3439 
Q 2478 3584 2822 3584 
Q 3428 3584 3742 3212 
Q 4056 2841 4056 2131 
z
" transform="scale(0.015625)"/>
       <path id="DejaVuSans-Bold-4e" d="M 588 4666 
L 1931 4666 
L 3628 1466 
L 3628 4666 
L 4769 4666 
L 4769 0 
L 3425 0 
L 1728 3200 
L 1728 0 
L 588 0 
L 588 4666 
z
" transform="scale(0.015625)"/>
       <path id="DejaVuSans-Bold-6f" d="M 2203 2784 
Q 1831 2784 1636 2517 
Q 1441 2250 1441 1747 
Q 1441 1244 1636 976 
Q 1831 709 2203 709 
Q 2569 709 2762 976 
Q 2956 1244 2956 1747 
Q 2956 2250 2762 2517 
Q 2569 2784 2203 2784 
z
M 2203 3584 
Q 3106 3584 3614 3096 
Q 4122 2609 4122 1747 
Q 4122 884 3614 396 
Q 3106 -91 2203 -91 
Q 1297 -91 786 396 
Q 275 884 275 1747 
Q 275 2609 786 3096 
Q 1297 3584 2203 3584 
z
" transform="scale(0.015625)"/>
      </defs>
      <use xlink:href="#DejaVuSans-Bold-23"/>
      <use xlink:href="#DejaVuSans-Bold-20" x="83.789062"/>
      <use xlink:href="#DejaVuSans-Bold-50" x="118.603516"/>
      <use xlink:href="#DejaVuSans-Bold-61" x="189.269531"/>
      <use xlink:href="#DejaVuSans-Bold-72" x="256.75"/>
      <use xlink:href="#DejaVuSans-Bold-61" x="306.066406"/>
      <use xlink:href="#DejaVuSans-Bold-6d" x="373.546875"/>
      <use xlink:href="#DejaVuSans-Bold-65" x="477.746094"/>
      <use xlink:href="#DejaVuSans-Bold-74" x="545.568359"/>
      <use xlink:href="#DejaVuSans-Bold-65" x="593.371094"/>
      <use xlink:href="#DejaVuSans-Bold-72" x="661.193359"/>
      <use xlink:href="#DejaVuSans-Bold-73" x="710.509766"/>
      <use xlink:href="#DejaVuSans-Bold-20" x="770.03125"/>
      <use xlink:href="#DejaVuSans-Bold-2f" x="804.845703"/>
      <use xlink:href="#DejaVuSans-Bold-20" x="841.369141"/>
      <use xlink:href="#DejaVuSans-Bold-23" x="876.183594"/>
      <use xlink:href="#DejaVuSans-Bold-20" x="959.972656"/>
      <use xlink:href="#DejaVuSans-Bold-48" x="994.787109"/>
      <use xlink:href="#DejaVuSans-Bold-69" x="1078.478516"/>
      <use xlink:href="#DejaVuSans-Bold-64" x="1112.755859"/>
      <use xlink:href="#DejaVuSans-Bold-64" x="1184.337891"/>
      <use xlink:href="#DejaVuSans-Bold-65" x="1255.919922"/>
      <use xlink:href="#DejaVuSans-Bold-6e" x="1323.742188"/>
      <use xlink:href="#DejaVuSans-Bold-20" x="1394.933594"/>
      <use xlink:href="#DejaVuSans-Bold-4e" x="1429.748047"/>
      <use xlink:href="#DejaVuSans-Bold-6f" x="1513.439453"/>
      <use xlink:href="#DejaVuSans-Bold-64" x="1582.140625"/>
      <use xlink:href="#DejaVuSans-Bold-65" x="1653.722656"/>
      <use xlink:href="#DejaVuSans-Bold-73" x="1721.544922"/>
     </g>
    </g>
   </g>
   <g id="matplotlib.axis_2">
    <g id="ytick_1">
     <g id="line2d_10">
      <defs>
       <path id="m59c7a263f8" d="M 0 0 
L -3.5 0 
" style="stroke: #000000; stroke-width: 0.8"/>
      </defs>
      <g>
       <use xlink:href="#m59c7a263f8" x="47.18" y="208.456" style="stroke: #000000; stroke-width: 0.8"/>
      </g>
     </g>
     <g id="text_11">
      <!--    0.0 -->
      <g transform="translate(14.7425 212.255219)scale(0.1 -0.1)">
       <defs>
        <path id="DejaVuSans-20" transform="scale(0.015625)"/>
       </defs>
       <use xlink:href="#DejaVuSans-20"/>
       <use xlink:href="#DejaVuSans-20" x="31.787109"/>
       <use xlink:href="#DejaVuSans-20" x="63.574219"/>
       <use xlink:href="#DejaVuSans-30" x="95.361328"/>
       <use xlink:href="#DejaVuSans-2e" x="158.984375"/>
       <use xlink:href="#DejaVuSans-30" x="190.771484"/>
      </g>
     </g>
    </g>
    <g id="ytick_2">
     <g id="line2d_11">
      <g>
       <use xlink:href="#m59c7a263f8" x="47.18" y="167.612724" style="stroke: #000000; stroke-width: 0.8"/>
      </g>
     </g>
     <g id="text_12">
      <!--    0.2 -->
      <g transform="translate(14.7425 171.411943)scale(0.1 -0.1)">
       <use xlink:href="#DejaVuSans-20"/>
       <use xlink:href="#DejaVuSans-20" x="31.787109"/>
       <use xlink:href="#DejaVuSans-20" x="63.574219"/>
       <use xlink:href="#DejaVuSans-30" x="95.361328"/>
       <use xlink:href="#DejaVuSans-2e" x="158.984375"/>
       <use xlink:href="#DejaVuSans-32" x="190.771484"/>
      </g>
     </g>
    </g>
    <g id="ytick_3">
     <g id="line2d_12">
      <g>
       <use xlink:href="#m59c7a263f8" x="47.18" y="126.769449" style="stroke: #000000; stroke-width: 0.8"/>
      </g>
     </g>
     <g id="text_13">
      <!--    0.4 -->
      <g transform="translate(14.7425 130.568667)scale(0.1 -0.1)">
       <use xlink:href="#DejaVuSans-20"/>
       <use xlink:href="#DejaVuSans-20" x="31.787109"/>
       <use xlink:href="#DejaVuSans-20" x="63.574219"/>
       <use xlink:href="#DejaVuSans-30" x="95.361328"/>
       <use xlink:href="#DejaVuSans-2e" x="158.984375"/>
       <use xlink:href="#DejaVuSans-34" x="190.771484"/>
      </g>
     </g>
    </g>
    <g id="ytick_4">
     <g id="line2d_13">
      <g>
       <use xlink:href="#m59c7a263f8" x="47.18" y="85.926173" style="stroke: #000000; stroke-width: 0.8"/>
      </g>
     </g>
     <g id="text_14">
      <!--    0.6 -->
      <g transform="translate(14.7425 89.725392)scale(0.1 -0.1)">
       <use xlink:href="#DejaVuSans-20"/>
       <use xlink:href="#DejaVuSans-20" x="31.787109"/>
       <use xlink:href="#DejaVuSans-20" x="63.574219"/>
       <use xlink:href="#DejaVuSans-30" x="95.361328"/>
       <use xlink:href="#DejaVuSans-2e" x="158.984375"/>
       <use xlink:href="#DejaVuSans-36" x="190.771484"/>
      </g>
     </g>
    </g>
    <g id="ytick_5">
     <g id="line2d_14">
      <g>
       <use xlink:href="#m59c7a263f8" x="47.18" y="45.082897" style="stroke: #000000; stroke-width: 0.8"/>
      </g>
     </g>
     <g id="text_15">
      <!--    0.8 -->
      <g transform="translate(14.7425 48.882116)scale(0.1 -0.1)">
       <use xlink:href="#DejaVuSans-20"/>
       <use xlink:href="#DejaVuSans-20" x="31.787109"/>
       <use xlink:href="#DejaVuSans-20" x="63.574219"/>
       <use xlink:href="#DejaVuSans-30" x="95.361328"/>
       <use xlink:href="#DejaVuSans-2e" x="158.984375"/>
       <use xlink:href="#DejaVuSans-38" x="190.771484"/>
      </g>
     </g>
    </g>
    <g id="ytick_6">
     <g id="line2d_15">
      <g>
       <use xlink:href="#m59c7a263f8" x="47.18" y="4.239622" style="stroke: #000000; stroke-width: 0.8"/>
      </g>
     </g>
     <g id="text_16">
      <!--    1.0 -->
      <g transform="translate(14.7425 8.03884)scale(0.1 -0.1)">
       <use xlink:href="#DejaVuSans-20"/>
       <use xlink:href="#DejaVuSans-20" x="31.787109"/>
       <use xlink:href="#DejaVuSans-20" x="63.574219"/>
       <use xlink:href="#DejaVuSans-31" x="95.361328"/>
       <use xlink:href="#DejaVuSans-2e" x="158.984375"/>
       <use xlink:href="#DejaVuSans-30" x="190.771484"/>
      </g>
     </g>
    </g>
    <g id="text_17">
     <!-- Recall -->
     <g transform="translate(8.454844 123.014241)rotate(-90)scale(0.11 -0.11)">
      <defs>
       <path id="DejaVuSans-Bold-52" d="M 2297 2597 
Q 2675 2597 2839 2737 
Q 3003 2878 3003 3200 
Q 3003 3519 2839 3656 
Q 2675 3794 2297 3794 
L 1791 3794 
L 1791 2597 
L 2297 2597 
z
M 1791 1766 
L 1791 0 
L 588 0 
L 588 4666 
L 2425 4666 
Q 3347 4666 3776 4356 
Q 4206 4047 4206 3378 
Q 4206 2916 3982 2619 
Q 3759 2322 3309 2181 
Q 3556 2125 3751 1926 
Q 3947 1728 4147 1325 
L 4800 0 
L 3519 0 
L 2950 1159 
Q 2778 1509 2601 1637 
Q 2425 1766 2131 1766 
L 1791 1766 
z
" transform="scale(0.015625)"/>
       <path id="DejaVuSans-Bold-63" d="M 3366 3391 
L 3366 2478 
Q 3138 2634 2908 2709 
Q 2678 2784 2431 2784 
Q 1963 2784 1702 2511 
Q 1441 2238 1441 1747 
Q 1441 1256 1702 982 
Q 1963 709 2431 709 
Q 2694 709 2930 787 
Q 3166 866 3366 1019 
L 3366 103 
Q 3103 6 2833 -42 
Q 2563 -91 2291 -91 
Q 1344 -91 809 395 
Q 275 881 275 1747 
Q 275 2613 809 3098 
Q 1344 3584 2291 3584 
Q 2566 3584 2833 3536 
Q 3100 3488 3366 3391 
z
" transform="scale(0.015625)"/>
       <path id="DejaVuSans-Bold-6c" d="M 538 4863 
L 1656 4863 
L 1656 0 
L 538 0 
L 538 4863 
z
" transform="scale(0.015625)"/>
      </defs>
      <use xlink:href="#DejaVuSans-Bold-52"/>
      <use xlink:href="#DejaVuSans-Bold-65" x="77.001953"/>
      <use xlink:href="#DejaVuSans-Bold-63" x="144.824219"/>
      <use xlink:href="#DejaVuSans-Bold-61" x="204.101562"/>
      <use xlink:href="#DejaVuSans-Bold-6c" x="271.582031"/>
      <use xlink:href="#DejaVuSans-Bold-6c" x="305.859375"/>
     </g>
    </g>
   </g>
   <g id="line2d_16">
    <path d="M 303.492381 208.456 
L 303.492381 0.155294 
" clip-path="url(#p1b32cc301d)" style="fill: none; stroke-dasharray: 9.25,4; stroke-dashoffset: 0; stroke: #000000; stroke-width: 2.5"/>
   </g>
   <g id="line2d_17">
    <path d="M 47.18 4.239622 
L 720 4.239622 
" clip-path="url(#p1b32cc301d)" style="fill: none; stroke-dasharray: 3.7,1.6; stroke-dashoffset: 0; stroke: #808080"/>
   </g>
   <g id="line2d_18">
    <path d="M 57.432495 184.024918 
L 67.620912 180.026827 
L 77.80933 172.05846 
L 87.997747 155.89989 
L 98.186164 172.223892 
L 108.374581 124.118608 
L 118.562998 112.277245 
L 128.751415 104.763358 
L 138.939832 116.025692 
L 149.12825 85.494316 
L 159.316667 65.653177 
L 169.505084 24.983348 
L 179.693501 29.174032 
L 189.881918 10.329208 
L 200.070335 12.614184 
L 210.258752 19.12576 
L 220.44717 15.828448 
L 230.635587 8.509533 
L 240.824004 11.886323 
L 251.012421 8.025089 
L 256.10663 7.956614 
L 261.200838 7.629424 
L 266.295047 7.231294 
L 271.389255 6.383393 
L 276.483464 6.49543 
L 281.577672 6.018144 
L 286.671881 6.191417 
L 291.76609 6.788561 
L 296.860298 6.299539 
L 301.954507 5.837757 
L 307.048715 5.890976 
L 312.142924 6.100427 
L 317.237132 6.211743 
L 322.331341 5.902104 
L 327.42555 5.635755 
L 332.519758 5.527719 
L 337.613967 5.490622 
L 342.708175 5.729912 
L 347.802384 5.847271 
L 352.896592 5.434733 
L 378.367635 5.180461 
L 403.838678 5.06385 
L 429.309721 4.828314 
L 454.780764 4.553592 
L 480.251807 4.703588 
L 505.72285 4.58315 
L 531.193892 4.40872 
L 556.664935 4.477263 
L 582.135978 4.402949 
L 607.607021 4.358147 
L 633.078064 4.340852 
L 658.549107 4.270201 
L 684.02015 4.280811 
L 709.491192 4.258367 
L 721 4.259379 
" clip-path="url(#p1b32cc301d)" style="fill: none; stroke: #ff7f0e; stroke-linecap: square"/>
    <defs>
     <path id="m5d2b6e336c" d="M 0 2.12132 
L 2.12132 0 
L 0 -2.12132 
L -2.12132 0 
z
" style="stroke: #ff7f0e; stroke-linejoin: miter"/>
    </defs>
    <g clip-path="url(#p1b32cc301d)">
     <use xlink:href="#m5d2b6e336c" x="57.432495" y="184.024918" style="fill: #ff7f0e; stroke: #ff7f0e; stroke-linejoin: miter"/>
     <use xlink:href="#m5d2b6e336c" x="67.620912" y="180.026827" style="fill: #ff7f0e; stroke: #ff7f0e; stroke-linejoin: miter"/>
     <use xlink:href="#m5d2b6e336c" x="77.80933" y="172.05846" style="fill: #ff7f0e; stroke: #ff7f0e; stroke-linejoin: miter"/>
     <use xlink:href="#m5d2b6e336c" x="87.997747" y="155.89989" style="fill: #ff7f0e; stroke: #ff7f0e; stroke-linejoin: miter"/>
     <use xlink:href="#m5d2b6e336c" x="98.186164" y="172.223892" style="fill: #ff7f0e; stroke: #ff7f0e; stroke-linejoin: miter"/>
     <use xlink:href="#m5d2b6e336c" x="108.374581" y="124.118608" style="fill: #ff7f0e; stroke: #ff7f0e; stroke-linejoin: miter"/>
     <use xlink:href="#m5d2b6e336c" x="118.562998" y="112.277245" style="fill: #ff7f0e; stroke: #ff7f0e; stroke-linejoin: miter"/>
     <use xlink:href="#m5d2b6e336c" x="128.751415" y="104.763358" style="fill: #ff7f0e; stroke: #ff7f0e; stroke-linejoin: miter"/>
     <use xlink:href="#m5d2b6e336c" x="138.939832" y="116.025692" style="fill: #ff7f0e; stroke: #ff7f0e; stroke-linejoin: miter"/>
     <use xlink:href="#m5d2b6e336c" x="149.12825" y="85.494316" style="fill: #ff7f0e; stroke: #ff7f0e; stroke-linejoin: miter"/>
     <use xlink:href="#m5d2b6e336c" x="159.316667" y="65.653177" style="fill: #ff7f0e; stroke: #ff7f0e; stroke-linejoin: miter"/>
     <use xlink:href="#m5d2b6e336c" x="169.505084" y="24.983348" style="fill: #ff7f0e; stroke: #ff7f0e; stroke-linejoin: miter"/>
     <use xlink:href="#m5d2b6e336c" x="179.693501" y="29.174032" style="fill: #ff7f0e; stroke: #ff7f0e; stroke-linejoin: miter"/>
     <use xlink:href="#m5d2b6e336c" x="189.881918" y="10.329208" style="fill: #ff7f0e; stroke: #ff7f0e; stroke-linejoin: miter"/>
     <use xlink:href="#m5d2b6e336c" x="200.070335" y="12.614184" style="fill: #ff7f0e; stroke: #ff7f0e; stroke-linejoin: miter"/>
     <use xlink:href="#m5d2b6e336c" x="210.258752" y="19.12576" style="fill: #ff7f0e; stroke: #ff7f0e; stroke-linejoin: miter"/>
     <use xlink:href="#m5d2b6e336c" x="220.44717" y="15.828448" style="fill: #ff7f0e; stroke: #ff7f0e; stroke-linejoin: miter"/>
     <use xlink:href="#m5d2b6e336c" x="230.635587" y="8.509533" style="fill: #ff7f0e; stroke: #ff7f0e; stroke-linejoin: miter"/>
     <use xlink:href="#m5d2b6e336c" x="240.824004" y="11.886323" style="fill: #ff7f0e; stroke: #ff7f0e; stroke-linejoin: miter"/>
     <use xlink:href="#m5d2b6e336c" x="251.012421" y="8.025089" style="fill: #ff7f0e; stroke: #ff7f0e; stroke-linejoin: miter"/>
     <use xlink:href="#m5d2b6e336c" x="256.10663" y="7.956614" style="fill: #ff7f0e; stroke: #ff7f0e; stroke-linejoin: miter"/>
     <use xlink:href="#m5d2b6e336c" x="261.200838" y="7.629424" style="fill: #ff7f0e; stroke: #ff7f0e; stroke-linejoin: miter"/>
     <use xlink:href="#m5d2b6e336c" x="266.295047" y="7.231294" style="fill: #ff7f0e; stroke: #ff7f0e; stroke-linejoin: miter"/>
     <use xlink:href="#m5d2b6e336c" x="271.389255" y="6.383393" style="fill: #ff7f0e; stroke: #ff7f0e; stroke-linejoin: miter"/>
     <use xlink:href="#m5d2b6e336c" x="276.483464" y="6.49543" style="fill: #ff7f0e; stroke: #ff7f0e; stroke-linejoin: miter"/>
     <use xlink:href="#m5d2b6e336c" x="281.577672" y="6.018144" style="fill: #ff7f0e; stroke: #ff7f0e; stroke-linejoin: miter"/>
     <use xlink:href="#m5d2b6e336c" x="286.671881" y="6.191417" style="fill: #ff7f0e; stroke: #ff7f0e; stroke-linejoin: miter"/>
     <use xlink:href="#m5d2b6e336c" x="291.76609" y="6.788561" style="fill: #ff7f0e; stroke: #ff7f0e; stroke-linejoin: miter"/>
     <use xlink:href="#m5d2b6e336c" x="296.860298" y="6.299539" style="fill: #ff7f0e; stroke: #ff7f0e; stroke-linejoin: miter"/>
     <use xlink:href="#m5d2b6e336c" x="301.954507" y="5.837757" style="fill: #ff7f0e; stroke: #ff7f0e; stroke-linejoin: miter"/>
     <use xlink:href="#m5d2b6e336c" x="307.048715" y="5.890976" style="fill: #ff7f0e; stroke: #ff7f0e; stroke-linejoin: miter"/>
     <use xlink:href="#m5d2b6e336c" x="312.142924" y="6.100427" style="fill: #ff7f0e; stroke: #ff7f0e; stroke-linejoin: miter"/>
     <use xlink:href="#m5d2b6e336c" x="317.237132" y="6.211743" style="fill: #ff7f0e; stroke: #ff7f0e; stroke-linejoin: miter"/>
     <use xlink:href="#m5d2b6e336c" x="322.331341" y="5.902104" style="fill: #ff7f0e; stroke: #ff7f0e; stroke-linejoin: miter"/>
     <use xlink:href="#m5d2b6e336c" x="327.42555" y="5.635755" style="fill: #ff7f0e; stroke: #ff7f0e; stroke-linejoin: miter"/>
     <use xlink:href="#m5d2b6e336c" x="332.519758" y="5.527719" style="fill: #ff7f0e; stroke: #ff7f0e; stroke-linejoin: miter"/>
     <use xlink:href="#m5d2b6e336c" x="337.613967" y="5.490622" style="fill: #ff7f0e; stroke: #ff7f0e; stroke-linejoin: miter"/>
     <use xlink:href="#m5d2b6e336c" x="342.708175" y="5.729912" style="fill: #ff7f0e; stroke: #ff7f0e; stroke-linejoin: miter"/>
     <use xlink:href="#m5d2b6e336c" x="347.802384" y="5.847271" style="fill: #ff7f0e; stroke: #ff7f0e; stroke-linejoin: miter"/>
     <use xlink:href="#m5d2b6e336c" x="352.896592" y="5.434733" style="fill: #ff7f0e; stroke: #ff7f0e; stroke-linejoin: miter"/>
     <use xlink:href="#m5d2b6e336c" x="378.367635" y="5.180461" style="fill: #ff7f0e; stroke: #ff7f0e; stroke-linejoin: miter"/>
     <use xlink:href="#m5d2b6e336c" x="403.838678" y="5.06385" style="fill: #ff7f0e; stroke: #ff7f0e; stroke-linejoin: miter"/>
     <use xlink:href="#m5d2b6e336c" x="429.309721" y="4.828314" style="fill: #ff7f0e; stroke: #ff7f0e; stroke-linejoin: miter"/>
     <use xlink:href="#m5d2b6e336c" x="454.780764" y="4.553592" style="fill: #ff7f0e; stroke: #ff7f0e; stroke-linejoin: miter"/>
     <use xlink:href="#m5d2b6e336c" x="480.251807" y="4.703588" style="fill: #ff7f0e; stroke: #ff7f0e; stroke-linejoin: miter"/>
     <use xlink:href="#m5d2b6e336c" x="505.72285" y="4.58315" style="fill: #ff7f0e; stroke: #ff7f0e; stroke-linejoin: miter"/>
     <use xlink:href="#m5d2b6e336c" x="531.193892" y="4.40872" style="fill: #ff7f0e; stroke: #ff7f0e; stroke-linejoin: miter"/>
     <use xlink:href="#m5d2b6e336c" x="556.664935" y="4.477263" style="fill: #ff7f0e; stroke: #ff7f0e; stroke-linejoin: miter"/>
     <use xlink:href="#m5d2b6e336c" x="582.135978" y="4.402949" style="fill: #ff7f0e; stroke: #ff7f0e; stroke-linejoin: miter"/>
     <use xlink:href="#m5d2b6e336c" x="607.607021" y="4.358147" style="fill: #ff7f0e; stroke: #ff7f0e; stroke-linejoin: miter"/>
     <use xlink:href="#m5d2b6e336c" x="633.078064" y="4.340852" style="fill: #ff7f0e; stroke: #ff7f0e; stroke-linejoin: miter"/>
     <use xlink:href="#m5d2b6e336c" x="658.549107" y="4.270201" style="fill: #ff7f0e; stroke: #ff7f0e; stroke-linejoin: miter"/>
     <use xlink:href="#m5d2b6e336c" x="684.02015" y="4.280811" style="fill: #ff7f0e; stroke: #ff7f0e; stroke-linejoin: miter"/>
     <use xlink:href="#m5d2b6e336c" x="709.491192" y="4.258367" style="fill: #ff7f0e; stroke: #ff7f0e; stroke-linejoin: miter"/>
     <use xlink:href="#m5d2b6e336c" x="734.962235" y="4.260606" style="fill: #ff7f0e; stroke: #ff7f0e; stroke-linejoin: miter"/>
     <use xlink:href="#m5d2b6e336c" x="760.433278" y="4.239622" style="fill: #ff7f0e; stroke: #ff7f0e; stroke-linejoin: miter"/>
     <use xlink:href="#m5d2b6e336c" x="785.904321" y="4.239622" style="fill: #ff7f0e; stroke: #ff7f0e; stroke-linejoin: miter"/>
     <use xlink:href="#m5d2b6e336c" x="811.375364" y="4.250427" style="fill: #ff7f0e; stroke: #ff7f0e; stroke-linejoin: miter"/>
    </g>
   </g>
   <g id="line2d_19">
    <path d="M 57.432495 184.072377 
L 67.620912 180.109449 
L 77.80933 172.468645 
L 87.997747 156.897992 
L 98.186164 172.311372 
L 108.374581 127.589866 
L 118.562998 117.439922 
L 128.751415 110.745278 
L 138.939832 119.510556 
L 149.12825 93.523117 
L 159.316667 76.582195 
L 169.505084 42.281199 
L 179.693501 45.558292 
L 189.881918 30.109666 
L 200.070335 32.762421 
L 210.258752 35.346993 
L 220.44717 33.691622 
L 230.635587 28.711906 
L 240.824004 31.101466 
L 251.012421 28.209226 
L 256.10663 26.775363 
L 261.200838 26.691461 
L 266.295047 25.614916 
L 271.389255 24.131267 
L 276.483464 24.824465 
L 281.577672 23.250827 
L 286.671881 24.407162 
L 291.76609 25.349932 
L 296.860298 24.417528 
L 301.954507 23.160927 
L 307.048715 22.387073 
L 312.142924 22.985534 
L 317.237132 22.60142 
L 322.331341 22.818918 
L 327.42555 22.038734 
L 332.519758 21.95316 
L 337.613967 22.499706 
L 342.708175 22.519931 
L 347.802384 22.428441 
L 352.896592 21.574765 
L 378.367635 20.305268 
L 403.838678 20.531917 
L 429.309721 18.562277 
L 454.780764 18.156157 
L 480.251807 18.468264 
L 505.72285 17.492193 
L 531.193892 17.498368 
L 556.664935 17.508427 
L 582.135978 16.524291 
L 607.607021 16.047433 
L 633.078064 16.651461 
L 658.549107 15.341189 
L 684.02015 15.740921 
L 709.491192 14.885578 
L 721 14.908494 
" clip-path="url(#p1b32cc301d)" style="fill: none; stroke: #1f77b4; stroke-linecap: square"/>
    <defs>
     <path id="m41e005f34d" d="M 0 2.12132 
L 2.12132 0 
L 0 -2.12132 
L -2.12132 0 
z
" style="stroke: #1f77b4; stroke-linejoin: miter"/>
    </defs>
    <g clip-path="url(#p1b32cc301d)">
     <use xlink:href="#m41e005f34d" x="57.432495" y="184.072377" style="fill: #1f77b4; stroke: #1f77b4; stroke-linejoin: miter"/>
     <use xlink:href="#m41e005f34d" x="67.620912" y="180.109449" style="fill: #1f77b4; stroke: #1f77b4; stroke-linejoin: miter"/>
     <use xlink:href="#m41e005f34d" x="77.80933" y="172.468645" style="fill: #1f77b4; stroke: #1f77b4; stroke-linejoin: miter"/>
     <use xlink:href="#m41e005f34d" x="87.997747" y="156.897992" style="fill: #1f77b4; stroke: #1f77b4; stroke-linejoin: miter"/>
     <use xlink:href="#m41e005f34d" x="98.186164" y="172.311372" style="fill: #1f77b4; stroke: #1f77b4; stroke-linejoin: miter"/>
     <use xlink:href="#m41e005f34d" x="108.374581" y="127.589866" style="fill: #1f77b4; stroke: #1f77b4; stroke-linejoin: miter"/>
     <use xlink:href="#m41e005f34d" x="118.562998" y="117.439922" style="fill: #1f77b4; stroke: #1f77b4; stroke-linejoin: miter"/>
     <use xlink:href="#m41e005f34d" x="128.751415" y="110.745278" style="fill: #1f77b4; stroke: #1f77b4; stroke-linejoin: miter"/>
     <use xlink:href="#m41e005f34d" x="138.939832" y="119.510556" style="fill: #1f77b4; stroke: #1f77b4; stroke-linejoin: miter"/>
     <use xlink:href="#m41e005f34d" x="149.12825" y="93.523117" style="fill: #1f77b4; stroke: #1f77b4; stroke-linejoin: miter"/>
     <use xlink:href="#m41e005f34d" x="159.316667" y="76.582195" style="fill: #1f77b4; stroke: #1f77b4; stroke-linejoin: miter"/>
     <use xlink:href="#m41e005f34d" x="169.505084" y="42.281199" style="fill: #1f77b4; stroke: #1f77b4; stroke-linejoin: miter"/>
     <use xlink:href="#m41e005f34d" x="179.693501" y="45.558292" style="fill: #1f77b4; stroke: #1f77b4; stroke-linejoin: miter"/>
     <use xlink:href="#m41e005f34d" x="189.881918" y="30.109666" style="fill: #1f77b4; stroke: #1f77b4; stroke-linejoin: miter"/>
     <use xlink:href="#m41e005f34d" x="200.070335" y="32.762421" style="fill: #1f77b4; stroke: #1f77b4; stroke-linejoin: miter"/>
     <use xlink:href="#m41e005f34d" x="210.258752" y="35.346993" style="fill: #1f77b4; stroke: #1f77b4; stroke-linejoin: miter"/>
     <use xlink:href="#m41e005f34d" x="220.44717" y="33.691622" style="fill: #1f77b4; stroke: #1f77b4; stroke-linejoin: miter"/>
     <use xlink:href="#m41e005f34d" x="230.635587" y="28.711906" style="fill: #1f77b4; stroke: #1f77b4; stroke-linejoin: miter"/>
     <use xlink:href="#m41e005f34d" x="240.824004" y="31.101466" style="fill: #1f77b4; stroke: #1f77b4; stroke-linejoin: miter"/>
     <use xlink:href="#m41e005f34d" x="251.012421" y="28.209226" style="fill: #1f77b4; stroke: #1f77b4; stroke-linejoin: miter"/>
     <use xlink:href="#m41e005f34d" x="256.10663" y="26.775363" style="fill: #1f77b4; stroke: #1f77b4; stroke-linejoin: miter"/>
     <use xlink:href="#m41e005f34d" x="261.200838" y="26.691461" style="fill: #1f77b4; stroke: #1f77b4; stroke-linejoin: miter"/>
     <use xlink:href="#m41e005f34d" x="266.295047" y="25.614916" style="fill: #1f77b4; stroke: #1f77b4; stroke-linejoin: miter"/>
     <use xlink:href="#m41e005f34d" x="271.389255" y="24.131267" style="fill: #1f77b4; stroke: #1f77b4; stroke-linejoin: miter"/>
     <use xlink:href="#m41e005f34d" x="276.483464" y="24.824465" style="fill: #1f77b4; stroke: #1f77b4; stroke-linejoin: miter"/>
     <use xlink:href="#m41e005f34d" x="281.577672" y="23.250827" style="fill: #1f77b4; stroke: #1f77b4; stroke-linejoin: miter"/>
     <use xlink:href="#m41e005f34d" x="286.671881" y="24.407162" style="fill: #1f77b4; stroke: #1f77b4; stroke-linejoin: miter"/>
     <use xlink:href="#m41e005f34d" x="291.76609" y="25.349932" style="fill: #1f77b4; stroke: #1f77b4; stroke-linejoin: miter"/>
     <use xlink:href="#m41e005f34d" x="296.860298" y="24.417528" style="fill: #1f77b4; stroke: #1f77b4; stroke-linejoin: miter"/>
     <use xlink:href="#m41e005f34d" x="301.954507" y="23.160927" style="fill: #1f77b4; stroke: #1f77b4; stroke-linejoin: miter"/>
     <use xlink:href="#m41e005f34d" x="307.048715" y="22.387073" style="fill: #1f77b4; stroke: #1f77b4; stroke-linejoin: miter"/>
     <use xlink:href="#m41e005f34d" x="312.142924" y="22.985534" style="fill: #1f77b4; stroke: #1f77b4; stroke-linejoin: miter"/>
     <use xlink:href="#m41e005f34d" x="317.237132" y="22.60142" style="fill: #1f77b4; stroke: #1f77b4; stroke-linejoin: miter"/>
     <use xlink:href="#m41e005f34d" x="322.331341" y="22.818918" style="fill: #1f77b4; stroke: #1f77b4; stroke-linejoin: miter"/>
     <use xlink:href="#m41e005f34d" x="327.42555" y="22.038734" style="fill: #1f77b4; stroke: #1f77b4; stroke-linejoin: miter"/>
     <use xlink:href="#m41e005f34d" x="332.519758" y="21.95316" style="fill: #1f77b4; stroke: #1f77b4; stroke-linejoin: miter"/>
     <use xlink:href="#m41e005f34d" x="337.613967" y="22.499706" style="fill: #1f77b4; stroke: #1f77b4; stroke-linejoin: miter"/>
     <use xlink:href="#m41e005f34d" x="342.708175" y="22.519931" style="fill: #1f77b4; stroke: #1f77b4; stroke-linejoin: miter"/>
     <use xlink:href="#m41e005f34d" x="347.802384" y="22.428441" style="fill: #1f77b4; stroke: #1f77b4; stroke-linejoin: miter"/>
     <use xlink:href="#m41e005f34d" x="352.896592" y="21.574765" style="fill: #1f77b4; stroke: #1f77b4; stroke-linejoin: miter"/>
     <use xlink:href="#m41e005f34d" x="378.367635" y="20.305268" style="fill: #1f77b4; stroke: #1f77b4; stroke-linejoin: miter"/>
     <use xlink:href="#m41e005f34d" x="403.838678" y="20.531917" style="fill: #1f77b4; stroke: #1f77b4; stroke-linejoin: miter"/>
     <use xlink:href="#m41e005f34d" x="429.309721" y="18.562277" style="fill: #1f77b4; stroke: #1f77b4; stroke-linejoin: miter"/>
     <use xlink:href="#m41e005f34d" x="454.780764" y="18.156157" style="fill: #1f77b4; stroke: #1f77b4; stroke-linejoin: miter"/>
     <use xlink:href="#m41e005f34d" x="480.251807" y="18.468264" style="fill: #1f77b4; stroke: #1f77b4; stroke-linejoin: miter"/>
     <use xlink:href="#m41e005f34d" x="505.72285" y="17.492193" style="fill: #1f77b4; stroke: #1f77b4; stroke-linejoin: miter"/>
     <use xlink:href="#m41e005f34d" x="531.193892" y="17.498368" style="fill: #1f77b4; stroke: #1f77b4; stroke-linejoin: miter"/>
     <use xlink:href="#m41e005f34d" x="556.664935" y="17.508427" style="fill: #1f77b4; stroke: #1f77b4; stroke-linejoin: miter"/>
     <use xlink:href="#m41e005f34d" x="582.135978" y="16.524291" style="fill: #1f77b4; stroke: #1f77b4; stroke-linejoin: miter"/>
     <use xlink:href="#m41e005f34d" x="607.607021" y="16.047433" style="fill: #1f77b4; stroke: #1f77b4; stroke-linejoin: miter"/>
     <use xlink:href="#m41e005f34d" x="633.078064" y="16.651461" style="fill: #1f77b4; stroke: #1f77b4; stroke-linejoin: miter"/>
     <use xlink:href="#m41e005f34d" x="658.549107" y="15.341189" style="fill: #1f77b4; stroke: #1f77b4; stroke-linejoin: miter"/>
     <use xlink:href="#m41e005f34d" x="684.02015" y="15.740921" style="fill: #1f77b4; stroke: #1f77b4; stroke-linejoin: miter"/>
     <use xlink:href="#m41e005f34d" x="709.491192" y="14.885578" style="fill: #1f77b4; stroke: #1f77b4; stroke-linejoin: miter"/>
     <use xlink:href="#m41e005f34d" x="734.962235" y="14.936297" style="fill: #1f77b4; stroke: #1f77b4; stroke-linejoin: miter"/>
     <use xlink:href="#m41e005f34d" x="760.433278" y="14.97107" style="fill: #1f77b4; stroke: #1f77b4; stroke-linejoin: miter"/>
     <use xlink:href="#m41e005f34d" x="785.904321" y="14.991486" style="fill: #1f77b4; stroke: #1f77b4; stroke-linejoin: miter"/>
     <use xlink:href="#m41e005f34d" x="811.375364" y="15.045496" style="fill: #1f77b4; stroke: #1f77b4; stroke-linejoin: miter"/>
    </g>
   </g>
   <g id="patch_3">
    <path d="M 47.18 208.456 
L 47.18 0.155294 
" style="fill: none; stroke: #000000; stroke-width: 0.8; stroke-linejoin: miter; stroke-linecap: square"/>
   </g>
   <g id="patch_4">
    <path d="M 720 208.456 
L 720 0.155294 
" style="fill: none; stroke: #000000; stroke-width: 0.8; stroke-linejoin: miter; stroke-linecap: square"/>
   </g>
   <g id="patch_5">
    <path d="M 47.18 208.456 
L 720 208.456 
" style="fill: none; stroke: #000000; stroke-width: 0.8; stroke-linejoin: miter; stroke-linecap: square"/>
   </g>
   <g id="patch_6">
    <path d="M 47.18 0.155294 
L 720 0.155294 
" style="fill: none; stroke: #000000; stroke-width: 0.8; stroke-linejoin: miter; stroke-linecap: square"/>
   </g>
   <g id="legend_1">
    <g id="patch_7">
     <path d="M 564.545313 203.456 
L 713 203.456 
Q 715 203.456 715 201.456 
L 715 158.421625 
Q 715 156.421625 713 156.421625 
L 564.545313 156.421625 
Q 562.545313 156.421625 562.545313 158.421625 
L 562.545313 201.456 
Q 562.545313 203.456 564.545313 203.456 
z
" style="fill: #ffffff; opacity: 0.8; stroke: #cccccc; stroke-linejoin: miter"/>
    </g>
    <g id="line2d_20">
     <path d="M 566.545313 164.520062 
L 576.545313 164.520062 
L 586.545313 164.520062 
" style="fill: none; stroke-dasharray: 9.25,4; stroke-dashoffset: 0; stroke: #000000; stroke-width: 2.5"/>
    </g>
    <g id="text_18">
     <!-- Interpolation Threshold -->
     <g transform="translate(594.545313 168.020062)scale(0.1 -0.1)">
      <defs>
       <path id="DejaVuSans-49" d="M 628 4666 
L 1259 4666 
L 1259 0 
L 628 0 
L 628 4666 
z
" transform="scale(0.015625)"/>
       <path id="DejaVuSans-6e" d="M 3513 2113 
L 3513 0 
L 2938 0 
L 2938 2094 
Q 2938 2591 2744 2837 
Q 2550 3084 2163 3084 
Q 1697 3084 1428 2787 
Q 1159 2491 1159 1978 
L 1159 0 
L 581 0 
L 581 3500 
L 1159 3500 
L 1159 2956 
Q 1366 3272 1645 3428 
Q 1925 3584 2291 3584 
Q 2894 3584 3203 3211 
Q 3513 2838 3513 2113 
z
" transform="scale(0.015625)"/>
       <path id="DejaVuSans-74" d="M 1172 4494 
L 1172 3500 
L 2356 3500 
L 2356 3053 
L 1172 3053 
L 1172 1153 
Q 1172 725 1289 603 
Q 1406 481 1766 481 
L 2356 481 
L 2356 0 
L 1766 0 
Q 1100 0 847 248 
Q 594 497 594 1153 
L 594 3053 
L 172 3053 
L 172 3500 
L 594 3500 
L 594 4494 
L 1172 4494 
z
" transform="scale(0.015625)"/>
       <path id="DejaVuSans-65" d="M 3597 1894 
L 3597 1613 
L 953 1613 
Q 991 1019 1311 708 
Q 1631 397 2203 397 
Q 2534 397 2845 478 
Q 3156 559 3463 722 
L 3463 178 
Q 3153 47 2828 -22 
Q 2503 -91 2169 -91 
Q 1331 -91 842 396 
Q 353 884 353 1716 
Q 353 2575 817 3079 
Q 1281 3584 2069 3584 
Q 2775 3584 3186 3129 
Q 3597 2675 3597 1894 
z
M 3022 2063 
Q 3016 2534 2758 2815 
Q 2500 3097 2075 3097 
Q 1594 3097 1305 2825 
Q 1016 2553 972 2059 
L 3022 2063 
z
" transform="scale(0.015625)"/>
       <path id="DejaVuSans-72" d="M 2631 2963 
Q 2534 3019 2420 3045 
Q 2306 3072 2169 3072 
Q 1681 3072 1420 2755 
Q 1159 2438 1159 1844 
L 1159 0 
L 581 0 
L 581 3500 
L 1159 3500 
L 1159 2956 
Q 1341 3275 1631 3429 
Q 1922 3584 2338 3584 
Q 2397 3584 2469 3576 
Q 2541 3569 2628 3553 
L 2631 2963 
z
" transform="scale(0.015625)"/>
       <path id="DejaVuSans-70" d="M 1159 525 
L 1159 -1331 
L 581 -1331 
L 581 3500 
L 1159 3500 
L 1159 2969 
Q 1341 3281 1617 3432 
Q 1894 3584 2278 3584 
Q 2916 3584 3314 3078 
Q 3713 2572 3713 1747 
Q 3713 922 3314 415 
Q 2916 -91 2278 -91 
Q 1894 -91 1617 61 
Q 1341 213 1159 525 
z
M 3116 1747 
Q 3116 2381 2855 2742 
Q 2594 3103 2138 3103 
Q 1681 3103 1420 2742 
Q 1159 2381 1159 1747 
Q 1159 1113 1420 752 
Q 1681 391 2138 391 
Q 2594 391 2855 752 
Q 3116 1113 3116 1747 
z
" transform="scale(0.015625)"/>
       <path id="DejaVuSans-6f" d="M 1959 3097 
Q 1497 3097 1228 2736 
Q 959 2375 959 1747 
Q 959 1119 1226 758 
Q 1494 397 1959 397 
Q 2419 397 2687 759 
Q 2956 1122 2956 1747 
Q 2956 2369 2687 2733 
Q 2419 3097 1959 3097 
z
M 1959 3584 
Q 2709 3584 3137 3096 
Q 3566 2609 3566 1747 
Q 3566 888 3137 398 
Q 2709 -91 1959 -91 
Q 1206 -91 779 398 
Q 353 888 353 1747 
Q 353 2609 779 3096 
Q 1206 3584 1959 3584 
z
" transform="scale(0.015625)"/>
       <path id="DejaVuSans-6c" d="M 603 4863 
L 1178 4863 
L 1178 0 
L 603 0 
L 603 4863 
z
" transform="scale(0.015625)"/>
       <path id="DejaVuSans-61" d="M 2194 1759 
Q 1497 1759 1228 1600 
Q 959 1441 959 1056 
Q 959 750 1161 570 
Q 1363 391 1709 391 
Q 2188 391 2477 730 
Q 2766 1069 2766 1631 
L 2766 1759 
L 2194 1759 
z
M 3341 1997 
L 3341 0 
L 2766 0 
L 2766 531 
Q 2569 213 2275 61 
Q 1981 -91 1556 -91 
Q 1019 -91 701 211 
Q 384 513 384 1019 
Q 384 1609 779 1909 
Q 1175 2209 1959 2209 
L 2766 2209 
L 2766 2266 
Q 2766 2663 2505 2880 
Q 2244 3097 1772 3097 
Q 1472 3097 1187 3025 
Q 903 2953 641 2809 
L 641 3341 
Q 956 3463 1253 3523 
Q 1550 3584 1831 3584 
Q 2591 3584 2966 3190 
Q 3341 2797 3341 1997 
z
" transform="scale(0.015625)"/>
       <path id="DejaVuSans-69" d="M 603 3500 
L 1178 3500 
L 1178 0 
L 603 0 
L 603 3500 
z
M 603 4863 
L 1178 4863 
L 1178 4134 
L 603 4134 
L 603 4863 
z
" transform="scale(0.015625)"/>
       <path id="DejaVuSans-54" d="M -19 4666 
L 3928 4666 
L 3928 4134 
L 2272 4134 
L 2272 0 
L 1638 0 
L 1638 4134 
L -19 4134 
L -19 4666 
z
" transform="scale(0.015625)"/>
       <path id="DejaVuSans-68" d="M 3513 2113 
L 3513 0 
L 2938 0 
L 2938 2094 
Q 2938 2591 2744 2837 
Q 2550 3084 2163 3084 
Q 1697 3084 1428 2787 
Q 1159 2491 1159 1978 
L 1159 0 
L 581 0 
L 581 4863 
L 1159 4863 
L 1159 2956 
Q 1366 3272 1645 3428 
Q 1925 3584 2291 3584 
Q 2894 3584 3203 3211 
Q 3513 2838 3513 2113 
z
" transform="scale(0.015625)"/>
       <path id="DejaVuSans-73" d="M 2834 3397 
L 2834 2853 
Q 2591 2978 2328 3040 
Q 2066 3103 1784 3103 
Q 1356 3103 1142 2972 
Q 928 2841 928 2578 
Q 928 2378 1081 2264 
Q 1234 2150 1697 2047 
L 1894 2003 
Q 2506 1872 2764 1633 
Q 3022 1394 3022 966 
Q 3022 478 2636 193 
Q 2250 -91 1575 -91 
Q 1294 -91 989 -36 
Q 684 19 347 128 
L 347 722 
Q 666 556 975 473 
Q 1284 391 1588 391 
Q 1994 391 2212 530 
Q 2431 669 2431 922 
Q 2431 1156 2273 1281 
Q 2116 1406 1581 1522 
L 1381 1569 
Q 847 1681 609 1914 
Q 372 2147 372 2553 
Q 372 3047 722 3315 
Q 1072 3584 1716 3584 
Q 2034 3584 2315 3537 
Q 2597 3491 2834 3397 
z
" transform="scale(0.015625)"/>
       <path id="DejaVuSans-64" d="M 2906 2969 
L 2906 4863 
L 3481 4863 
L 3481 0 
L 2906 0 
L 2906 525 
Q 2725 213 2448 61 
Q 2172 -91 1784 -91 
Q 1150 -91 751 415 
Q 353 922 353 1747 
Q 353 2572 751 3078 
Q 1150 3584 1784 3584 
Q 2172 3584 2448 3432 
Q 2725 3281 2906 2969 
z
M 947 1747 
Q 947 1113 1208 752 
Q 1469 391 1925 391 
Q 2381 391 2643 752 
Q 2906 1113 2906 1747 
Q 2906 2381 2643 2742 
Q 2381 3103 1925 3103 
Q 1469 3103 1208 2742 
Q 947 2381 947 1747 
z
" transform="scale(0.015625)"/>
      </defs>
      <use xlink:href="#DejaVuSans-49"/>
      <use xlink:href="#DejaVuSans-6e" x="29.492188"/>
      <use xlink:href="#DejaVuSans-74" x="92.871094"/>
      <use xlink:href="#DejaVuSans-65" x="132.080078"/>
      <use xlink:href="#DejaVuSans-72" x="193.603516"/>
      <use xlink:href="#DejaVuSans-70" x="234.716797"/>
      <use xlink:href="#DejaVuSans-6f" x="298.193359"/>
      <use xlink:href="#DejaVuSans-6c" x="359.375"/>
      <use xlink:href="#DejaVuSans-61" x="387.158203"/>
      <use xlink:href="#DejaVuSans-74" x="448.4375"/>
      <use xlink:href="#DejaVuSans-69" x="487.646484"/>
      <use xlink:href="#DejaVuSans-6f" x="515.429688"/>
      <use xlink:href="#DejaVuSans-6e" x="576.611328"/>
      <use xlink:href="#DejaVuSans-20" x="639.990234"/>
      <use xlink:href="#DejaVuSans-54" x="671.777344"/>
      <use xlink:href="#DejaVuSans-68" x="732.861328"/>
      <use xlink:href="#DejaVuSans-72" x="796.240234"/>
      <use xlink:href="#DejaVuSans-65" x="835.103516"/>
      <use xlink:href="#DejaVuSans-73" x="896.626953"/>
      <use xlink:href="#DejaVuSans-68" x="948.726562"/>
      <use xlink:href="#DejaVuSans-6f" x="1012.105469"/>
      <use xlink:href="#DejaVuSans-6c" x="1073.287109"/>
      <use xlink:href="#DejaVuSans-64" x="1101.070312"/>
     </g>
    </g>
    <g id="line2d_21">
     <path d="M 566.545313 179.198187 
L 576.545313 179.198187 
L 586.545313 179.198187 
" style="fill: none; stroke: #ff7f0e; stroke-linecap: square"/>
     <g>
      <use xlink:href="#m5d2b6e336c" x="576.545313" y="179.198187" style="fill: #ff7f0e; stroke: #ff7f0e; stroke-linejoin: miter"/>
     </g>
    </g>
    <g id="text_19">
     <!-- Train -->
     <g transform="translate(594.545313 182.698187)scale(0.1 -0.1)">
      <use xlink:href="#DejaVuSans-54"/>
      <use xlink:href="#DejaVuSans-72" x="46.333984"/>
      <use xlink:href="#DejaVuSans-61" x="87.447266"/>
      <use xlink:href="#DejaVuSans-69" x="148.726562"/>
      <use xlink:href="#DejaVuSans-6e" x="176.509766"/>
     </g>
    </g>
    <g id="line2d_22">
     <path d="M 566.545313 193.876312 
L 576.545313 193.876312 
L 586.545313 193.876312 
" style="fill: none; stroke: #1f77b4; stroke-linecap: square"/>
     <g>
      <use xlink:href="#m41e005f34d" x="576.545313" y="193.876312" style="fill: #1f77b4; stroke: #1f77b4; stroke-linejoin: miter"/>
     </g>
    </g>
    <g id="text_20">
     <!-- Test -->
     <g transform="translate(594.545313 197.376312)scale(0.1 -0.1)">
      <use xlink:href="#DejaVuSans-54"/>
      <use xlink:href="#DejaVuSans-65" x="44.083984"/>
      <use xlink:href="#DejaVuSans-73" x="105.607422"/>
      <use xlink:href="#DejaVuSans-74" x="157.707031"/>
     </g>
    </g>
   </g>
  </g>
 </g>
 <defs>
  <clipPath id="p1b32cc301d">
   <rect x="47.18" y="0.155294" width="672.82" height="208.300706"/>
  </clipPath>
 </defs>
</svg>
