<?xml version="1.0" encoding="utf-8" standalone="no"?>
<!DOCTYPE svg PUBLIC "-//W3C//DTD SVG 1.1//EN"
  "http://www.w3.org/Graphics/SVG/1.1/DTD/svg11.dtd">
<svg xmlns:xlink="http://www.w3.org/1999/xlink" width="720pt" height="252pt" viewBox="0 0 720 252" xmlns="http://www.w3.org/2000/svg" version="1.1">
 <metadata>
  <rdf:RDF xmlns:dc="http://purl.org/dc/elements/1.1/" xmlns:cc="http://creativecommons.org/ns#" xmlns:rdf="http://www.w3.org/1999/02/22-rdf-syntax-ns#">
   <cc:Work>
    <dc:type rdf:resource="http://purl.org/dc/dcmitype/StillImage"/>
    <dc:date>2023-10-22T21:38:15.639592</dc:date>
    <dc:format>image/svg+xml</dc:format>
    <dc:creator>
     <cc:Agent>
      <dc:title>Matplotlib v3.5.3, https://matplotlib.org/</dc:title>
     </cc:Agent>
    </dc:creator>
   </cc:Work>
  </rdf:RDF>
 </metadata>
 <defs>
  <style type="text/css">*{stroke-linejoin: round; stroke-linecap: butt}</style>
 </defs>
 <g id="figure_1">
  <g id="patch_1">
   <path d="M 0 252 
L 720 252 
L 720 0 
L 0 0 
z
" style="fill: #ffffff"/>
  </g>
  <g id="axes_1">
   <g id="patch_2">
    <path d="M 47.27 208.456 
L 720 208.456 
L 720 0 
L 47.27 0 
z
" style="fill: #ffffff"/>
   </g>
   <g id="PolyCollection_1">
    <path d="M 57.521124 46.264397 
L 57.521124 60.695276 
L 67.708178 47.68593 
L 77.895232 61.474516 
L 88.082287 89.51461 
L 98.269341 78.335487 
L 108.456395 100.64993 
L 118.64345 121.716375 
L 128.830504 134.30524 
L 139.017558 124.818105 
L 149.204612 130.228111 
L 159.391667 150.352154 
L 169.578721 140.342333 
L 179.765775 174.679953 
L 189.95283 169.601158 
L 200.139884 155.420337 
L 210.326938 181.90642 
L 220.513992 173.107915 
L 230.701047 176.65517 
L 240.888101 178.456477 
L 251.075155 181.351119 
L 256.168682 182.898653 
L 261.26221 178.458646 
L 266.355737 180.330742 
L 271.449264 180.537314 
L 276.542791 179.246504 
L 281.636318 182.213092 
L 286.729845 183.182492 
L 291.823372 183.075773 
L 296.9169 183.881956 
L 302.010427 180.661924 
L 307.103954 184.440058 
L 312.197481 183.497483 
L 317.291008 185.222927 
L 322.384535 182.839178 
L 327.478062 186.490962 
L 332.57159 185.503001 
L 337.665117 185.455677 
L 342.758644 186.322416 
L 347.852171 185.650232 
L 352.945698 185.392093 
L 378.413334 185.980936 
L 403.88097 188.593208 
L 429.348605 188.40465 
L 454.816241 188.223586 
L 480.283877 189.850223 
L 505.751512 188.902561 
L 531.219148 191.666921 
L 556.686784 191.667521 
L 582.15442 191.003362 
L 607.622055 192.7923 
L 633.089691 193.111904 
L 658.557327 195.015205 
L 684.024962 193.806692 
L 709.492598 195.559284 
L 734.960234 195.895063 
L 760.42787 194.649579 
L 785.895505 196.263022 
L 811.363141 195.259516 
L 811.363141 194.067895 
L 811.363141 194.067895 
L 785.895505 193.966779 
L 760.42787 192.094295 
L 734.960234 191.143144 
L 709.492598 193.140518 
L 684.024962 190.78177 
L 658.557327 190.79347 
L 633.089691 191.701744 
L 607.622055 190.390696 
L 582.15442 189.543264 
L 556.686784 189.097148 
L 531.219148 188.857484 
L 505.751512 186.155143 
L 480.283877 187.616749 
L 454.816241 184.512665 
L 429.348605 184.959273 
L 403.88097 184.488574 
L 378.413334 180.787451 
L 352.945698 182.380829 
L 347.852171 180.241554 
L 342.758644 181.65056 
L 337.665117 180.842206 
L 332.57159 182.436483 
L 327.478062 172.415284 
L 322.384535 175.748114 
L 317.291008 179.031541 
L 312.197481 176.539089 
L 307.103954 179.157378 
L 302.010427 173.472783 
L 296.9169 178.498586 
L 291.823372 172.903322 
L 286.729845 173.39141 
L 281.636318 156.511252 
L 276.542791 168.799939 
L 271.449264 166.917385 
L 266.355737 174.19326 
L 261.26221 171.132345 
L 256.168682 170.651168 
L 251.075155 138.295009 
L 240.888101 173.25481 
L 230.701047 169.31242 
L 220.513992 126.214966 
L 210.326938 147.424494 
L 200.139884 121.810349 
L 189.95283 110.331921 
L 179.765775 115.860975 
L 169.578721 101.624612 
L 159.391667 100.506258 
L 149.204612 87.801117 
L 139.017558 79.865508 
L 128.830504 91.923076 
L 118.64345 76.7433 
L 108.456395 70.966494 
L 98.269341 46.75198 
L 88.082287 46.010064 
L 77.895232 46.114047 
L 67.708178 47.498478 
L 57.521124 46.264397 
z
" clip-path="url(#p338491cdf8)" style="fill: #ff7f0e; fill-opacity: 0.3; stroke: #ff7f0e; stroke-opacity: 0.3"/>
   </g>
   <g id="PolyCollection_2">
    <path d="M 57.521124 46.009757 
L 57.521124 55.706187 
L 67.708178 47.62902 
L 77.895232 59.867663 
L 88.082287 65.002028 
L 98.269341 65.332394 
L 108.456395 72.897999 
L 118.64345 76.770891 
L 128.830504 78.530633 
L 139.017558 78.804456 
L 149.204612 81.811229 
L 159.391667 79.807626 
L 169.578721 83.987479 
L 179.765775 83.003633 
L 189.95283 82.036148 
L 200.139884 80.881163 
L 210.326938 75.608373 
L 220.513992 80.228313 
L 230.701047 70.996691 
L 240.888101 74.476032 
L 251.075155 76.04397 
L 256.168682 73.855779 
L 261.26221 61.727939 
L 266.355737 61.055418 
L 271.449264 66.377786 
L 276.542791 75.175061 
L 281.636318 78.549135 
L 286.729845 64.390922 
L 291.823372 61.220671 
L 296.9169 62.841859 
L 302.010427 70.670427 
L 307.103954 53.181699 
L 312.197481 52.077941 
L 317.291008 57.243492 
L 322.384535 71.652105 
L 327.478062 64.278299 
L 332.57159 62.008274 
L 337.665117 68.73762 
L 342.758644 66.122989 
L 347.852171 69.575204 
L 352.945698 72.548805 
L 378.413334 75.703685 
L 403.88097 80.298034 
L 429.348605 86.529855 
L 454.816241 93.63633 
L 480.283877 96.635574 
L 505.751512 92.556865 
L 531.219148 99.01767 
L 556.686784 101.609404 
L 582.15442 107.901269 
L 607.622055 114.582946 
L 633.089691 109.47972 
L 658.557327 118.491593 
L 684.024962 112.935652 
L 709.492598 114.831767 
L 734.960234 116.009006 
L 760.42787 117.143742 
L 785.895505 111.35487 
L 811.363141 115.237067 
L 811.363141 99.59312 
L 811.363141 99.59312 
L 785.895505 108.112754 
L 760.42787 101.335947 
L 734.960234 108.229788 
L 709.492598 108.06146 
L 684.024962 89.768018 
L 658.557327 95.306028 
L 633.089691 93.385895 
L 607.622055 104.387092 
L 582.15442 90.504414 
L 556.686784 88.1432 
L 531.219148 89.351048 
L 505.751512 58.607137 
L 480.283877 73.44262 
L 454.816241 58.529585 
L 429.348605 44.427295 
L 403.88097 48.236431 
L 378.413334 40.548645 
L 352.945698 36.688686 
L 347.852171 32.822412 
L 342.758644 39.157048 
L 337.665117 31.551158 
L 332.57159 36.53042 
L 327.478062 39.153477 
L 322.384535 36.23689 
L 317.291008 28.988213 
L 312.197481 36.184915 
L 307.103954 20.959626 
L 302.010427 27.90085 
L 296.9169 9.872912 
L 291.823372 28.941715 
L 286.729845 9.475273 
L 281.636318 56.235908 
L 276.542791 53.405546 
L 271.449264 42.428434 
L 266.355737 25.95757 
L 261.26221 51.278239 
L 256.168682 17.403771 
L 251.075155 52.392588 
L 240.888101 38.148825 
L 230.701047 42.629152 
L 220.513992 53.979318 
L 210.326938 53.889308 
L 200.139884 68.564125 
L 189.95283 64.424899 
L 179.765775 68.184167 
L 169.578721 60.799875 
L 159.391667 63.439381 
L 149.204612 57.555629 
L 139.017558 59.817835 
L 128.830504 70.266903 
L 118.64345 59.003462 
L 108.456395 55.137895 
L 98.269341 47.577135 
L 88.082287 46.224501 
L 77.895232 46.151814 
L 67.708178 47.398079 
L 57.521124 46.009757 
z
" clip-path="url(#p338491cdf8)" style="fill: #1f77b4; fill-opacity: 0.3; stroke: #1f77b4; stroke-opacity: 0.3"/>
   </g>
   <g id="matplotlib.axis_1">
    <g id="xtick_1">
     <g id="line2d_1">
      <defs>
       <path id="m695adad9c2" d="M 0 0 
L 0 3.5 
" style="stroke: #000000; stroke-width: 0.8"/>
      </defs>
      <g>
       <use xlink:href="#m695adad9c2" x="57.521124" y="208.456" style="stroke: #000000; stroke-width: 0.8"/>
      </g>
     </g>
     <g id="text_1">
      <!-- 1.6k -->
      <g transform="translate(46.674249 223.054438)scale(0.1 -0.1)">
       <defs>
        <path id="DejaVuSans-31" d="M 794 531 
L 1825 531 
L 1825 4091 
L 703 3866 
L 703 4441 
L 1819 4666 
L 2450 4666 
L 2450 531 
L 3481 531 
L 3481 0 
L 794 0 
L 794 531 
z
" transform="scale(0.015625)"/>
        <path id="DejaVuSans-2e" d="M 684 794 
L 1344 794 
L 1344 0 
L 684 0 
L 684 794 
z
" transform="scale(0.015625)"/>
        <path id="DejaVuSans-36" d="M 2113 2584 
Q 1688 2584 1439 2293 
Q 1191 2003 1191 1497 
Q 1191 994 1439 701 
Q 1688 409 2113 409 
Q 2538 409 2786 701 
Q 3034 994 3034 1497 
Q 3034 2003 2786 2293 
Q 2538 2584 2113 2584 
z
M 3366 4563 
L 3366 3988 
Q 3128 4100 2886 4159 
Q 2644 4219 2406 4219 
Q 1781 4219 1451 3797 
Q 1122 3375 1075 2522 
Q 1259 2794 1537 2939 
Q 1816 3084 2150 3084 
Q 2853 3084 3261 2657 
Q 3669 2231 3669 1497 
Q 3669 778 3244 343 
Q 2819 -91 2113 -91 
Q 1303 -91 875 529 
Q 447 1150 447 2328 
Q 447 3434 972 4092 
Q 1497 4750 2381 4750 
Q 2619 4750 2861 4703 
Q 3103 4656 3366 4563 
z
" transform="scale(0.015625)"/>
        <path id="DejaVuSans-6b" d="M 581 4863 
L 1159 4863 
L 1159 1991 
L 2875 3500 
L 3609 3500 
L 1753 1863 
L 3688 0 
L 2938 0 
L 1159 1709 
L 1159 0 
L 581 0 
L 581 4863 
z
" transform="scale(0.015625)"/>
       </defs>
       <use xlink:href="#DejaVuSans-31"/>
       <use xlink:href="#DejaVuSans-2e" x="63.623047"/>
       <use xlink:href="#DejaVuSans-36" x="95.410156"/>
       <use xlink:href="#DejaVuSans-6b" x="159.033203"/>
      </g>
      <!-- 2 -->
      <g transform="translate(54.339874 234.25225)scale(0.1 -0.1)">
       <defs>
        <path id="DejaVuSans-32" d="M 1228 531 
L 3431 531 
L 3431 0 
L 469 0 
L 469 531 
Q 828 903 1448 1529 
Q 2069 2156 2228 2338 
Q 2531 2678 2651 2914 
Q 2772 3150 2772 3378 
Q 2772 3750 2511 3984 
Q 2250 4219 1831 4219 
Q 1534 4219 1204 4116 
Q 875 4013 500 3803 
L 500 4441 
Q 881 4594 1212 4672 
Q 1544 4750 1819 4750 
Q 2544 4750 2975 4387 
Q 3406 4025 3406 3419 
Q 3406 3131 3298 2873 
Q 3191 2616 2906 2266 
Q 2828 2175 2409 1742 
Q 1991 1309 1228 531 
z
" transform="scale(0.015625)"/>
       </defs>
       <use xlink:href="#DejaVuSans-32"/>
      </g>
     </g>
    </g>
    <g id="xtick_2">
     <g id="line2d_2">
      <g>
       <use xlink:href="#m695adad9c2" x="98.269341" y="208.456" style="stroke: #000000; stroke-width: 0.8"/>
      </g>
     </g>
     <g id="text_2">
      <!-- 8k -->
      <g transform="translate(92.192778 223.054438)scale(0.1 -0.1)">
       <defs>
        <path id="DejaVuSans-38" d="M 2034 2216 
Q 1584 2216 1326 1975 
Q 1069 1734 1069 1313 
Q 1069 891 1326 650 
Q 1584 409 2034 409 
Q 2484 409 2743 651 
Q 3003 894 3003 1313 
Q 3003 1734 2745 1975 
Q 2488 2216 2034 2216 
z
M 1403 2484 
Q 997 2584 770 2862 
Q 544 3141 544 3541 
Q 544 4100 942 4425 
Q 1341 4750 2034 4750 
Q 2731 4750 3128 4425 
Q 3525 4100 3525 3541 
Q 3525 3141 3298 2862 
Q 3072 2584 2669 2484 
Q 3125 2378 3379 2068 
Q 3634 1759 3634 1313 
Q 3634 634 3220 271 
Q 2806 -91 2034 -91 
Q 1263 -91 848 271 
Q 434 634 434 1313 
Q 434 1759 690 2068 
Q 947 2378 1403 2484 
z
M 1172 3481 
Q 1172 3119 1398 2916 
Q 1625 2713 2034 2713 
Q 2441 2713 2670 2916 
Q 2900 3119 2900 3481 
Q 2900 3844 2670 4047 
Q 2441 4250 2034 4250 
Q 1625 4250 1398 4047 
Q 1172 3844 1172 3481 
z
" transform="scale(0.015625)"/>
       </defs>
       <use xlink:href="#DejaVuSans-38"/>
       <use xlink:href="#DejaVuSans-6b" x="63.623047"/>
      </g>
      <!-- 10 -->
      <g transform="translate(91.906841 234.25225)scale(0.1 -0.1)">
       <defs>
        <path id="DejaVuSans-30" d="M 2034 4250 
Q 1547 4250 1301 3770 
Q 1056 3291 1056 2328 
Q 1056 1369 1301 889 
Q 1547 409 2034 409 
Q 2525 409 2770 889 
Q 3016 1369 3016 2328 
Q 3016 3291 2770 3770 
Q 2525 4250 2034 4250 
z
M 2034 4750 
Q 2819 4750 3233 4129 
Q 3647 3509 3647 2328 
Q 3647 1150 3233 529 
Q 2819 -91 2034 -91 
Q 1250 -91 836 529 
Q 422 1150 422 2328 
Q 422 3509 836 4129 
Q 1250 4750 2034 4750 
z
" transform="scale(0.015625)"/>
       </defs>
       <use xlink:href="#DejaVuSans-31"/>
       <use xlink:href="#DejaVuSans-30" x="63.623047"/>
      </g>
     </g>
    </g>
    <g id="xtick_3">
     <g id="line2d_3">
      <g>
       <use xlink:href="#m695adad9c2" x="174.672248" y="208.456" style="stroke: #000000; stroke-width: 0.8"/>
      </g>
     </g>
     <g id="text_3">
      <!-- 19.9k -->
      <g transform="translate(160.644123 223.054438)scale(0.1 -0.1)">
       <defs>
        <path id="DejaVuSans-39" d="M 703 97 
L 703 672 
Q 941 559 1184 500 
Q 1428 441 1663 441 
Q 2288 441 2617 861 
Q 2947 1281 2994 2138 
Q 2813 1869 2534 1725 
Q 2256 1581 1919 1581 
Q 1219 1581 811 2004 
Q 403 2428 403 3163 
Q 403 3881 828 4315 
Q 1253 4750 1959 4750 
Q 2769 4750 3195 4129 
Q 3622 3509 3622 2328 
Q 3622 1225 3098 567 
Q 2575 -91 1691 -91 
Q 1453 -91 1209 -44 
Q 966 3 703 97 
z
M 1959 2075 
Q 2384 2075 2632 2365 
Q 2881 2656 2881 3163 
Q 2881 3666 2632 3958 
Q 2384 4250 1959 4250 
Q 1534 4250 1286 3958 
Q 1038 3666 1038 3163 
Q 1038 2656 1286 2365 
Q 1534 2075 1959 2075 
z
" transform="scale(0.015625)"/>
       </defs>
       <use xlink:href="#DejaVuSans-31"/>
       <use xlink:href="#DejaVuSans-39" x="63.623047"/>
       <use xlink:href="#DejaVuSans-2e" x="127.246094"/>
       <use xlink:href="#DejaVuSans-39" x="159.033203"/>
       <use xlink:href="#DejaVuSans-6b" x="222.65625"/>
      </g>
      <!-- 25 -->
      <g transform="translate(168.309748 234.25225)scale(0.1 -0.1)">
       <defs>
        <path id="DejaVuSans-35" d="M 691 4666 
L 3169 4666 
L 3169 4134 
L 1269 4134 
L 1269 2991 
Q 1406 3038 1543 3061 
Q 1681 3084 1819 3084 
Q 2600 3084 3056 2656 
Q 3513 2228 3513 1497 
Q 3513 744 3044 326 
Q 2575 -91 1722 -91 
Q 1428 -91 1123 -41 
Q 819 9 494 109 
L 494 744 
Q 775 591 1075 516 
Q 1375 441 1709 441 
Q 2250 441 2565 725 
Q 2881 1009 2881 1497 
Q 2881 1984 2565 2268 
Q 2250 2553 1709 2553 
Q 1456 2553 1204 2497 
Q 953 2441 691 2322 
L 691 4666 
z
" transform="scale(0.015625)"/>
       </defs>
       <use xlink:href="#DejaVuSans-32"/>
       <use xlink:href="#DejaVuSans-35" x="63.623047"/>
      </g>
     </g>
    </g>
    <g id="xtick_4">
     <g id="line2d_4">
      <g>
       <use xlink:href="#m695adad9c2" x="251.075155" y="208.456" style="stroke: #000000; stroke-width: 0.8"/>
      </g>
     </g>
     <g id="text_4">
      <!-- 31.8k -->
      <g transform="translate(237.04703 223.054438)scale(0.1 -0.1)">
       <defs>
        <path id="DejaVuSans-33" d="M 2597 2516 
Q 3050 2419 3304 2112 
Q 3559 1806 3559 1356 
Q 3559 666 3084 287 
Q 2609 -91 1734 -91 
Q 1441 -91 1130 -33 
Q 819 25 488 141 
L 488 750 
Q 750 597 1062 519 
Q 1375 441 1716 441 
Q 2309 441 2620 675 
Q 2931 909 2931 1356 
Q 2931 1769 2642 2001 
Q 2353 2234 1838 2234 
L 1294 2234 
L 1294 2753 
L 1863 2753 
Q 2328 2753 2575 2939 
Q 2822 3125 2822 3475 
Q 2822 3834 2567 4026 
Q 2313 4219 1838 4219 
Q 1578 4219 1281 4162 
Q 984 4106 628 3988 
L 628 4550 
Q 988 4650 1302 4700 
Q 1616 4750 1894 4750 
Q 2613 4750 3031 4423 
Q 3450 4097 3450 3541 
Q 3450 3153 3228 2886 
Q 3006 2619 2597 2516 
z
" transform="scale(0.015625)"/>
       </defs>
       <use xlink:href="#DejaVuSans-33"/>
       <use xlink:href="#DejaVuSans-31" x="63.623047"/>
       <use xlink:href="#DejaVuSans-2e" x="127.246094"/>
       <use xlink:href="#DejaVuSans-38" x="159.033203"/>
       <use xlink:href="#DejaVuSans-6b" x="222.65625"/>
      </g>
      <!-- 40 -->
      <g transform="translate(244.712655 234.25225)scale(0.1 -0.1)">
       <defs>
        <path id="DejaVuSans-34" d="M 2419 4116 
L 825 1625 
L 2419 1625 
L 2419 4116 
z
M 2253 4666 
L 3047 4666 
L 3047 1625 
L 3713 1625 
L 3713 1100 
L 3047 1100 
L 3047 0 
L 2419 0 
L 2419 1100 
L 313 1100 
L 313 1709 
L 2253 4666 
z
" transform="scale(0.015625)"/>
       </defs>
       <use xlink:href="#DejaVuSans-34"/>
       <use xlink:href="#DejaVuSans-30" x="63.623047"/>
      </g>
     </g>
    </g>
    <g id="xtick_5">
     <g id="line2d_5">
      <g>
       <use xlink:href="#m695adad9c2" x="352.945698" y="208.456" style="stroke: #000000; stroke-width: 0.8"/>
      </g>
     </g>
     <g id="text_5">
      <!-- 47.7k -->
      <g transform="translate(338.917573 223.054438)scale(0.1 -0.1)">
       <defs>
        <path id="DejaVuSans-37" d="M 525 4666 
L 3525 4666 
L 3525 4397 
L 1831 0 
L 1172 0 
L 2766 4134 
L 525 4134 
L 525 4666 
z
" transform="scale(0.015625)"/>
       </defs>
       <use xlink:href="#DejaVuSans-34"/>
       <use xlink:href="#DejaVuSans-37" x="63.623047"/>
       <use xlink:href="#DejaVuSans-2e" x="127.246094"/>
       <use xlink:href="#DejaVuSans-37" x="159.033203"/>
       <use xlink:href="#DejaVuSans-6b" x="222.65625"/>
      </g>
      <!-- 60 -->
      <g transform="translate(346.583198 234.25225)scale(0.1 -0.1)">
       <use xlink:href="#DejaVuSans-36"/>
       <use xlink:href="#DejaVuSans-30" x="63.623047"/>
      </g>
     </g>
    </g>
    <g id="xtick_6">
     <g id="line2d_6">
      <g>
       <use xlink:href="#m695adad9c2" x="429.348605" y="208.456" style="stroke: #000000; stroke-width: 0.8"/>
      </g>
     </g>
     <g id="text_6">
      <!-- 59.6k -->
      <g transform="translate(415.32048 223.054438)scale(0.1 -0.1)">
       <use xlink:href="#DejaVuSans-35"/>
       <use xlink:href="#DejaVuSans-39" x="63.623047"/>
       <use xlink:href="#DejaVuSans-2e" x="127.246094"/>
       <use xlink:href="#DejaVuSans-36" x="159.033203"/>
       <use xlink:href="#DejaVuSans-6b" x="222.65625"/>
      </g>
      <!-- 75 -->
      <g transform="translate(422.986105 234.25225)scale(0.1 -0.1)">
       <use xlink:href="#DejaVuSans-37"/>
       <use xlink:href="#DejaVuSans-35" x="63.623047"/>
      </g>
     </g>
    </g>
    <g id="xtick_7">
     <g id="line2d_7">
      <g>
       <use xlink:href="#m695adad9c2" x="556.686784" y="208.456" style="stroke: #000000; stroke-width: 0.8"/>
      </g>
     </g>
     <g id="text_7">
      <!-- 79.5k -->
      <g transform="translate(542.658659 223.054438)scale(0.1 -0.1)">
       <use xlink:href="#DejaVuSans-37"/>
       <use xlink:href="#DejaVuSans-39" x="63.623047"/>
       <use xlink:href="#DejaVuSans-2e" x="127.246094"/>
       <use xlink:href="#DejaVuSans-35" x="159.033203"/>
       <use xlink:href="#DejaVuSans-6b" x="222.65625"/>
      </g>
      <!-- 100 -->
      <g transform="translate(547.143034 234.25225)scale(0.1 -0.1)">
       <use xlink:href="#DejaVuSans-31"/>
       <use xlink:href="#DejaVuSans-30" x="63.623047"/>
       <use xlink:href="#DejaVuSans-30" x="127.246094"/>
      </g>
     </g>
    </g>
    <g id="xtick_8">
     <g id="line2d_8">
      <g>
       <use xlink:href="#m695adad9c2" x="689.11849" y="208.456" style="stroke: #000000; stroke-width: 0.8"/>
      </g>
     </g>
     <g id="text_8">
      <!-- 100.2k -->
      <g transform="translate(671.909115 223.054438)scale(0.1 -0.1)">
       <use xlink:href="#DejaVuSans-31"/>
       <use xlink:href="#DejaVuSans-30" x="63.623047"/>
       <use xlink:href="#DejaVuSans-30" x="127.246094"/>
       <use xlink:href="#DejaVuSans-2e" x="190.869141"/>
       <use xlink:href="#DejaVuSans-32" x="222.65625"/>
       <use xlink:href="#DejaVuSans-6b" x="286.279297"/>
      </g>
      <!-- 126 -->
      <g transform="translate(679.57474 234.25225)scale(0.1 -0.1)">
       <use xlink:href="#DejaVuSans-31"/>
       <use xlink:href="#DejaVuSans-32" x="63.623047"/>
       <use xlink:href="#DejaVuSans-36" x="127.246094"/>
      </g>
     </g>
    </g>
    <g id="xtick_9">
     <g id="line2d_9">
      <g>
       <use xlink:href="#m695adad9c2" x="303.548095" y="208.456" style="stroke: #000000; stroke-width: 0.8"/>
      </g>
     </g>
     <g id="text_9">
      <!-- 40k -->
      <g transform="translate(294.290283 223.054438)scale(0.1 -0.1)">
       <use xlink:href="#DejaVuSans-34"/>
       <use xlink:href="#DejaVuSans-30" x="63.623047"/>
       <use xlink:href="#DejaVuSans-6b" x="127.246094"/>
      </g>
     </g>
    </g>
    <g id="text_10">
     <!-- # Parameters / # Hidden Nodes -->
     <g transform="translate(285.675703 248.690219)scale(0.11 -0.11)">
      <defs>
       <path id="DejaVuSans-Bold-23" d="M 2847 4594 
L 2547 3391 
L 3372 3391 
L 3675 4594 
L 4366 4594 
L 4063 3391 
L 4928 3391 
L 4928 2725 
L 3897 2725 
L 3681 1869 
L 4569 1869 
L 4569 1197 
L 3519 1197 
L 3219 0 
L 2528 0 
L 2828 1197 
L 2003 1197 
L 1703 0 
L 1006 0 
L 1306 1197 
L 434 1197 
L 434 1869 
L 1459 1869 
L 1678 2725 
L 794 2725 
L 794 3391 
L 1850 3391 
L 2150 4594 
L 2847 4594 
z
M 3200 2725 
L 2375 2725 
L 2156 1869 
L 2981 1869 
L 3200 2725 
z
" transform="scale(0.015625)"/>
       <path id="DejaVuSans-Bold-20" transform="scale(0.015625)"/>
       <path id="DejaVuSans-Bold-50" d="M 588 4666 
L 2584 4666 
Q 3475 4666 3951 4270 
Q 4428 3875 4428 3144 
Q 4428 2409 3951 2014 
Q 3475 1619 2584 1619 
L 1791 1619 
L 1791 0 
L 588 0 
L 588 4666 
z
M 1791 3794 
L 1791 2491 
L 2456 2491 
Q 2806 2491 2997 2661 
Q 3188 2831 3188 3144 
Q 3188 3456 2997 3625 
Q 2806 3794 2456 3794 
L 1791 3794 
z
" transform="scale(0.015625)"/>
       <path id="DejaVuSans-Bold-61" d="M 2106 1575 
Q 1756 1575 1579 1456 
Q 1403 1338 1403 1106 
Q 1403 894 1545 773 
Q 1688 653 1941 653 
Q 2256 653 2472 879 
Q 2688 1106 2688 1447 
L 2688 1575 
L 2106 1575 
z
M 3816 1997 
L 3816 0 
L 2688 0 
L 2688 519 
Q 2463 200 2181 54 
Q 1900 -91 1497 -91 
Q 953 -91 614 226 
Q 275 544 275 1050 
Q 275 1666 698 1953 
Q 1122 2241 2028 2241 
L 2688 2241 
L 2688 2328 
Q 2688 2594 2478 2717 
Q 2269 2841 1825 2841 
Q 1466 2841 1156 2769 
Q 847 2697 581 2553 
L 581 3406 
Q 941 3494 1303 3539 
Q 1666 3584 2028 3584 
Q 2975 3584 3395 3211 
Q 3816 2838 3816 1997 
z
" transform="scale(0.015625)"/>
       <path id="DejaVuSans-Bold-72" d="M 3138 2547 
Q 2991 2616 2845 2648 
Q 2700 2681 2553 2681 
Q 2122 2681 1889 2404 
Q 1656 2128 1656 1613 
L 1656 0 
L 538 0 
L 538 3500 
L 1656 3500 
L 1656 2925 
Q 1872 3269 2151 3426 
Q 2431 3584 2822 3584 
Q 2878 3584 2943 3579 
Q 3009 3575 3134 3559 
L 3138 2547 
z
" transform="scale(0.015625)"/>
       <path id="DejaVuSans-Bold-6d" d="M 3781 2919 
Q 3994 3244 4286 3414 
Q 4578 3584 4928 3584 
Q 5531 3584 5847 3212 
Q 6163 2841 6163 2131 
L 6163 0 
L 5038 0 
L 5038 1825 
Q 5041 1866 5042 1909 
Q 5044 1953 5044 2034 
Q 5044 2406 4934 2573 
Q 4825 2741 4581 2741 
Q 4263 2741 4089 2478 
Q 3916 2216 3909 1719 
L 3909 0 
L 2784 0 
L 2784 1825 
Q 2784 2406 2684 2573 
Q 2584 2741 2328 2741 
Q 2006 2741 1831 2477 
Q 1656 2213 1656 1722 
L 1656 0 
L 531 0 
L 531 3500 
L 1656 3500 
L 1656 2988 
Q 1863 3284 2130 3434 
Q 2397 3584 2719 3584 
Q 3081 3584 3359 3409 
Q 3638 3234 3781 2919 
z
" transform="scale(0.015625)"/>
       <path id="DejaVuSans-Bold-65" d="M 4031 1759 
L 4031 1441 
L 1416 1441 
Q 1456 1047 1700 850 
Q 1944 653 2381 653 
Q 2734 653 3104 758 
Q 3475 863 3866 1075 
L 3866 213 
Q 3469 63 3072 -14 
Q 2675 -91 2278 -91 
Q 1328 -91 801 392 
Q 275 875 275 1747 
Q 275 2603 792 3093 
Q 1309 3584 2216 3584 
Q 3041 3584 3536 3087 
Q 4031 2591 4031 1759 
z
M 2881 2131 
Q 2881 2450 2695 2645 
Q 2509 2841 2209 2841 
Q 1884 2841 1681 2658 
Q 1478 2475 1428 2131 
L 2881 2131 
z
" transform="scale(0.015625)"/>
       <path id="DejaVuSans-Bold-74" d="M 1759 4494 
L 1759 3500 
L 2913 3500 
L 2913 2700 
L 1759 2700 
L 1759 1216 
Q 1759 972 1856 886 
Q 1953 800 2241 800 
L 2816 800 
L 2816 0 
L 1856 0 
Q 1194 0 917 276 
Q 641 553 641 1216 
L 641 2700 
L 84 2700 
L 84 3500 
L 641 3500 
L 641 4494 
L 1759 4494 
z
" transform="scale(0.015625)"/>
       <path id="DejaVuSans-Bold-73" d="M 3272 3391 
L 3272 2541 
Q 2913 2691 2578 2766 
Q 2244 2841 1947 2841 
Q 1628 2841 1473 2761 
Q 1319 2681 1319 2516 
Q 1319 2381 1436 2309 
Q 1553 2238 1856 2203 
L 2053 2175 
Q 2913 2066 3209 1816 
Q 3506 1566 3506 1031 
Q 3506 472 3093 190 
Q 2681 -91 1863 -91 
Q 1516 -91 1145 -36 
Q 775 19 384 128 
L 384 978 
Q 719 816 1070 734 
Q 1422 653 1784 653 
Q 2113 653 2278 743 
Q 2444 834 2444 1013 
Q 2444 1163 2330 1236 
Q 2216 1309 1875 1350 
L 1678 1375 
Q 931 1469 631 1722 
Q 331 1975 331 2491 
Q 331 3047 712 3315 
Q 1094 3584 1881 3584 
Q 2191 3584 2531 3537 
Q 2872 3491 3272 3391 
z
" transform="scale(0.015625)"/>
       <path id="DejaVuSans-Bold-2f" d="M 1644 4666 
L 2338 4666 
L 691 -594 
L 0 -594 
L 1644 4666 
z
" transform="scale(0.015625)"/>
       <path id="DejaVuSans-Bold-48" d="M 588 4666 
L 1791 4666 
L 1791 2888 
L 3566 2888 
L 3566 4666 
L 4769 4666 
L 4769 0 
L 3566 0 
L 3566 1978 
L 1791 1978 
L 1791 0 
L 588 0 
L 588 4666 
z
" transform="scale(0.015625)"/>
       <path id="DejaVuSans-Bold-69" d="M 538 3500 
L 1656 3500 
L 1656 0 
L 538 0 
L 538 3500 
z
M 538 4863 
L 1656 4863 
L 1656 3950 
L 538 3950 
L 538 4863 
z
" transform="scale(0.015625)"/>
       <path id="DejaVuSans-Bold-64" d="M 2919 2988 
L 2919 4863 
L 4044 4863 
L 4044 0 
L 2919 0 
L 2919 506 
Q 2688 197 2409 53 
Q 2131 -91 1766 -91 
Q 1119 -91 703 423 
Q 288 938 288 1747 
Q 288 2556 703 3070 
Q 1119 3584 1766 3584 
Q 2128 3584 2408 3439 
Q 2688 3294 2919 2988 
z
M 2181 722 
Q 2541 722 2730 984 
Q 2919 1247 2919 1747 
Q 2919 2247 2730 2509 
Q 2541 2772 2181 2772 
Q 1825 2772 1636 2509 
Q 1447 2247 1447 1747 
Q 1447 1247 1636 984 
Q 1825 722 2181 722 
z
" transform="scale(0.015625)"/>
       <path id="DejaVuSans-Bold-6e" d="M 4056 2131 
L 4056 0 
L 2931 0 
L 2931 347 
L 2931 1631 
Q 2931 2084 2911 2256 
Q 2891 2428 2841 2509 
Q 2775 2619 2662 2680 
Q 2550 2741 2406 2741 
Q 2056 2741 1856 2470 
Q 1656 2200 1656 1722 
L 1656 0 
L 538 0 
L 538 3500 
L 1656 3500 
L 1656 2988 
Q 1909 3294 2193 3439 
Q 2478 3584 2822 3584 
Q 3428 3584 3742 3212 
Q 4056 2841 4056 2131 
z
" transform="scale(0.015625)"/>
       <path id="DejaVuSans-Bold-4e" d="M 588 4666 
L 1931 4666 
L 3628 1466 
L 3628 4666 
L 4769 4666 
L 4769 0 
L 3425 0 
L 1728 3200 
L 1728 0 
L 588 0 
L 588 4666 
z
" transform="scale(0.015625)"/>
       <path id="DejaVuSans-Bold-6f" d="M 2203 2784 
Q 1831 2784 1636 2517 
Q 1441 2250 1441 1747 
Q 1441 1244 1636 976 
Q 1831 709 2203 709 
Q 2569 709 2762 976 
Q 2956 1244 2956 1747 
Q 2956 2250 2762 2517 
Q 2569 2784 2203 2784 
z
M 2203 3584 
Q 3106 3584 3614 3096 
Q 4122 2609 4122 1747 
Q 4122 884 3614 396 
Q 3106 -91 2203 -91 
Q 1297 -91 786 396 
Q 275 884 275 1747 
Q 275 2609 786 3096 
Q 1297 3584 2203 3584 
z
" transform="scale(0.015625)"/>
      </defs>
      <use xlink:href="#DejaVuSans-Bold-23"/>
      <use xlink:href="#DejaVuSans-Bold-20" x="83.789062"/>
      <use xlink:href="#DejaVuSans-Bold-50" x="118.603516"/>
      <use xlink:href="#DejaVuSans-Bold-61" x="189.269531"/>
      <use xlink:href="#DejaVuSans-Bold-72" x="256.75"/>
      <use xlink:href="#DejaVuSans-Bold-61" x="306.066406"/>
      <use xlink:href="#DejaVuSans-Bold-6d" x="373.546875"/>
      <use xlink:href="#DejaVuSans-Bold-65" x="477.746094"/>
      <use xlink:href="#DejaVuSans-Bold-74" x="545.568359"/>
      <use xlink:href="#DejaVuSans-Bold-65" x="593.371094"/>
      <use xlink:href="#DejaVuSans-Bold-72" x="661.193359"/>
      <use xlink:href="#DejaVuSans-Bold-73" x="710.509766"/>
      <use xlink:href="#DejaVuSans-Bold-20" x="770.03125"/>
      <use xlink:href="#DejaVuSans-Bold-2f" x="804.845703"/>
      <use xlink:href="#DejaVuSans-Bold-20" x="841.369141"/>
      <use xlink:href="#DejaVuSans-Bold-23" x="876.183594"/>
      <use xlink:href="#DejaVuSans-Bold-20" x="959.972656"/>
      <use xlink:href="#DejaVuSans-Bold-48" x="994.787109"/>
      <use xlink:href="#DejaVuSans-Bold-69" x="1078.478516"/>
      <use xlink:href="#DejaVuSans-Bold-64" x="1112.755859"/>
      <use xlink:href="#DejaVuSans-Bold-64" x="1184.337891"/>
      <use xlink:href="#DejaVuSans-Bold-65" x="1255.919922"/>
      <use xlink:href="#DejaVuSans-Bold-6e" x="1323.742188"/>
      <use xlink:href="#DejaVuSans-Bold-20" x="1394.933594"/>
      <use xlink:href="#DejaVuSans-Bold-4e" x="1429.748047"/>
      <use xlink:href="#DejaVuSans-Bold-6f" x="1513.439453"/>
      <use xlink:href="#DejaVuSans-Bold-64" x="1582.140625"/>
      <use xlink:href="#DejaVuSans-Bold-65" x="1653.722656"/>
      <use xlink:href="#DejaVuSans-Bold-73" x="1721.544922"/>
     </g>
    </g>
   </g>
   <g id="matplotlib.axis_2">
    <g id="ytick_1">
     <g id="line2d_10">
      <defs>
       <path id="m3f76489d64" d="M 0 0 
L -3.5 0 
" style="stroke: #000000; stroke-width: 0.8"/>
      </defs>
      <g>
       <use xlink:href="#m3f76489d64" x="47.27" y="198.980727" style="stroke: #000000; stroke-width: 0.8"/>
      </g>
     </g>
     <g id="text_11">
      <!--  0.00 -->
      <g transform="translate(14.82625 202.779946)scale(0.1 -0.1)">
       <defs>
        <path id="DejaVuSans-20" transform="scale(0.015625)"/>
       </defs>
       <use xlink:href="#DejaVuSans-20"/>
       <use xlink:href="#DejaVuSans-30" x="31.787109"/>
       <use xlink:href="#DejaVuSans-2e" x="95.410156"/>
       <use xlink:href="#DejaVuSans-30" x="127.197266"/>
       <use xlink:href="#DejaVuSans-30" x="190.820312"/>
      </g>
     </g>
    </g>
    <g id="ytick_2">
     <g id="line2d_11">
      <g>
       <use xlink:href="#m3f76489d64" x="47.27" y="165.351684" style="stroke: #000000; stroke-width: 0.8"/>
      </g>
     </g>
     <g id="text_12">
      <!--  0.02 -->
      <g transform="translate(14.82625 169.150903)scale(0.1 -0.1)">
       <use xlink:href="#DejaVuSans-20"/>
       <use xlink:href="#DejaVuSans-30" x="31.787109"/>
       <use xlink:href="#DejaVuSans-2e" x="95.410156"/>
       <use xlink:href="#DejaVuSans-30" x="127.197266"/>
       <use xlink:href="#DejaVuSans-32" x="190.820312"/>
      </g>
     </g>
    </g>
    <g id="ytick_3">
     <g id="line2d_12">
      <g>
       <use xlink:href="#m3f76489d64" x="47.27" y="131.722641" style="stroke: #000000; stroke-width: 0.8"/>
      </g>
     </g>
     <g id="text_13">
      <!--  0.04 -->
      <g transform="translate(14.82625 135.52186)scale(0.1 -0.1)">
       <use xlink:href="#DejaVuSans-20"/>
       <use xlink:href="#DejaVuSans-30" x="31.787109"/>
       <use xlink:href="#DejaVuSans-2e" x="95.410156"/>
       <use xlink:href="#DejaVuSans-30" x="127.197266"/>
       <use xlink:href="#DejaVuSans-34" x="190.820312"/>
      </g>
     </g>
    </g>
    <g id="ytick_4">
     <g id="line2d_13">
      <g>
       <use xlink:href="#m3f76489d64" x="47.27" y="98.093598" style="stroke: #000000; stroke-width: 0.8"/>
      </g>
     </g>
     <g id="text_14">
      <!--  0.06 -->
      <g transform="translate(14.82625 101.892817)scale(0.1 -0.1)">
       <use xlink:href="#DejaVuSans-20"/>
       <use xlink:href="#DejaVuSans-30" x="31.787109"/>
       <use xlink:href="#DejaVuSans-2e" x="95.410156"/>
       <use xlink:href="#DejaVuSans-30" x="127.197266"/>
       <use xlink:href="#DejaVuSans-36" x="190.820312"/>
      </g>
     </g>
    </g>
    <g id="ytick_5">
     <g id="line2d_14">
      <g>
       <use xlink:href="#m3f76489d64" x="47.27" y="64.464555" style="stroke: #000000; stroke-width: 0.8"/>
      </g>
     </g>
     <g id="text_15">
      <!--  0.08 -->
      <g transform="translate(14.82625 68.263773)scale(0.1 -0.1)">
       <use xlink:href="#DejaVuSans-20"/>
       <use xlink:href="#DejaVuSans-30" x="31.787109"/>
       <use xlink:href="#DejaVuSans-2e" x="95.410156"/>
       <use xlink:href="#DejaVuSans-30" x="127.197266"/>
       <use xlink:href="#DejaVuSans-38" x="190.820312"/>
      </g>
     </g>
    </g>
    <g id="ytick_6">
     <g id="line2d_15">
      <g>
       <use xlink:href="#m3f76489d64" x="47.27" y="30.835512" style="stroke: #000000; stroke-width: 0.8"/>
      </g>
     </g>
     <g id="text_16">
      <!--  0.10 -->
      <g transform="translate(14.82625 34.63473)scale(0.1 -0.1)">
       <use xlink:href="#DejaVuSans-20"/>
       <use xlink:href="#DejaVuSans-30" x="31.787109"/>
       <use xlink:href="#DejaVuSans-2e" x="95.410156"/>
       <use xlink:href="#DejaVuSans-31" x="127.197266"/>
       <use xlink:href="#DejaVuSans-30" x="190.820312"/>
      </g>
     </g>
    </g>
    <g id="text_17">
     <!-- Squared Loss -->
     <g transform="translate(8.538594 145.87675)rotate(-90)scale(0.11 -0.11)">
      <defs>
       <path id="DejaVuSans-Bold-53" d="M 3834 4519 
L 3834 3531 
Q 3450 3703 3084 3790 
Q 2719 3878 2394 3878 
Q 1963 3878 1756 3759 
Q 1550 3641 1550 3391 
Q 1550 3203 1689 3098 
Q 1828 2994 2194 2919 
L 2706 2816 
Q 3484 2659 3812 2340 
Q 4141 2022 4141 1434 
Q 4141 663 3683 286 
Q 3225 -91 2284 -91 
Q 1841 -91 1394 -6 
Q 947 78 500 244 
L 500 1259 
Q 947 1022 1364 901 
Q 1781 781 2169 781 
Q 2563 781 2772 912 
Q 2981 1044 2981 1288 
Q 2981 1506 2839 1625 
Q 2697 1744 2272 1838 
L 1806 1941 
Q 1106 2091 782 2419 
Q 459 2747 459 3303 
Q 459 4000 909 4375 
Q 1359 4750 2203 4750 
Q 2588 4750 2994 4692 
Q 3400 4634 3834 4519 
z
" transform="scale(0.015625)"/>
       <path id="DejaVuSans-Bold-71" d="M 2181 2772 
Q 1825 2772 1636 2509 
Q 1447 2247 1447 1747 
Q 1447 1247 1636 984 
Q 1825 722 2181 722 
Q 2541 722 2730 984 
Q 2919 1247 2919 1747 
Q 2919 2247 2730 2509 
Q 2541 2772 2181 2772 
z
M 2919 506 
Q 2688 197 2409 53 
Q 2131 -91 1766 -91 
Q 1119 -91 703 423 
Q 288 938 288 1747 
Q 288 2556 703 3067 
Q 1119 3578 1766 3578 
Q 2131 3578 2409 3434 
Q 2688 3291 2919 2981 
L 2919 3500 
L 4044 3500 
L 4044 -1331 
L 2919 -1331 
L 2919 506 
z
" transform="scale(0.015625)"/>
       <path id="DejaVuSans-Bold-75" d="M 500 1363 
L 500 3500 
L 1625 3500 
L 1625 3150 
Q 1625 2866 1622 2436 
Q 1619 2006 1619 1863 
Q 1619 1441 1641 1255 
Q 1663 1069 1716 984 
Q 1784 875 1895 815 
Q 2006 756 2150 756 
Q 2500 756 2700 1025 
Q 2900 1294 2900 1772 
L 2900 3500 
L 4019 3500 
L 4019 0 
L 2900 0 
L 2900 506 
Q 2647 200 2364 54 
Q 2081 -91 1741 -91 
Q 1134 -91 817 281 
Q 500 653 500 1363 
z
" transform="scale(0.015625)"/>
       <path id="DejaVuSans-Bold-4c" d="M 588 4666 
L 1791 4666 
L 1791 909 
L 3903 909 
L 3903 0 
L 588 0 
L 588 4666 
z
" transform="scale(0.015625)"/>
      </defs>
      <use xlink:href="#DejaVuSans-Bold-53"/>
      <use xlink:href="#DejaVuSans-Bold-71" x="72.021484"/>
      <use xlink:href="#DejaVuSans-Bold-75" x="143.603516"/>
      <use xlink:href="#DejaVuSans-Bold-61" x="214.794922"/>
      <use xlink:href="#DejaVuSans-Bold-72" x="282.275391"/>
      <use xlink:href="#DejaVuSans-Bold-65" x="331.591797"/>
      <use xlink:href="#DejaVuSans-Bold-64" x="399.414062"/>
      <use xlink:href="#DejaVuSans-Bold-20" x="470.996094"/>
      <use xlink:href="#DejaVuSans-Bold-4c" x="505.810547"/>
      <use xlink:href="#DejaVuSans-Bold-6f" x="569.53125"/>
      <use xlink:href="#DejaVuSans-Bold-73" x="638.232422"/>
      <use xlink:href="#DejaVuSans-Bold-73" x="697.753906"/>
     </g>
    </g>
   </g>
   <g id="line2d_16">
    <path d="M 303.548095 208.456 
L 303.548095 0 
" clip-path="url(#p338491cdf8)" style="fill: none; stroke-dasharray: 9.25,4; stroke-dashoffset: 0; stroke: #000000; stroke-width: 2.5"/>
   </g>
   <g id="line2d_17">
    <path d="M 47.27 198.980727 
L 720 198.980727 
" clip-path="url(#p338491cdf8)" style="fill: none; stroke-dasharray: 3.7,1.6; stroke-dashoffset: 0; stroke: #808080"/>
   </g>
   <g id="line2d_18">
    <path d="M 57.521124 53.479836 
L 67.708178 47.592204 
L 77.895232 53.794282 
L 88.082287 67.762337 
L 98.269341 62.543734 
L 108.456395 85.808212 
L 118.64345 99.229837 
L 128.830504 113.114158 
L 139.017558 102.341807 
L 149.204612 109.014614 
L 159.391667 125.429206 
L 169.578721 120.983472 
L 179.765775 145.270464 
L 189.95283 139.96654 
L 200.139884 138.615343 
L 210.326938 164.665457 
L 220.513992 149.661441 
L 230.701047 172.983795 
L 240.888101 175.855644 
L 251.075155 159.823064 
L 256.168682 176.774911 
L 261.26221 174.795496 
L 266.355737 177.262001 
L 271.449264 173.727349 
L 276.542791 174.023222 
L 281.636318 169.362172 
L 286.729845 178.286951 
L 291.823372 177.989547 
L 296.9169 181.190271 
L 302.010427 177.067354 
L 307.103954 181.798718 
L 312.197481 180.018286 
L 317.291008 182.127234 
L 322.384535 179.293646 
L 327.478062 179.453123 
L 332.57159 183.969742 
L 337.665117 183.148941 
L 342.758644 183.986488 
L 347.852171 182.945893 
L 352.945698 183.886461 
L 378.413334 183.384194 
L 403.88097 186.540891 
L 429.348605 186.681961 
L 454.816241 186.368125 
L 480.283877 188.733486 
L 505.751512 187.528852 
L 531.219148 190.262203 
L 556.686784 190.382334 
L 582.15442 190.273313 
L 607.622055 191.591498 
L 633.089691 192.406824 
L 658.557327 192.904337 
L 684.024962 192.294231 
L 709.492598 194.349901 
L 721 193.97451 
" clip-path="url(#p338491cdf8)" style="fill: none; stroke: #ff7f0e; stroke-linecap: square"/>
    <defs>
     <path id="ma5c6ef6999" d="M 0 2.12132 
L 2.12132 0 
L 0 -2.12132 
L -2.12132 0 
z
" style="stroke: #ff7f0e; stroke-linejoin: miter"/>
    </defs>
    <g clip-path="url(#p338491cdf8)">
     <use xlink:href="#ma5c6ef6999" x="57.521124" y="53.479836" style="fill: #ff7f0e; stroke: #ff7f0e; stroke-linejoin: miter"/>
     <use xlink:href="#ma5c6ef6999" x="67.708178" y="47.592204" style="fill: #ff7f0e; stroke: #ff7f0e; stroke-linejoin: miter"/>
     <use xlink:href="#ma5c6ef6999" x="77.895232" y="53.794282" style="fill: #ff7f0e; stroke: #ff7f0e; stroke-linejoin: miter"/>
     <use xlink:href="#ma5c6ef6999" x="88.082287" y="67.762337" style="fill: #ff7f0e; stroke: #ff7f0e; stroke-linejoin: miter"/>
     <use xlink:href="#ma5c6ef6999" x="98.269341" y="62.543734" style="fill: #ff7f0e; stroke: #ff7f0e; stroke-linejoin: miter"/>
     <use xlink:href="#ma5c6ef6999" x="108.456395" y="85.808212" style="fill: #ff7f0e; stroke: #ff7f0e; stroke-linejoin: miter"/>
     <use xlink:href="#ma5c6ef6999" x="118.64345" y="99.229837" style="fill: #ff7f0e; stroke: #ff7f0e; stroke-linejoin: miter"/>
     <use xlink:href="#ma5c6ef6999" x="128.830504" y="113.114158" style="fill: #ff7f0e; stroke: #ff7f0e; stroke-linejoin: miter"/>
     <use xlink:href="#ma5c6ef6999" x="139.017558" y="102.341807" style="fill: #ff7f0e; stroke: #ff7f0e; stroke-linejoin: miter"/>
     <use xlink:href="#ma5c6ef6999" x="149.204612" y="109.014614" style="fill: #ff7f0e; stroke: #ff7f0e; stroke-linejoin: miter"/>
     <use xlink:href="#ma5c6ef6999" x="159.391667" y="125.429206" style="fill: #ff7f0e; stroke: #ff7f0e; stroke-linejoin: miter"/>
     <use xlink:href="#ma5c6ef6999" x="169.578721" y="120.983472" style="fill: #ff7f0e; stroke: #ff7f0e; stroke-linejoin: miter"/>
     <use xlink:href="#ma5c6ef6999" x="179.765775" y="145.270464" style="fill: #ff7f0e; stroke: #ff7f0e; stroke-linejoin: miter"/>
     <use xlink:href="#ma5c6ef6999" x="189.95283" y="139.96654" style="fill: #ff7f0e; stroke: #ff7f0e; stroke-linejoin: miter"/>
     <use xlink:href="#ma5c6ef6999" x="200.139884" y="138.615343" style="fill: #ff7f0e; stroke: #ff7f0e; stroke-linejoin: miter"/>
     <use xlink:href="#ma5c6ef6999" x="210.326938" y="164.665457" style="fill: #ff7f0e; stroke: #ff7f0e; stroke-linejoin: miter"/>
     <use xlink:href="#ma5c6ef6999" x="220.513992" y="149.661441" style="fill: #ff7f0e; stroke: #ff7f0e; stroke-linejoin: miter"/>
     <use xlink:href="#ma5c6ef6999" x="230.701047" y="172.983795" style="fill: #ff7f0e; stroke: #ff7f0e; stroke-linejoin: miter"/>
     <use xlink:href="#ma5c6ef6999" x="240.888101" y="175.855644" style="fill: #ff7f0e; stroke: #ff7f0e; stroke-linejoin: miter"/>
     <use xlink:href="#ma5c6ef6999" x="251.075155" y="159.823064" style="fill: #ff7f0e; stroke: #ff7f0e; stroke-linejoin: miter"/>
     <use xlink:href="#ma5c6ef6999" x="256.168682" y="176.774911" style="fill: #ff7f0e; stroke: #ff7f0e; stroke-linejoin: miter"/>
     <use xlink:href="#ma5c6ef6999" x="261.26221" y="174.795496" style="fill: #ff7f0e; stroke: #ff7f0e; stroke-linejoin: miter"/>
     <use xlink:href="#ma5c6ef6999" x="266.355737" y="177.262001" style="fill: #ff7f0e; stroke: #ff7f0e; stroke-linejoin: miter"/>
     <use xlink:href="#ma5c6ef6999" x="271.449264" y="173.727349" style="fill: #ff7f0e; stroke: #ff7f0e; stroke-linejoin: miter"/>
     <use xlink:href="#ma5c6ef6999" x="276.542791" y="174.023222" style="fill: #ff7f0e; stroke: #ff7f0e; stroke-linejoin: miter"/>
     <use xlink:href="#ma5c6ef6999" x="281.636318" y="169.362172" style="fill: #ff7f0e; stroke: #ff7f0e; stroke-linejoin: miter"/>
     <use xlink:href="#ma5c6ef6999" x="286.729845" y="178.286951" style="fill: #ff7f0e; stroke: #ff7f0e; stroke-linejoin: miter"/>
     <use xlink:href="#ma5c6ef6999" x="291.823372" y="177.989547" style="fill: #ff7f0e; stroke: #ff7f0e; stroke-linejoin: miter"/>
     <use xlink:href="#ma5c6ef6999" x="296.9169" y="181.190271" style="fill: #ff7f0e; stroke: #ff7f0e; stroke-linejoin: miter"/>
     <use xlink:href="#ma5c6ef6999" x="302.010427" y="177.067354" style="fill: #ff7f0e; stroke: #ff7f0e; stroke-linejoin: miter"/>
     <use xlink:href="#ma5c6ef6999" x="307.103954" y="181.798718" style="fill: #ff7f0e; stroke: #ff7f0e; stroke-linejoin: miter"/>
     <use xlink:href="#ma5c6ef6999" x="312.197481" y="180.018286" style="fill: #ff7f0e; stroke: #ff7f0e; stroke-linejoin: miter"/>
     <use xlink:href="#ma5c6ef6999" x="317.291008" y="182.127234" style="fill: #ff7f0e; stroke: #ff7f0e; stroke-linejoin: miter"/>
     <use xlink:href="#ma5c6ef6999" x="322.384535" y="179.293646" style="fill: #ff7f0e; stroke: #ff7f0e; stroke-linejoin: miter"/>
     <use xlink:href="#ma5c6ef6999" x="327.478062" y="179.453123" style="fill: #ff7f0e; stroke: #ff7f0e; stroke-linejoin: miter"/>
     <use xlink:href="#ma5c6ef6999" x="332.57159" y="183.969742" style="fill: #ff7f0e; stroke: #ff7f0e; stroke-linejoin: miter"/>
     <use xlink:href="#ma5c6ef6999" x="337.665117" y="183.148941" style="fill: #ff7f0e; stroke: #ff7f0e; stroke-linejoin: miter"/>
     <use xlink:href="#ma5c6ef6999" x="342.758644" y="183.986488" style="fill: #ff7f0e; stroke: #ff7f0e; stroke-linejoin: miter"/>
     <use xlink:href="#ma5c6ef6999" x="347.852171" y="182.945893" style="fill: #ff7f0e; stroke: #ff7f0e; stroke-linejoin: miter"/>
     <use xlink:href="#ma5c6ef6999" x="352.945698" y="183.886461" style="fill: #ff7f0e; stroke: #ff7f0e; stroke-linejoin: miter"/>
     <use xlink:href="#ma5c6ef6999" x="378.413334" y="183.384194" style="fill: #ff7f0e; stroke: #ff7f0e; stroke-linejoin: miter"/>
     <use xlink:href="#ma5c6ef6999" x="403.88097" y="186.540891" style="fill: #ff7f0e; stroke: #ff7f0e; stroke-linejoin: miter"/>
     <use xlink:href="#ma5c6ef6999" x="429.348605" y="186.681961" style="fill: #ff7f0e; stroke: #ff7f0e; stroke-linejoin: miter"/>
     <use xlink:href="#ma5c6ef6999" x="454.816241" y="186.368125" style="fill: #ff7f0e; stroke: #ff7f0e; stroke-linejoin: miter"/>
     <use xlink:href="#ma5c6ef6999" x="480.283877" y="188.733486" style="fill: #ff7f0e; stroke: #ff7f0e; stroke-linejoin: miter"/>
     <use xlink:href="#ma5c6ef6999" x="505.751512" y="187.528852" style="fill: #ff7f0e; stroke: #ff7f0e; stroke-linejoin: miter"/>
     <use xlink:href="#ma5c6ef6999" x="531.219148" y="190.262203" style="fill: #ff7f0e; stroke: #ff7f0e; stroke-linejoin: miter"/>
     <use xlink:href="#ma5c6ef6999" x="556.686784" y="190.382334" style="fill: #ff7f0e; stroke: #ff7f0e; stroke-linejoin: miter"/>
     <use xlink:href="#ma5c6ef6999" x="582.15442" y="190.273313" style="fill: #ff7f0e; stroke: #ff7f0e; stroke-linejoin: miter"/>
     <use xlink:href="#ma5c6ef6999" x="607.622055" y="191.591498" style="fill: #ff7f0e; stroke: #ff7f0e; stroke-linejoin: miter"/>
     <use xlink:href="#ma5c6ef6999" x="633.089691" y="192.406824" style="fill: #ff7f0e; stroke: #ff7f0e; stroke-linejoin: miter"/>
     <use xlink:href="#ma5c6ef6999" x="658.557327" y="192.904337" style="fill: #ff7f0e; stroke: #ff7f0e; stroke-linejoin: miter"/>
     <use xlink:href="#ma5c6ef6999" x="684.024962" y="192.294231" style="fill: #ff7f0e; stroke: #ff7f0e; stroke-linejoin: miter"/>
     <use xlink:href="#ma5c6ef6999" x="709.492598" y="194.349901" style="fill: #ff7f0e; stroke: #ff7f0e; stroke-linejoin: miter"/>
     <use xlink:href="#ma5c6ef6999" x="734.960234" y="193.519103" style="fill: #ff7f0e; stroke: #ff7f0e; stroke-linejoin: miter"/>
     <use xlink:href="#ma5c6ef6999" x="760.42787" y="193.371937" style="fill: #ff7f0e; stroke: #ff7f0e; stroke-linejoin: miter"/>
     <use xlink:href="#ma5c6ef6999" x="785.895505" y="195.1149" style="fill: #ff7f0e; stroke: #ff7f0e; stroke-linejoin: miter"/>
     <use xlink:href="#ma5c6ef6999" x="811.363141" y="194.663705" style="fill: #ff7f0e; stroke: #ff7f0e; stroke-linejoin: miter"/>
    </g>
   </g>
   <g id="line2d_19">
    <path d="M 57.521124 50.857972 
L 67.708178 47.513549 
L 77.895232 53.009738 
L 88.082287 55.613265 
L 98.269341 56.454764 
L 108.456395 64.017947 
L 118.64345 67.887176 
L 128.830504 74.398768 
L 139.017558 69.311146 
L 149.204612 69.683429 
L 159.391667 71.623503 
L 169.578721 72.393677 
L 179.765775 75.5939 
L 189.95283 73.230524 
L 200.139884 74.722644 
L 210.326938 64.748841 
L 220.513992 67.103816 
L 230.701047 56.812921 
L 240.888101 56.312428 
L 251.075155 64.218279 
L 256.168682 45.629775 
L 261.26221 56.503089 
L 266.355737 43.506494 
L 271.449264 54.40311 
L 276.542791 64.290304 
L 281.636318 67.392521 
L 286.729845 36.933097 
L 291.823372 45.081193 
L 296.9169 36.357385 
L 302.010427 49.285638 
L 307.103954 37.070663 
L 312.197481 44.131428 
L 317.291008 43.115852 
L 322.384535 53.944497 
L 327.478062 51.715888 
L 332.57159 49.269347 
L 337.665117 50.144389 
L 342.758644 52.640018 
L 347.852171 51.198808 
L 352.945698 54.618746 
L 378.413334 58.126165 
L 403.88097 64.267232 
L 429.348605 65.478575 
L 454.816241 76.082957 
L 480.283877 85.039097 
L 505.751512 75.582001 
L 531.219148 94.184359 
L 556.686784 94.876302 
L 582.15442 99.202841 
L 607.622055 109.485019 
L 633.089691 101.432807 
L 658.557327 106.898811 
L 684.024962 101.351835 
L 709.492598 111.446613 
L 721 111.750607 
" clip-path="url(#p338491cdf8)" style="fill: none; stroke: #1f77b4; stroke-linecap: square"/>
    <defs>
     <path id="mceaf18fc42" d="M 0 2.12132 
L 2.12132 0 
L 0 -2.12132 
L -2.12132 0 
z
" style="stroke: #1f77b4; stroke-linejoin: miter"/>
    </defs>
    <g clip-path="url(#p338491cdf8)">
     <use xlink:href="#mceaf18fc42" x="57.521124" y="50.857972" style="fill: #1f77b4; stroke: #1f77b4; stroke-linejoin: miter"/>
     <use xlink:href="#mceaf18fc42" x="67.708178" y="47.513549" style="fill: #1f77b4; stroke: #1f77b4; stroke-linejoin: miter"/>
     <use xlink:href="#mceaf18fc42" x="77.895232" y="53.009738" style="fill: #1f77b4; stroke: #1f77b4; stroke-linejoin: miter"/>
     <use xlink:href="#mceaf18fc42" x="88.082287" y="55.613265" style="fill: #1f77b4; stroke: #1f77b4; stroke-linejoin: miter"/>
     <use xlink:href="#mceaf18fc42" x="98.269341" y="56.454764" style="fill: #1f77b4; stroke: #1f77b4; stroke-linejoin: miter"/>
     <use xlink:href="#mceaf18fc42" x="108.456395" y="64.017947" style="fill: #1f77b4; stroke: #1f77b4; stroke-linejoin: miter"/>
     <use xlink:href="#mceaf18fc42" x="118.64345" y="67.887176" style="fill: #1f77b4; stroke: #1f77b4; stroke-linejoin: miter"/>
     <use xlink:href="#mceaf18fc42" x="128.830504" y="74.398768" style="fill: #1f77b4; stroke: #1f77b4; stroke-linejoin: miter"/>
     <use xlink:href="#mceaf18fc42" x="139.017558" y="69.311146" style="fill: #1f77b4; stroke: #1f77b4; stroke-linejoin: miter"/>
     <use xlink:href="#mceaf18fc42" x="149.204612" y="69.683429" style="fill: #1f77b4; stroke: #1f77b4; stroke-linejoin: miter"/>
     <use xlink:href="#mceaf18fc42" x="159.391667" y="71.623503" style="fill: #1f77b4; stroke: #1f77b4; stroke-linejoin: miter"/>
     <use xlink:href="#mceaf18fc42" x="169.578721" y="72.393677" style="fill: #1f77b4; stroke: #1f77b4; stroke-linejoin: miter"/>
     <use xlink:href="#mceaf18fc42" x="179.765775" y="75.5939" style="fill: #1f77b4; stroke: #1f77b4; stroke-linejoin: miter"/>
     <use xlink:href="#mceaf18fc42" x="189.95283" y="73.230524" style="fill: #1f77b4; stroke: #1f77b4; stroke-linejoin: miter"/>
     <use xlink:href="#mceaf18fc42" x="200.139884" y="74.722644" style="fill: #1f77b4; stroke: #1f77b4; stroke-linejoin: miter"/>
     <use xlink:href="#mceaf18fc42" x="210.326938" y="64.748841" style="fill: #1f77b4; stroke: #1f77b4; stroke-linejoin: miter"/>
     <use xlink:href="#mceaf18fc42" x="220.513992" y="67.103816" style="fill: #1f77b4; stroke: #1f77b4; stroke-linejoin: miter"/>
     <use xlink:href="#mceaf18fc42" x="230.701047" y="56.812921" style="fill: #1f77b4; stroke: #1f77b4; stroke-linejoin: miter"/>
     <use xlink:href="#mceaf18fc42" x="240.888101" y="56.312428" style="fill: #1f77b4; stroke: #1f77b4; stroke-linejoin: miter"/>
     <use xlink:href="#mceaf18fc42" x="251.075155" y="64.218279" style="fill: #1f77b4; stroke: #1f77b4; stroke-linejoin: miter"/>
     <use xlink:href="#mceaf18fc42" x="256.168682" y="45.629775" style="fill: #1f77b4; stroke: #1f77b4; stroke-linejoin: miter"/>
     <use xlink:href="#mceaf18fc42" x="261.26221" y="56.503089" style="fill: #1f77b4; stroke: #1f77b4; stroke-linejoin: miter"/>
     <use xlink:href="#mceaf18fc42" x="266.355737" y="43.506494" style="fill: #1f77b4; stroke: #1f77b4; stroke-linejoin: miter"/>
     <use xlink:href="#mceaf18fc42" x="271.449264" y="54.40311" style="fill: #1f77b4; stroke: #1f77b4; stroke-linejoin: miter"/>
     <use xlink:href="#mceaf18fc42" x="276.542791" y="64.290304" style="fill: #1f77b4; stroke: #1f77b4; stroke-linejoin: miter"/>
     <use xlink:href="#mceaf18fc42" x="281.636318" y="67.392521" style="fill: #1f77b4; stroke: #1f77b4; stroke-linejoin: miter"/>
     <use xlink:href="#mceaf18fc42" x="286.729845" y="36.933097" style="fill: #1f77b4; stroke: #1f77b4; stroke-linejoin: miter"/>
     <use xlink:href="#mceaf18fc42" x="291.823372" y="45.081193" style="fill: #1f77b4; stroke: #1f77b4; stroke-linejoin: miter"/>
     <use xlink:href="#mceaf18fc42" x="296.9169" y="36.357385" style="fill: #1f77b4; stroke: #1f77b4; stroke-linejoin: miter"/>
     <use xlink:href="#mceaf18fc42" x="302.010427" y="49.285638" style="fill: #1f77b4; stroke: #1f77b4; stroke-linejoin: miter"/>
     <use xlink:href="#mceaf18fc42" x="307.103954" y="37.070663" style="fill: #1f77b4; stroke: #1f77b4; stroke-linejoin: miter"/>
     <use xlink:href="#mceaf18fc42" x="312.197481" y="44.131428" style="fill: #1f77b4; stroke: #1f77b4; stroke-linejoin: miter"/>
     <use xlink:href="#mceaf18fc42" x="317.291008" y="43.115852" style="fill: #1f77b4; stroke: #1f77b4; stroke-linejoin: miter"/>
     <use xlink:href="#mceaf18fc42" x="322.384535" y="53.944497" style="fill: #1f77b4; stroke: #1f77b4; stroke-linejoin: miter"/>
     <use xlink:href="#mceaf18fc42" x="327.478062" y="51.715888" style="fill: #1f77b4; stroke: #1f77b4; stroke-linejoin: miter"/>
     <use xlink:href="#mceaf18fc42" x="332.57159" y="49.269347" style="fill: #1f77b4; stroke: #1f77b4; stroke-linejoin: miter"/>
     <use xlink:href="#mceaf18fc42" x="337.665117" y="50.144389" style="fill: #1f77b4; stroke: #1f77b4; stroke-linejoin: miter"/>
     <use xlink:href="#mceaf18fc42" x="342.758644" y="52.640018" style="fill: #1f77b4; stroke: #1f77b4; stroke-linejoin: miter"/>
     <use xlink:href="#mceaf18fc42" x="347.852171" y="51.198808" style="fill: #1f77b4; stroke: #1f77b4; stroke-linejoin: miter"/>
     <use xlink:href="#mceaf18fc42" x="352.945698" y="54.618746" style="fill: #1f77b4; stroke: #1f77b4; stroke-linejoin: miter"/>
     <use xlink:href="#mceaf18fc42" x="378.413334" y="58.126165" style="fill: #1f77b4; stroke: #1f77b4; stroke-linejoin: miter"/>
     <use xlink:href="#mceaf18fc42" x="403.88097" y="64.267232" style="fill: #1f77b4; stroke: #1f77b4; stroke-linejoin: miter"/>
     <use xlink:href="#mceaf18fc42" x="429.348605" y="65.478575" style="fill: #1f77b4; stroke: #1f77b4; stroke-linejoin: miter"/>
     <use xlink:href="#mceaf18fc42" x="454.816241" y="76.082957" style="fill: #1f77b4; stroke: #1f77b4; stroke-linejoin: miter"/>
     <use xlink:href="#mceaf18fc42" x="480.283877" y="85.039097" style="fill: #1f77b4; stroke: #1f77b4; stroke-linejoin: miter"/>
     <use xlink:href="#mceaf18fc42" x="505.751512" y="75.582001" style="fill: #1f77b4; stroke: #1f77b4; stroke-linejoin: miter"/>
     <use xlink:href="#mceaf18fc42" x="531.219148" y="94.184359" style="fill: #1f77b4; stroke: #1f77b4; stroke-linejoin: miter"/>
     <use xlink:href="#mceaf18fc42" x="556.686784" y="94.876302" style="fill: #1f77b4; stroke: #1f77b4; stroke-linejoin: miter"/>
     <use xlink:href="#mceaf18fc42" x="582.15442" y="99.202841" style="fill: #1f77b4; stroke: #1f77b4; stroke-linejoin: miter"/>
     <use xlink:href="#mceaf18fc42" x="607.622055" y="109.485019" style="fill: #1f77b4; stroke: #1f77b4; stroke-linejoin: miter"/>
     <use xlink:href="#mceaf18fc42" x="633.089691" y="101.432807" style="fill: #1f77b4; stroke: #1f77b4; stroke-linejoin: miter"/>
     <use xlink:href="#mceaf18fc42" x="658.557327" y="106.898811" style="fill: #1f77b4; stroke: #1f77b4; stroke-linejoin: miter"/>
     <use xlink:href="#mceaf18fc42" x="684.024962" y="101.351835" style="fill: #1f77b4; stroke: #1f77b4; stroke-linejoin: miter"/>
     <use xlink:href="#mceaf18fc42" x="709.492598" y="111.446613" style="fill: #1f77b4; stroke: #1f77b4; stroke-linejoin: miter"/>
     <use xlink:href="#mceaf18fc42" x="734.960234" y="112.119397" style="fill: #1f77b4; stroke: #1f77b4; stroke-linejoin: miter"/>
     <use xlink:href="#mceaf18fc42" x="760.42787" y="109.239845" style="fill: #1f77b4; stroke: #1f77b4; stroke-linejoin: miter"/>
     <use xlink:href="#mceaf18fc42" x="785.895505" y="109.733812" style="fill: #1f77b4; stroke: #1f77b4; stroke-linejoin: miter"/>
     <use xlink:href="#mceaf18fc42" x="811.363141" y="107.415094" style="fill: #1f77b4; stroke: #1f77b4; stroke-linejoin: miter"/>
    </g>
   </g>
   <g id="patch_3">
    <path d="M 47.27 208.456 
L 47.27 0 
" style="fill: none; stroke: #000000; stroke-width: 0.8; stroke-linejoin: miter; stroke-linecap: square"/>
   </g>
   <g id="patch_4">
    <path d="M 720 208.456 
L 720 0 
" style="fill: none; stroke: #000000; stroke-width: 0.8; stroke-linejoin: miter; stroke-linecap: square"/>
   </g>
   <g id="patch_5">
    <path d="M 47.27 208.456 
L 720 208.456 
" style="fill: none; stroke: #000000; stroke-width: 0.8; stroke-linejoin: miter; stroke-linecap: square"/>
   </g>
   <g id="patch_6">
    <path d="M 47.27 0 
L 720 0 
" style="fill: none; stroke: #000000; stroke-width: 0.8; stroke-linejoin: miter; stroke-linecap: square"/>
   </g>
   <g id="legend_1">
    <g id="patch_7">
     <path d="M 564.545313 52.034375 
L 713 52.034375 
Q 715 52.034375 715 50.034375 
L 715 7 
Q 715 5 713 5 
L 564.545313 5 
Q 562.545313 5 562.545313 7 
L 562.545313 50.034375 
Q 562.545313 52.034375 564.545313 52.034375 
z
" style="fill: #ffffff; opacity: 0.8; stroke: #cccccc; stroke-linejoin: miter"/>
    </g>
    <g id="line2d_20">
     <path d="M 566.545313 13.098438 
L 576.545313 13.098438 
L 586.545313 13.098438 
" style="fill: none; stroke-dasharray: 9.25,4; stroke-dashoffset: 0; stroke: #000000; stroke-width: 2.5"/>
    </g>
    <g id="text_18">
     <!-- Interpolation Threshold -->
     <g transform="translate(594.545313 16.598438)scale(0.1 -0.1)">
      <defs>
       <path id="DejaVuSans-49" d="M 628 4666 
L 1259 4666 
L 1259 0 
L 628 0 
L 628 4666 
z
" transform="scale(0.015625)"/>
       <path id="DejaVuSans-6e" d="M 3513 2113 
L 3513 0 
L 2938 0 
L 2938 2094 
Q 2938 2591 2744 2837 
Q 2550 3084 2163 3084 
Q 1697 3084 1428 2787 
Q 1159 2491 1159 1978 
L 1159 0 
L 581 0 
L 581 3500 
L 1159 3500 
L 1159 2956 
Q 1366 3272 1645 3428 
Q 1925 3584 2291 3584 
Q 2894 3584 3203 3211 
Q 3513 2838 3513 2113 
z
" transform="scale(0.015625)"/>
       <path id="DejaVuSans-74" d="M 1172 4494 
L 1172 3500 
L 2356 3500 
L 2356 3053 
L 1172 3053 
L 1172 1153 
Q 1172 725 1289 603 
Q 1406 481 1766 481 
L 2356 481 
L 2356 0 
L 1766 0 
Q 1100 0 847 248 
Q 594 497 594 1153 
L 594 3053 
L 172 3053 
L 172 3500 
L 594 3500 
L 594 4494 
L 1172 4494 
z
" transform="scale(0.015625)"/>
       <path id="DejaVuSans-65" d="M 3597 1894 
L 3597 1613 
L 953 1613 
Q 991 1019 1311 708 
Q 1631 397 2203 397 
Q 2534 397 2845 478 
Q 3156 559 3463 722 
L 3463 178 
Q 3153 47 2828 -22 
Q 2503 -91 2169 -91 
Q 1331 -91 842 396 
Q 353 884 353 1716 
Q 353 2575 817 3079 
Q 1281 3584 2069 3584 
Q 2775 3584 3186 3129 
Q 3597 2675 3597 1894 
z
M 3022 2063 
Q 3016 2534 2758 2815 
Q 2500 3097 2075 3097 
Q 1594 3097 1305 2825 
Q 1016 2553 972 2059 
L 3022 2063 
z
" transform="scale(0.015625)"/>
       <path id="DejaVuSans-72" d="M 2631 2963 
Q 2534 3019 2420 3045 
Q 2306 3072 2169 3072 
Q 1681 3072 1420 2755 
Q 1159 2438 1159 1844 
L 1159 0 
L 581 0 
L 581 3500 
L 1159 3500 
L 1159 2956 
Q 1341 3275 1631 3429 
Q 1922 3584 2338 3584 
Q 2397 3584 2469 3576 
Q 2541 3569 2628 3553 
L 2631 2963 
z
" transform="scale(0.015625)"/>
       <path id="DejaVuSans-70" d="M 1159 525 
L 1159 -1331 
L 581 -1331 
L 581 3500 
L 1159 3500 
L 1159 2969 
Q 1341 3281 1617 3432 
Q 1894 3584 2278 3584 
Q 2916 3584 3314 3078 
Q 3713 2572 3713 1747 
Q 3713 922 3314 415 
Q 2916 -91 2278 -91 
Q 1894 -91 1617 61 
Q 1341 213 1159 525 
z
M 3116 1747 
Q 3116 2381 2855 2742 
Q 2594 3103 2138 3103 
Q 1681 3103 1420 2742 
Q 1159 2381 1159 1747 
Q 1159 1113 1420 752 
Q 1681 391 2138 391 
Q 2594 391 2855 752 
Q 3116 1113 3116 1747 
z
" transform="scale(0.015625)"/>
       <path id="DejaVuSans-6f" d="M 1959 3097 
Q 1497 3097 1228 2736 
Q 959 2375 959 1747 
Q 959 1119 1226 758 
Q 1494 397 1959 397 
Q 2419 397 2687 759 
Q 2956 1122 2956 1747 
Q 2956 2369 2687 2733 
Q 2419 3097 1959 3097 
z
M 1959 3584 
Q 2709 3584 3137 3096 
Q 3566 2609 3566 1747 
Q 3566 888 3137 398 
Q 2709 -91 1959 -91 
Q 1206 -91 779 398 
Q 353 888 353 1747 
Q 353 2609 779 3096 
Q 1206 3584 1959 3584 
z
" transform="scale(0.015625)"/>
       <path id="DejaVuSans-6c" d="M 603 4863 
L 1178 4863 
L 1178 0 
L 603 0 
L 603 4863 
z
" transform="scale(0.015625)"/>
       <path id="DejaVuSans-61" d="M 2194 1759 
Q 1497 1759 1228 1600 
Q 959 1441 959 1056 
Q 959 750 1161 570 
Q 1363 391 1709 391 
Q 2188 391 2477 730 
Q 2766 1069 2766 1631 
L 2766 1759 
L 2194 1759 
z
M 3341 1997 
L 3341 0 
L 2766 0 
L 2766 531 
Q 2569 213 2275 61 
Q 1981 -91 1556 -91 
Q 1019 -91 701 211 
Q 384 513 384 1019 
Q 384 1609 779 1909 
Q 1175 2209 1959 2209 
L 2766 2209 
L 2766 2266 
Q 2766 2663 2505 2880 
Q 2244 3097 1772 3097 
Q 1472 3097 1187 3025 
Q 903 2953 641 2809 
L 641 3341 
Q 956 3463 1253 3523 
Q 1550 3584 1831 3584 
Q 2591 3584 2966 3190 
Q 3341 2797 3341 1997 
z
" transform="scale(0.015625)"/>
       <path id="DejaVuSans-69" d="M 603 3500 
L 1178 3500 
L 1178 0 
L 603 0 
L 603 3500 
z
M 603 4863 
L 1178 4863 
L 1178 4134 
L 603 4134 
L 603 4863 
z
" transform="scale(0.015625)"/>
       <path id="DejaVuSans-54" d="M -19 4666 
L 3928 4666 
L 3928 4134 
L 2272 4134 
L 2272 0 
L 1638 0 
L 1638 4134 
L -19 4134 
L -19 4666 
z
" transform="scale(0.015625)"/>
       <path id="DejaVuSans-68" d="M 3513 2113 
L 3513 0 
L 2938 0 
L 2938 2094 
Q 2938 2591 2744 2837 
Q 2550 3084 2163 3084 
Q 1697 3084 1428 2787 
Q 1159 2491 1159 1978 
L 1159 0 
L 581 0 
L 581 4863 
L 1159 4863 
L 1159 2956 
Q 1366 3272 1645 3428 
Q 1925 3584 2291 3584 
Q 2894 3584 3203 3211 
Q 3513 2838 3513 2113 
z
" transform="scale(0.015625)"/>
       <path id="DejaVuSans-73" d="M 2834 3397 
L 2834 2853 
Q 2591 2978 2328 3040 
Q 2066 3103 1784 3103 
Q 1356 3103 1142 2972 
Q 928 2841 928 2578 
Q 928 2378 1081 2264 
Q 1234 2150 1697 2047 
L 1894 2003 
Q 2506 1872 2764 1633 
Q 3022 1394 3022 966 
Q 3022 478 2636 193 
Q 2250 -91 1575 -91 
Q 1294 -91 989 -36 
Q 684 19 347 128 
L 347 722 
Q 666 556 975 473 
Q 1284 391 1588 391 
Q 1994 391 2212 530 
Q 2431 669 2431 922 
Q 2431 1156 2273 1281 
Q 2116 1406 1581 1522 
L 1381 1569 
Q 847 1681 609 1914 
Q 372 2147 372 2553 
Q 372 3047 722 3315 
Q 1072 3584 1716 3584 
Q 2034 3584 2315 3537 
Q 2597 3491 2834 3397 
z
" transform="scale(0.015625)"/>
       <path id="DejaVuSans-64" d="M 2906 2969 
L 2906 4863 
L 3481 4863 
L 3481 0 
L 2906 0 
L 2906 525 
Q 2725 213 2448 61 
Q 2172 -91 1784 -91 
Q 1150 -91 751 415 
Q 353 922 353 1747 
Q 353 2572 751 3078 
Q 1150 3584 1784 3584 
Q 2172 3584 2448 3432 
Q 2725 3281 2906 2969 
z
M 947 1747 
Q 947 1113 1208 752 
Q 1469 391 1925 391 
Q 2381 391 2643 752 
Q 2906 1113 2906 1747 
Q 2906 2381 2643 2742 
Q 2381 3103 1925 3103 
Q 1469 3103 1208 2742 
Q 947 2381 947 1747 
z
" transform="scale(0.015625)"/>
      </defs>
      <use xlink:href="#DejaVuSans-49"/>
      <use xlink:href="#DejaVuSans-6e" x="29.492188"/>
      <use xlink:href="#DejaVuSans-74" x="92.871094"/>
      <use xlink:href="#DejaVuSans-65" x="132.080078"/>
      <use xlink:href="#DejaVuSans-72" x="193.603516"/>
      <use xlink:href="#DejaVuSans-70" x="234.716797"/>
      <use xlink:href="#DejaVuSans-6f" x="298.193359"/>
      <use xlink:href="#DejaVuSans-6c" x="359.375"/>
      <use xlink:href="#DejaVuSans-61" x="387.158203"/>
      <use xlink:href="#DejaVuSans-74" x="448.4375"/>
      <use xlink:href="#DejaVuSans-69" x="487.646484"/>
      <use xlink:href="#DejaVuSans-6f" x="515.429688"/>
      <use xlink:href="#DejaVuSans-6e" x="576.611328"/>
      <use xlink:href="#DejaVuSans-20" x="639.990234"/>
      <use xlink:href="#DejaVuSans-54" x="671.777344"/>
      <use xlink:href="#DejaVuSans-68" x="732.861328"/>
      <use xlink:href="#DejaVuSans-72" x="796.240234"/>
      <use xlink:href="#DejaVuSans-65" x="835.103516"/>
      <use xlink:href="#DejaVuSans-73" x="896.626953"/>
      <use xlink:href="#DejaVuSans-68" x="948.726562"/>
      <use xlink:href="#DejaVuSans-6f" x="1012.105469"/>
      <use xlink:href="#DejaVuSans-6c" x="1073.287109"/>
      <use xlink:href="#DejaVuSans-64" x="1101.070312"/>
     </g>
    </g>
    <g id="line2d_21">
     <path d="M 566.545313 27.776563 
L 576.545313 27.776563 
L 586.545313 27.776563 
" style="fill: none; stroke: #ff7f0e; stroke-linecap: square"/>
     <g>
      <use xlink:href="#ma5c6ef6999" x="576.545313" y="27.776563" style="fill: #ff7f0e; stroke: #ff7f0e; stroke-linejoin: miter"/>
     </g>
    </g>
    <g id="text_19">
     <!-- Train -->
     <g transform="translate(594.545313 31.276563)scale(0.1 -0.1)">
      <use xlink:href="#DejaVuSans-54"/>
      <use xlink:href="#DejaVuSans-72" x="46.333984"/>
      <use xlink:href="#DejaVuSans-61" x="87.447266"/>
      <use xlink:href="#DejaVuSans-69" x="148.726562"/>
      <use xlink:href="#DejaVuSans-6e" x="176.509766"/>
     </g>
    </g>
    <g id="line2d_22">
     <path d="M 566.545313 42.454688 
L 576.545313 42.454688 
L 586.545313 42.454688 
" style="fill: none; stroke: #1f77b4; stroke-linecap: square"/>
     <g>
      <use xlink:href="#mceaf18fc42" x="576.545313" y="42.454688" style="fill: #1f77b4; stroke: #1f77b4; stroke-linejoin: miter"/>
     </g>
    </g>
    <g id="text_20">
     <!-- Test -->
     <g transform="translate(594.545313 45.954688)scale(0.1 -0.1)">
      <use xlink:href="#DejaVuSans-54"/>
      <use xlink:href="#DejaVuSans-65" x="44.083984"/>
      <use xlink:href="#DejaVuSans-73" x="105.607422"/>
      <use xlink:href="#DejaVuSans-74" x="157.707031"/>
     </g>
    </g>
   </g>
  </g>
 </g>
 <defs>
  <clipPath id="p338491cdf8">
   <rect x="47.27" y="0" width="672.73" height="208.456"/>
  </clipPath>
 </defs>
</svg>
